<?xml version="1.0" encoding="UTF-8"?>
<svg xmlns="http://www.w3.org/2000/svg" version="1.1" width="150" height="150" viewBox="0 0 150 150"><rect x="0" y="0" width="150" height="150" fill="#ffffff"/><g transform="scale(2.632)"><g transform="translate(0,0)"><path fill-rule="evenodd" d="M9 0L9 1L10 1L10 0ZM11 0L11 2L14 2L14 3L12 3L12 5L9 5L9 6L8 6L8 8L4 8L4 9L5 9L5 10L6 10L6 11L7 11L7 10L8 10L8 12L6 12L6 13L9 13L9 16L8 16L8 15L7 15L7 14L5 14L5 12L4 12L4 10L3 10L3 8L0 8L0 11L1 11L1 12L0 12L0 13L1 13L1 12L2 12L2 14L3 14L3 15L4 15L4 16L5 16L5 15L7 15L7 16L6 16L6 17L7 17L7 18L5 18L5 19L4 19L4 18L3 18L3 19L4 19L4 21L3 21L3 20L2 20L2 17L3 17L3 16L2 16L2 15L0 15L0 16L2 16L2 17L1 17L1 18L0 18L0 20L2 20L2 21L3 21L3 22L0 22L0 23L3 23L3 22L4 22L4 23L5 23L5 22L4 22L4 21L8 21L8 22L6 22L6 23L9 23L9 24L11 24L11 25L9 25L9 26L8 26L8 25L7 25L7 24L6 24L6 25L7 25L7 26L5 26L5 25L4 25L4 24L2 24L2 25L4 25L4 26L3 26L3 27L2 27L2 26L1 26L1 24L0 24L0 26L1 26L1 29L0 29L0 32L1 32L1 29L2 29L2 30L3 30L3 29L2 29L2 28L3 28L3 27L4 27L4 31L5 31L5 32L4 32L4 33L5 33L5 32L6 32L6 33L7 33L7 34L6 34L6 35L4 35L4 34L3 34L3 35L2 35L2 34L1 34L1 33L0 33L0 36L1 36L1 35L2 35L2 36L3 36L3 35L4 35L4 36L6 36L6 37L5 37L5 38L6 38L6 39L5 39L5 40L6 40L6 41L4 41L4 40L2 40L2 39L3 39L3 37L2 37L2 38L1 38L1 37L0 37L0 38L1 38L1 40L0 40L0 48L5 48L5 47L7 47L7 48L6 48L6 49L8 49L8 53L9 53L9 52L10 52L10 54L12 54L12 53L11 53L11 52L10 52L10 51L11 51L11 50L10 50L10 49L12 49L12 48L13 48L13 49L14 49L14 48L17 48L17 50L14 50L14 51L15 51L15 53L14 53L14 52L13 52L13 55L14 55L14 54L15 54L15 56L16 56L16 55L17 55L17 57L19 57L19 56L18 56L18 55L19 55L19 54L18 54L18 53L19 53L19 52L20 52L20 54L21 54L21 52L22 52L22 55L20 55L20 56L22 56L22 57L23 57L23 56L24 56L24 55L25 55L25 56L26 56L26 57L27 57L27 56L28 56L28 57L31 57L31 56L30 56L30 55L31 55L31 54L32 54L32 55L33 55L33 56L32 56L32 57L36 57L36 55L35 55L35 56L34 56L34 53L33 53L33 52L34 52L34 51L35 51L35 52L36 52L36 53L35 53L35 54L38 54L38 53L40 53L40 55L38 55L38 56L40 56L40 57L41 57L41 56L42 56L42 57L43 57L43 56L42 56L42 53L44 53L44 54L43 54L43 55L44 55L44 57L45 57L45 56L46 56L46 57L47 57L47 56L48 56L48 55L49 55L49 53L51 53L51 54L50 54L50 55L51 55L51 56L52 56L52 57L53 57L53 56L54 56L54 55L55 55L55 57L57 57L57 56L56 56L56 55L57 55L57 54L56 54L56 53L57 53L57 52L56 52L56 51L57 51L57 50L56 50L56 49L57 49L57 48L56 48L56 47L57 47L57 45L56 45L56 43L57 43L57 40L56 40L56 38L57 38L57 37L55 37L55 38L54 38L54 39L55 39L55 40L56 40L56 41L55 41L55 42L54 42L54 41L53 41L53 42L52 42L52 41L51 41L51 40L52 40L52 39L53 39L53 38L52 38L52 35L53 35L53 36L54 36L54 35L55 35L55 36L57 36L57 34L56 34L56 33L57 33L57 32L56 32L56 31L57 31L57 29L55 29L55 30L54 30L54 29L53 29L53 28L54 28L54 27L57 27L57 25L55 25L55 26L54 26L54 24L53 24L53 23L55 23L55 24L56 24L56 23L57 23L57 22L56 22L56 21L53 21L53 20L54 20L54 19L55 19L55 20L57 20L57 16L56 16L56 15L57 15L57 12L56 12L56 11L57 11L57 9L55 9L55 8L54 8L54 9L53 9L53 10L52 10L52 9L51 9L51 8L49 8L49 10L48 10L48 9L47 9L47 8L46 8L46 7L47 7L47 5L48 5L48 0L46 0L46 1L47 1L47 2L46 2L46 3L45 3L45 4L44 4L44 5L43 5L43 4L41 4L41 3L40 3L40 4L41 4L41 5L40 5L40 7L39 7L39 2L43 2L43 0L41 0L41 1L39 1L39 0L38 0L38 1L37 1L37 0L32 0L32 1L31 1L31 0L30 0L30 1L27 1L27 0L26 0L26 1L25 1L25 0L22 0L22 1L21 1L21 0L20 0L20 1L19 1L19 2L18 2L18 0L16 0L16 1L15 1L15 2L14 2L14 1L13 1L13 0ZM20 1L20 2L19 2L19 3L18 3L18 2L17 2L17 3L16 3L16 2L15 2L15 3L14 3L14 4L13 4L13 5L12 5L12 6L11 6L11 7L10 7L10 6L9 6L9 7L10 7L10 8L9 8L9 9L11 9L11 10L9 10L9 11L11 11L11 12L9 12L9 13L11 13L11 14L10 14L10 15L11 15L11 16L9 16L9 17L8 17L8 16L7 16L7 17L8 17L8 19L5 19L5 20L8 20L8 21L9 21L9 23L11 23L11 22L12 22L12 21L11 21L11 20L10 20L10 19L9 19L9 18L10 18L10 17L11 17L11 19L12 19L12 18L13 18L13 16L15 16L15 15L16 15L16 17L15 17L15 18L14 18L14 19L15 19L15 18L17 18L17 19L16 19L16 20L17 20L17 21L16 21L16 22L17 22L17 23L16 23L16 24L13 24L13 23L14 23L14 22L15 22L15 20L14 20L14 22L13 22L13 23L12 23L12 24L13 24L13 25L12 25L12 27L11 27L11 28L12 28L12 29L11 29L11 30L12 30L12 29L13 29L13 30L15 30L15 31L14 31L14 32L13 32L13 33L14 33L14 32L15 32L15 34L14 34L14 35L15 35L15 34L16 34L16 35L18 35L18 36L17 36L17 37L18 37L18 36L19 36L19 35L20 35L20 36L21 36L21 37L20 37L20 38L21 38L21 39L20 39L20 40L19 40L19 41L20 41L20 42L18 42L18 43L20 43L20 44L18 44L18 46L19 46L19 47L18 47L18 48L19 48L19 47L22 47L22 48L23 48L23 49L24 49L24 50L23 50L23 51L22 51L22 50L21 50L21 48L20 48L20 49L19 49L19 50L21 50L21 51L20 51L20 52L21 52L21 51L22 51L22 52L23 52L23 51L24 51L24 52L25 52L25 53L24 53L24 54L25 54L25 55L26 55L26 56L27 56L27 55L28 55L28 56L29 56L29 55L28 55L28 54L27 54L27 55L26 55L26 54L25 54L25 53L26 53L26 52L25 52L25 51L26 51L26 50L25 50L25 49L26 49L26 48L27 48L27 47L28 47L28 48L30 48L30 46L31 46L31 47L32 47L32 48L31 48L31 49L32 49L32 48L33 48L33 49L34 49L34 50L31 50L31 51L34 51L34 50L38 50L38 52L39 52L39 50L40 50L40 51L42 51L42 52L41 52L41 53L42 53L42 52L43 52L43 51L44 51L44 49L41 49L41 50L40 50L40 49L34 49L34 48L35 48L35 46L36 46L36 47L37 47L37 48L39 48L39 47L43 47L43 48L44 48L44 47L45 47L45 48L47 48L47 49L45 49L45 50L46 50L46 51L45 51L45 52L46 52L46 51L48 51L48 50L47 50L47 49L48 49L48 48L49 48L49 47L50 47L50 46L51 46L51 47L52 47L52 48L53 48L53 49L54 49L54 50L53 50L53 51L54 51L54 52L53 52L53 54L55 54L55 55L56 55L56 54L55 54L55 53L56 53L56 52L55 52L55 51L56 51L56 50L55 50L55 49L56 49L56 48L55 48L55 47L56 47L56 46L55 46L55 43L54 43L54 42L53 42L53 43L52 43L52 42L51 42L51 41L50 41L50 38L51 38L51 39L52 39L52 38L51 38L51 37L50 37L50 36L51 36L51 35L52 35L52 34L53 34L53 35L54 35L54 34L55 34L55 35L56 35L56 34L55 34L55 33L56 33L56 32L55 32L55 31L56 31L56 30L55 30L55 31L54 31L54 30L53 30L53 31L52 31L52 32L51 32L51 33L50 33L50 32L49 32L49 31L48 31L48 30L47 30L47 29L48 29L48 28L47 28L47 27L48 27L48 26L49 26L49 25L50 25L50 26L51 26L51 25L52 25L52 26L53 26L53 27L54 27L54 26L53 26L53 25L52 25L52 24L51 24L51 23L52 23L52 22L53 22L53 21L52 21L52 20L51 20L51 19L54 19L54 18L55 18L55 19L56 19L56 18L55 18L55 17L56 17L56 16L55 16L55 15L56 15L56 14L55 14L55 10L53 10L53 11L54 11L54 12L53 12L53 13L52 13L52 12L51 12L51 11L52 11L52 10L51 10L51 9L50 9L50 10L49 10L49 11L48 11L48 10L47 10L47 9L46 9L46 10L45 10L45 9L44 9L44 8L45 8L45 7L46 7L46 6L45 6L45 5L44 5L44 6L43 6L43 7L44 7L44 8L41 8L41 9L40 9L40 8L39 8L39 7L38 7L38 6L37 6L37 5L38 5L38 2L37 2L37 1L35 1L35 3L36 3L36 4L35 4L35 5L36 5L36 6L35 6L35 8L34 8L34 4L33 4L33 3L34 3L34 1L32 1L32 2L31 2L31 3L32 3L32 4L31 4L31 5L33 5L33 7L32 7L32 6L31 6L31 7L32 7L32 9L33 9L33 10L32 10L32 11L31 11L31 9L30 9L30 12L31 12L31 13L30 13L30 14L31 14L31 15L30 15L30 16L29 16L29 15L28 15L28 14L29 14L29 13L28 13L28 12L27 12L27 11L28 11L28 10L29 10L29 9L28 9L28 10L27 10L27 9L26 9L26 8L24 8L24 6L23 6L23 3L24 3L24 5L25 5L25 7L26 7L26 5L25 5L25 3L24 3L24 2L25 2L25 1L24 1L24 2L23 2L23 1L22 1L22 2L21 2L21 1ZM26 1L26 3L28 3L28 4L29 4L29 2L27 2L27 1ZM44 1L44 2L45 2L45 1ZM8 2L8 3L9 3L9 4L11 4L11 3L10 3L10 2ZM20 2L20 3L21 3L21 2ZM15 3L15 6L14 6L14 7L13 7L13 6L12 6L12 8L11 8L11 9L12 9L12 10L14 10L14 11L15 11L15 12L14 12L14 13L15 13L15 14L14 14L14 15L15 15L15 14L16 14L16 15L17 15L17 16L18 16L18 17L17 17L17 18L18 18L18 19L17 19L17 20L18 20L18 22L19 22L19 20L18 20L18 19L19 19L19 18L20 18L20 19L21 19L21 18L24 18L24 19L23 19L23 20L20 20L20 22L21 22L21 21L22 21L22 23L20 23L20 24L22 24L22 25L21 25L21 26L20 26L20 25L19 25L19 24L17 24L17 26L16 26L16 25L15 25L15 26L13 26L13 27L12 27L12 28L13 28L13 29L14 29L14 27L17 27L17 26L18 26L18 27L19 27L19 28L18 28L18 29L19 29L19 30L18 30L18 31L15 31L15 32L17 32L17 34L18 34L18 35L19 35L19 34L18 34L18 33L20 33L20 31L23 31L23 32L21 32L21 33L22 33L22 34L24 34L24 35L23 35L23 36L22 36L22 35L21 35L21 36L22 36L22 37L21 37L21 38L22 38L22 39L21 39L21 40L22 40L22 41L21 41L21 42L20 42L20 43L21 43L21 42L22 42L22 43L23 43L23 44L22 44L22 45L23 45L23 46L22 46L22 47L23 47L23 48L24 48L24 47L25 47L25 48L26 48L26 47L27 47L27 46L28 46L28 47L29 47L29 46L30 46L30 45L31 45L31 43L32 43L32 45L33 45L33 46L32 46L32 47L33 47L33 48L34 48L34 45L35 45L35 44L34 44L34 43L35 43L35 41L34 41L34 43L32 43L32 42L33 42L33 41L32 41L32 39L34 39L34 40L35 40L35 39L34 39L34 37L35 37L35 38L36 38L36 39L37 39L37 40L36 40L36 41L37 41L37 42L36 42L36 45L37 45L37 47L38 47L38 45L39 45L39 46L41 46L41 42L42 42L42 41L43 41L43 42L44 42L44 44L43 44L43 43L42 43L42 44L43 44L43 45L45 45L45 44L47 44L47 43L46 43L46 41L45 41L45 40L46 40L46 39L44 39L44 38L45 38L45 37L47 37L47 39L48 39L48 40L49 40L49 39L48 39L48 38L49 38L49 37L47 37L47 36L45 36L45 34L44 34L44 33L45 33L45 31L47 31L47 30L45 30L45 28L46 28L46 29L47 29L47 28L46 28L46 25L47 25L47 26L48 26L48 25L47 25L47 23L46 23L46 24L45 24L45 22L43 22L43 23L41 23L41 21L42 21L42 20L44 20L44 21L45 21L45 20L46 20L46 21L47 21L47 20L48 20L48 19L49 19L49 20L50 20L50 21L49 21L49 22L48 22L48 23L49 23L49 24L50 24L50 25L51 25L51 24L50 24L50 23L49 23L49 22L50 22L50 21L51 21L51 22L52 22L52 21L51 21L51 20L50 20L50 17L51 17L51 18L54 18L54 17L53 17L53 16L54 16L54 15L55 15L55 14L54 14L54 13L53 13L53 14L52 14L52 13L51 13L51 12L50 12L50 11L49 11L49 12L50 12L50 13L49 13L49 14L48 14L48 13L47 13L47 12L48 12L48 11L47 11L47 12L46 12L46 11L45 11L45 10L44 10L44 9L43 9L43 10L42 10L42 9L41 9L41 10L40 10L40 9L39 9L39 8L38 8L38 7L37 7L37 6L36 6L36 7L37 7L37 8L36 8L36 9L37 9L37 10L36 10L36 13L35 13L35 9L34 9L34 12L33 12L33 11L32 11L32 13L33 13L33 14L32 14L32 15L31 15L31 16L30 16L30 17L29 17L29 16L28 16L28 17L29 17L29 18L28 18L28 19L27 19L27 20L28 20L28 21L27 21L27 22L26 22L26 21L25 21L25 20L26 20L26 19L25 19L25 18L27 18L27 17L25 17L25 18L24 18L24 17L23 17L23 16L24 16L24 15L25 15L25 16L26 16L26 15L27 15L27 14L28 14L28 13L27 13L27 14L26 14L26 13L25 13L25 14L24 14L24 15L23 15L23 14L20 14L20 11L21 11L21 10L22 10L22 11L23 11L23 12L22 12L22 13L24 13L24 11L25 11L25 12L26 12L26 11L27 11L27 10L26 10L26 9L25 9L25 10L24 10L24 9L23 9L23 8L22 8L22 7L23 7L23 6L22 6L22 5L21 5L21 4L20 4L20 5L21 5L21 6L20 6L20 7L19 7L19 6L18 6L18 7L17 7L17 5L18 5L18 3L17 3L17 5L16 5L16 3ZM46 3L46 5L47 5L47 3ZM36 4L36 5L37 5L37 4ZM27 5L27 8L30 8L30 5ZM15 6L15 8L16 8L16 9L15 9L15 11L16 11L16 12L15 12L15 13L16 13L16 14L17 14L17 15L19 15L19 12L18 12L18 14L17 14L17 11L16 11L16 10L17 10L17 8L16 8L16 6ZM21 6L21 7L20 7L20 8L19 8L19 10L18 10L18 11L20 11L20 10L21 10L21 9L22 9L22 8L21 8L21 7L22 7L22 6ZM28 6L28 7L29 7L29 6ZM41 6L41 7L42 7L42 6ZM44 6L44 7L45 7L45 6ZM48 6L48 7L49 7L49 6ZM12 8L12 9L13 9L13 8ZM20 8L20 9L21 9L21 8ZM37 8L37 9L38 9L38 10L37 10L37 11L39 11L39 13L36 13L36 14L35 14L35 13L34 13L34 15L33 15L33 16L35 16L35 15L36 15L36 14L37 14L37 15L38 15L38 16L37 16L37 18L39 18L39 19L40 19L40 18L42 18L42 19L41 19L41 20L42 20L42 19L46 19L46 20L47 20L47 19L48 19L48 18L49 18L49 17L50 17L50 16L51 16L51 17L52 17L52 16L51 16L51 15L52 15L52 14L51 14L51 13L50 13L50 14L49 14L49 15L48 15L48 14L47 14L47 13L46 13L46 12L45 12L45 13L46 13L46 14L45 14L45 15L46 15L46 16L45 16L45 17L40 17L40 14L41 14L41 15L42 15L42 16L43 16L43 15L44 15L44 13L43 13L43 11L44 11L44 10L43 10L43 11L42 11L42 10L41 10L41 11L42 11L42 13L40 13L40 10L39 10L39 9L38 9L38 8ZM1 9L1 10L2 10L2 11L3 11L3 10L2 10L2 9ZM6 9L6 10L7 10L7 9ZM23 10L23 11L24 11L24 10ZM25 10L25 11L26 11L26 10ZM12 11L12 12L11 12L11 13L12 13L12 12L13 12L13 11ZM3 12L3 13L4 13L4 12ZM25 14L25 15L26 15L26 14ZM53 14L53 15L54 15L54 14ZM12 15L12 16L13 16L13 15ZM20 15L20 16L19 16L19 17L20 17L20 18L21 18L21 15ZM22 15L22 16L23 16L23 15ZM47 15L47 16L46 16L46 17L47 17L47 18L46 18L46 19L47 19L47 18L48 18L48 15ZM49 15L49 16L50 16L50 15ZM31 16L31 17L30 17L30 18L29 18L29 19L28 19L28 20L29 20L29 21L28 21L28 22L27 22L27 23L26 23L26 24L27 24L27 25L26 25L26 26L25 26L25 23L24 23L24 24L23 24L23 23L22 23L22 24L23 24L23 25L24 25L24 26L22 26L22 27L24 27L24 28L25 28L25 29L23 29L23 28L22 28L22 30L23 30L23 31L24 31L24 32L23 32L23 33L24 33L24 34L25 34L25 33L26 33L26 34L27 34L27 35L26 35L26 36L25 36L25 35L24 35L24 36L23 36L23 39L22 39L22 40L23 40L23 41L24 41L24 42L23 42L23 43L24 43L24 44L23 44L23 45L24 45L24 46L23 46L23 47L24 47L24 46L25 46L25 45L26 45L26 46L27 46L27 45L28 45L28 46L29 46L29 44L27 44L27 43L28 43L28 42L29 42L29 43L30 43L30 42L31 42L31 41L30 41L30 40L28 40L28 39L30 39L30 38L31 38L31 39L32 39L32 38L33 38L33 37L34 37L34 36L35 36L35 37L36 37L36 38L37 38L37 37L38 37L38 40L37 40L37 41L38 41L38 42L37 42L37 43L38 43L38 44L37 44L37 45L38 45L38 44L39 44L39 45L40 45L40 44L39 44L39 43L40 43L40 42L41 42L41 41L42 41L42 40L43 40L43 41L44 41L44 39L43 39L43 36L42 36L42 35L43 35L43 33L42 33L42 32L43 32L43 31L44 31L44 29L43 29L43 28L44 28L44 27L43 27L43 25L44 25L44 26L45 26L45 25L44 25L44 24L41 24L41 25L40 25L40 24L39 24L39 23L40 23L40 22L39 22L39 21L38 21L38 24L37 24L37 23L36 23L36 22L37 22L37 21L36 21L36 20L35 20L35 19L36 19L36 18L35 18L35 17L32 17L32 16ZM38 16L38 17L39 17L39 18L40 18L40 17L39 17L39 16ZM31 17L31 18L32 18L32 19L31 19L31 20L30 20L30 19L29 19L29 20L30 20L30 21L29 21L29 22L28 22L28 23L27 23L27 24L28 24L28 25L27 25L27 26L26 26L26 27L25 27L25 26L24 26L24 27L25 27L25 28L26 28L26 29L25 29L25 30L24 30L24 31L25 31L25 32L26 32L26 33L27 33L27 34L28 34L28 35L27 35L27 36L26 36L26 37L25 37L25 36L24 36L24 38L25 38L25 39L24 39L24 40L25 40L25 41L26 41L26 40L25 40L25 39L27 39L27 38L26 38L26 37L27 37L27 36L28 36L28 38L30 38L30 37L31 37L31 38L32 38L32 37L33 37L33 36L34 36L34 35L33 35L33 36L32 36L32 35L31 35L31 36L30 36L30 34L34 34L34 33L39 33L39 35L40 35L40 36L38 36L38 35L36 35L36 34L35 34L35 35L36 35L36 37L37 37L37 36L38 36L38 37L41 37L41 38L39 38L39 40L38 40L38 41L39 41L39 42L38 42L38 43L39 43L39 42L40 42L40 41L41 41L41 40L42 40L42 39L41 39L41 38L42 38L42 37L41 37L41 35L40 35L40 34L41 34L41 30L40 30L40 29L42 29L42 28L43 28L43 27L42 27L42 28L41 28L41 26L42 26L42 25L41 25L41 26L40 26L40 25L39 25L39 24L38 24L38 25L36 25L36 23L35 23L35 24L34 24L34 23L33 23L33 24L32 24L32 25L33 25L33 26L32 26L32 29L31 29L31 26L30 26L30 25L29 25L29 24L31 24L31 23L29 23L29 22L30 22L30 21L31 21L31 22L34 22L34 21L35 21L35 20L34 20L34 21L33 21L33 20L32 20L32 19L33 19L33 18L32 18L32 17ZM24 19L24 20L25 20L25 19ZM37 19L37 20L38 20L38 19ZM9 20L9 21L10 21L10 20ZM31 20L31 21L32 21L32 20ZM24 21L24 22L25 22L25 21ZM55 22L55 23L56 23L56 22ZM28 25L28 26L29 26L29 25ZM34 25L34 26L35 26L35 25ZM38 25L38 26L36 26L36 27L35 27L35 28L34 28L34 27L33 27L33 29L34 29L34 30L31 30L31 31L33 31L33 33L34 33L34 31L36 31L36 30L35 30L35 29L36 29L36 27L37 27L37 28L39 28L39 29L38 29L38 30L37 30L37 31L40 31L40 30L39 30L39 29L40 29L40 26L39 26L39 25ZM19 26L19 27L20 27L20 30L19 30L19 31L18 31L18 32L19 32L19 31L20 31L20 30L21 30L21 27L20 27L20 26ZM5 27L5 30L8 30L8 27ZM27 27L27 30L30 30L30 27ZM49 27L49 30L52 30L52 27ZM6 28L6 29L7 29L7 28ZM28 28L28 29L29 29L29 28ZM50 28L50 29L51 29L51 28ZM9 29L9 31L8 31L8 32L7 32L7 31L6 31L6 32L7 32L7 33L9 33L9 34L7 34L7 35L6 35L6 36L7 36L7 37L6 37L6 38L7 38L7 37L9 37L9 38L8 38L8 40L7 40L7 39L6 39L6 40L7 40L7 41L6 41L6 42L4 42L4 43L2 43L2 42L3 42L3 41L2 41L2 40L1 40L1 44L2 44L2 45L1 45L1 47L2 47L2 46L3 46L3 47L5 47L5 45L3 45L3 44L4 44L4 43L5 43L5 44L7 44L7 43L8 43L8 45L6 45L6 46L7 46L7 47L8 47L8 45L10 45L10 46L9 46L9 47L10 47L10 48L11 48L11 47L10 47L10 46L12 46L12 47L13 47L13 46L14 46L14 47L17 47L17 45L16 45L16 44L17 44L17 43L16 43L16 42L17 42L17 41L18 41L18 40L16 40L16 39L17 39L17 38L16 38L16 36L14 36L14 39L11 39L11 40L13 40L13 41L14 41L14 42L13 42L13 44L11 44L11 43L12 43L12 42L11 42L11 41L8 41L8 40L9 40L9 38L13 38L13 37L12 37L12 36L13 36L13 34L11 34L11 32L12 32L12 31L11 31L11 32L10 32L10 33L9 33L9 31L10 31L10 29ZM15 29L15 30L16 30L16 29ZM26 31L26 32L27 32L27 33L28 33L28 34L29 34L29 32L30 32L30 33L32 33L32 32L30 32L30 31L28 31L28 32L27 32L27 31ZM53 31L53 32L54 32L54 31ZM39 32L39 33L40 33L40 32ZM46 32L46 33L47 33L47 34L48 34L48 33L49 33L49 36L50 36L50 35L51 35L51 34L52 34L52 33L51 33L51 34L50 34L50 33L49 33L49 32L48 32L48 33L47 33L47 32ZM53 33L53 34L54 34L54 33ZM9 34L9 36L10 36L10 34ZM7 35L7 36L8 36L8 35ZM28 35L28 36L29 36L29 37L30 37L30 36L29 36L29 35ZM31 36L31 37L32 37L32 36ZM18 38L18 39L19 39L19 38ZM14 40L14 41L15 41L15 40ZM39 40L39 41L40 41L40 40ZM7 41L7 42L6 42L6 43L7 43L7 42L8 42L8 41ZM27 41L27 42L28 42L28 41ZM29 41L29 42L30 42L30 41ZM47 41L47 42L48 42L48 43L49 43L49 44L48 44L48 45L47 45L47 46L48 46L48 47L49 47L49 46L50 46L50 45L51 45L51 46L52 46L52 47L53 47L53 48L54 48L54 47L55 47L55 46L54 46L54 45L53 45L53 46L52 46L52 45L51 45L51 44L52 44L52 43L51 43L51 42L50 42L50 41L49 41L49 42L48 42L48 41ZM9 42L9 44L10 44L10 45L11 45L11 44L10 44L10 42ZM14 42L14 43L15 43L15 42ZM24 42L24 43L25 43L25 44L26 44L26 45L27 45L27 44L26 44L26 43L25 43L25 42ZM49 42L49 43L50 43L50 42ZM53 43L53 44L54 44L54 43ZM13 44L13 45L12 45L12 46L13 46L13 45L14 45L14 46L16 46L16 45L15 45L15 44ZM33 44L33 45L34 45L34 44ZM49 44L49 45L48 45L48 46L49 46L49 45L50 45L50 44ZM19 45L19 46L20 46L20 45ZM53 46L53 47L54 47L54 46ZM8 48L8 49L9 49L9 48ZM27 49L27 52L30 52L30 49ZM49 49L49 52L52 52L52 49ZM17 50L17 51L16 51L16 52L17 52L17 53L16 53L16 54L17 54L17 55L18 55L18 54L17 54L17 53L18 53L18 52L19 52L19 51L18 51L18 50ZM24 50L24 51L25 51L25 50ZM28 50L28 51L29 51L29 50ZM50 50L50 51L51 51L51 50ZM54 50L54 51L55 51L55 50ZM17 51L17 52L18 52L18 51ZM31 52L31 53L30 53L30 54L31 54L31 53L32 53L32 52ZM47 52L47 53L45 53L45 54L44 54L44 55L46 55L46 56L47 56L47 55L48 55L48 54L47 54L47 53L48 53L48 52ZM8 54L8 57L9 57L9 56L10 56L10 57L12 57L12 55L9 55L9 54ZM51 54L51 55L52 55L52 56L53 56L53 55L52 55L52 54ZM22 55L22 56L23 56L23 55ZM13 56L13 57L14 57L14 56ZM0 0L0 7L7 7L7 0ZM1 1L1 6L6 6L6 1ZM2 2L2 5L5 5L5 2ZM50 0L50 7L57 7L57 0ZM51 1L51 6L56 6L56 1ZM52 2L52 5L55 5L55 2ZM0 50L0 57L7 57L7 50ZM1 51L1 56L6 56L6 51ZM2 52L2 55L5 55L5 52Z" fill="#000000"/></g></g></svg>
