<?xml version="1.0" encoding="UTF-8"?>
<svg xmlns="http://www.w3.org/2000/svg" version="1.1" width="150" height="150" viewBox="0 0 150 150"><rect x="0" y="0" width="150" height="150" fill="#ffffff"/><g transform="scale(2.83)"><g transform="translate(0,0)"><path fill-rule="evenodd" d="M8 0L8 1L11 1L11 0ZM14 0L14 2L13 2L13 3L14 3L14 2L15 2L15 1L16 1L16 0ZM17 0L17 2L16 2L16 3L15 3L15 4L17 4L17 5L16 5L16 7L17 7L17 8L18 8L18 7L19 7L19 6L20 6L20 9L22 9L22 10L18 10L18 9L17 9L17 11L16 11L16 12L15 12L15 13L14 13L14 11L15 11L15 10L16 10L16 9L15 9L15 10L14 10L14 11L12 11L12 10L11 10L11 11L9 11L9 12L2 12L2 11L8 11L8 9L9 9L9 8L8 8L8 9L7 9L7 8L6 8L6 9L7 9L7 10L5 10L5 9L4 9L4 8L0 8L0 9L1 9L1 10L0 10L0 12L2 12L2 13L0 13L0 15L1 15L1 17L3 17L3 18L2 18L2 19L1 19L1 20L0 20L0 21L2 21L2 20L4 20L4 21L3 21L3 22L0 22L0 23L2 23L2 24L1 24L1 25L2 25L2 26L1 26L1 27L0 27L0 28L1 28L1 30L0 30L0 31L3 31L3 33L4 33L4 34L3 34L3 37L1 37L1 38L0 38L0 39L1 39L1 38L3 38L3 37L4 37L4 36L5 36L5 37L7 37L7 38L6 38L6 39L2 39L2 41L1 41L1 40L0 40L0 41L1 41L1 42L0 42L0 43L1 43L1 44L3 44L3 45L4 45L4 44L3 44L3 43L7 43L7 44L6 44L6 45L8 45L8 46L9 46L9 49L8 49L8 53L10 53L10 52L11 52L11 48L13 48L13 47L11 47L11 48L10 48L10 46L13 46L13 45L15 45L15 46L14 46L14 49L17 49L17 50L16 50L16 51L15 51L15 50L14 50L14 51L15 51L15 52L16 52L16 53L18 53L18 52L19 52L19 51L18 51L18 52L16 52L16 51L17 51L17 50L19 50L19 49L20 49L20 50L21 50L21 52L23 52L23 53L24 53L24 52L23 52L23 51L22 51L22 50L24 50L24 49L26 49L26 50L25 50L25 51L27 51L27 52L26 52L26 53L27 53L27 52L29 52L29 53L30 53L30 52L32 52L32 53L34 53L34 49L33 49L33 51L32 51L32 50L30 50L30 49L32 49L32 48L33 48L33 47L34 47L34 48L35 48L35 46L36 46L36 49L35 49L35 50L36 50L36 49L37 49L37 48L38 48L38 46L37 46L37 45L38 45L38 44L39 44L39 45L40 45L40 46L41 46L41 47L42 47L42 48L44 48L44 49L47 49L47 50L46 50L46 51L47 51L47 50L49 50L49 51L48 51L48 52L46 52L46 53L48 53L48 52L49 52L49 51L51 51L51 53L52 53L52 50L53 50L53 47L52 47L52 48L50 48L50 47L51 47L51 46L53 46L53 43L52 43L52 42L53 42L53 41L52 41L52 42L51 42L51 41L49 41L49 39L50 39L50 38L52 38L52 39L51 39L51 40L52 40L52 39L53 39L53 36L51 36L51 37L50 37L50 38L49 38L49 39L48 39L48 40L47 40L47 38L48 38L48 37L47 37L47 38L46 38L46 37L45 37L45 34L46 34L46 33L47 33L47 32L48 32L48 34L47 34L47 35L48 35L48 34L49 34L49 33L51 33L51 34L50 34L50 35L49 35L49 36L50 36L50 35L51 35L51 34L53 34L53 33L51 33L51 31L52 31L52 32L53 32L53 31L52 31L52 30L51 30L51 31L50 31L50 32L48 32L48 31L49 31L49 30L50 30L50 29L49 29L49 27L50 27L50 26L51 26L51 25L52 25L52 27L51 27L51 28L52 28L52 27L53 27L53 25L52 25L52 24L53 24L53 23L52 23L52 24L50 24L50 23L51 23L51 22L50 22L50 23L48 23L48 22L49 22L49 21L48 21L48 22L46 22L46 21L47 21L47 20L49 20L49 18L50 18L50 17L49 17L49 18L48 18L48 19L47 19L47 16L49 16L49 15L50 15L50 14L52 14L52 15L53 15L53 13L52 13L52 12L53 12L53 11L52 11L52 12L50 12L50 11L51 11L51 10L53 10L53 8L52 8L52 9L51 9L51 8L48 8L48 9L51 9L51 10L50 10L50 11L49 11L49 10L46 10L46 12L44 12L44 13L43 13L43 12L42 12L42 11L45 11L45 10L44 10L44 9L46 9L46 8L45 8L45 6L44 6L44 9L43 9L43 8L42 8L42 7L43 7L43 3L44 3L44 4L45 4L45 3L44 3L44 1L43 1L43 0L42 0L42 2L43 2L43 3L41 3L41 4L42 4L42 5L40 5L40 7L39 7L39 4L40 4L40 2L36 2L36 1L37 1L37 0L36 0L36 1L34 1L34 0L33 0L33 1L32 1L32 0L26 0L26 1L25 1L25 0L21 0L21 1L22 1L22 2L21 2L21 3L20 3L20 2L19 2L19 3L18 3L18 4L17 4L17 2L18 2L18 0ZM39 0L39 1L41 1L41 0ZM24 1L24 3L21 3L21 7L22 7L22 8L23 8L23 9L24 9L24 8L23 8L23 7L24 7L24 4L26 4L26 3L28 3L28 4L30 4L30 5L29 5L29 9L30 9L30 5L32 5L32 6L31 6L31 11L29 11L29 10L28 10L28 11L26 11L26 10L27 10L27 9L25 9L25 11L24 11L24 12L25 12L25 13L26 13L26 14L27 14L27 15L25 15L25 17L24 17L24 16L23 16L23 15L22 15L22 17L21 17L21 16L19 16L19 13L18 13L18 11L17 11L17 13L15 13L15 15L16 15L16 16L14 16L14 14L11 14L11 15L10 15L10 14L9 14L9 13L5 13L5 14L9 14L9 15L4 15L4 16L3 16L3 17L4 17L4 16L5 16L5 18L4 18L4 20L5 20L5 21L6 21L6 22L7 22L7 23L6 23L6 24L7 24L7 23L8 23L8 21L9 21L9 22L10 22L10 23L9 23L9 28L11 28L11 30L13 30L13 29L12 29L12 28L14 28L14 27L16 27L16 28L15 28L15 30L16 30L16 31L13 31L13 33L12 33L12 31L11 31L11 33L10 33L10 32L9 32L9 31L10 31L10 29L9 29L9 31L8 31L8 30L7 30L7 29L6 29L6 30L4 30L4 29L3 29L3 28L4 28L4 27L3 27L3 26L2 26L2 27L3 27L3 28L2 28L2 30L4 30L4 31L5 31L5 32L7 32L7 33L5 33L5 34L7 34L7 35L6 35L6 36L7 36L7 35L8 35L8 36L9 36L9 39L11 39L11 40L10 40L10 41L9 41L9 42L8 42L8 41L6 41L6 40L7 40L7 39L6 39L6 40L3 40L3 41L2 41L2 43L3 43L3 42L7 42L7 43L8 43L8 44L9 44L9 42L10 42L10 43L13 43L13 44L12 44L12 45L13 45L13 44L14 44L14 43L15 43L15 45L16 45L16 46L15 46L15 48L16 48L16 47L17 47L17 49L18 49L18 47L17 47L17 46L19 46L19 47L20 47L20 48L22 48L22 49L24 49L24 48L22 48L22 47L24 47L24 46L21 46L21 45L20 45L20 44L21 44L21 43L22 43L22 42L23 42L23 43L24 43L24 44L23 44L23 45L24 45L24 44L25 44L25 43L24 43L24 41L26 41L26 40L27 40L27 42L26 42L26 43L27 43L27 44L29 44L29 46L30 46L30 45L31 45L31 47L29 47L29 49L27 49L27 51L28 51L28 50L29 50L29 52L30 52L30 50L29 50L29 49L30 49L30 48L32 48L32 46L33 46L33 45L34 45L34 46L35 46L35 45L37 45L37 44L38 44L38 42L39 42L39 41L41 41L41 42L40 42L40 43L41 43L41 44L42 44L42 45L43 45L43 44L42 44L42 43L44 43L44 44L46 44L46 43L48 43L48 44L50 44L50 45L49 45L49 47L50 47L50 46L51 46L51 45L52 45L52 43L51 43L51 44L50 44L50 42L49 42L49 41L47 41L47 40L45 40L45 39L46 39L46 38L45 38L45 37L44 37L44 34L45 34L45 33L46 33L46 31L48 31L48 30L49 30L49 29L45 29L45 30L44 30L44 26L43 26L43 25L44 25L44 24L45 24L45 23L46 23L46 24L48 24L48 23L46 23L46 22L45 22L45 21L46 21L46 20L47 20L47 19L45 19L45 20L44 20L44 19L43 19L43 18L45 18L45 16L46 16L46 15L49 15L49 14L50 14L50 13L48 13L48 11L47 11L47 12L46 12L46 13L45 13L45 14L44 14L44 16L43 16L43 15L42 15L42 14L43 14L43 13L42 13L42 12L41 12L41 9L42 9L42 8L41 8L41 9L40 9L40 8L38 8L38 6L37 6L37 5L38 5L38 3L37 3L37 4L36 4L36 3L34 3L34 1L33 1L33 3L31 3L31 2L32 2L32 1L31 1L31 2L29 2L29 1L27 1L27 2L25 2L25 1ZM8 2L8 5L10 5L10 8L11 8L11 6L12 6L12 8L13 8L13 9L14 9L14 8L15 8L15 6L14 6L14 5L13 5L13 4L12 4L12 5L10 5L10 3L11 3L11 2L10 2L10 3L9 3L9 2ZM28 2L28 3L29 3L29 2ZM19 3L19 4L18 4L18 5L17 5L17 7L18 7L18 6L19 6L19 5L20 5L20 3ZM30 3L30 4L31 4L31 3ZM22 4L22 5L23 5L23 4ZM32 4L32 5L33 5L33 6L32 6L32 7L33 7L33 6L34 6L34 7L35 7L35 8L34 8L34 9L33 9L33 10L34 10L34 11L31 11L31 12L30 12L30 13L28 13L28 15L27 15L27 16L28 16L28 15L29 15L29 17L28 17L28 18L29 18L29 17L31 17L31 18L32 18L32 17L33 17L33 19L34 19L34 20L35 20L35 19L34 19L34 18L35 18L35 17L36 17L36 16L35 16L35 17L33 17L33 16L34 16L34 14L33 14L33 13L32 13L32 14L30 14L30 13L31 13L31 12L34 12L34 13L35 13L35 15L36 15L36 13L37 13L37 12L38 12L38 11L39 11L39 10L40 10L40 9L39 9L39 10L38 10L38 11L36 11L36 10L37 10L37 9L38 9L38 8L37 8L37 6L36 6L36 7L35 7L35 6L34 6L34 5L33 5L33 4ZM35 4L35 5L36 5L36 4ZM12 5L12 6L13 6L13 8L14 8L14 6L13 6L13 5ZM25 5L25 8L28 8L28 5ZM8 6L8 7L9 7L9 6ZM22 6L22 7L23 7L23 6ZM26 6L26 7L27 7L27 6ZM41 6L41 7L42 7L42 6ZM35 8L35 9L34 9L34 10L36 10L36 9L37 9L37 8ZM2 9L2 10L3 10L3 9ZM11 11L11 12L12 12L12 13L13 13L13 12L12 12L12 11ZM19 11L19 12L20 12L20 13L21 13L21 14L22 14L22 13L23 13L23 11L21 11L21 12L20 12L20 11ZM25 11L25 12L26 12L26 13L27 13L27 12L26 12L26 11ZM35 11L35 13L36 13L36 11ZM39 12L39 13L38 13L38 16L41 16L41 18L40 18L40 20L39 20L39 19L38 19L38 20L39 20L39 21L40 21L40 22L39 22L39 23L38 23L38 22L37 22L37 23L36 23L36 22L34 22L34 21L32 21L32 20L31 20L31 21L30 21L30 22L29 22L29 20L30 20L30 19L29 19L29 20L28 20L28 21L27 21L27 19L26 19L26 20L25 20L25 21L27 21L27 22L26 22L26 23L27 23L27 22L29 22L29 23L28 23L28 24L24 24L24 23L25 23L25 22L24 22L24 21L23 21L23 20L22 20L22 18L21 18L21 19L20 19L20 17L18 17L18 16L16 16L16 18L15 18L15 19L14 19L14 20L15 20L15 19L16 19L16 18L19 18L19 19L17 19L17 20L19 20L19 22L20 22L20 23L19 23L19 24L18 24L18 25L17 25L17 23L16 23L16 24L15 24L15 25L11 25L11 24L13 24L13 22L14 22L14 23L15 23L15 22L16 22L16 21L13 21L13 22L12 22L12 19L13 19L13 18L14 18L14 16L13 16L13 15L11 15L11 16L12 16L12 17L13 17L13 18L11 18L11 17L7 17L7 16L6 16L6 17L7 17L7 18L5 18L5 20L6 20L6 21L8 21L8 20L9 20L9 21L10 21L10 22L12 22L12 23L11 23L11 24L10 24L10 25L11 25L11 26L10 26L10 27L11 27L11 26L12 26L12 27L14 27L14 26L15 26L15 25L17 25L17 26L16 26L16 27L17 27L17 26L19 26L19 27L18 27L18 28L16 28L16 30L17 30L17 29L18 29L18 31L17 31L17 32L18 32L18 31L19 31L19 29L22 29L22 27L24 27L24 28L23 28L23 30L27 30L27 31L26 31L26 32L25 32L25 33L26 33L26 34L25 34L25 35L24 35L24 33L23 33L23 32L24 32L24 31L23 31L23 32L22 32L22 35L21 35L21 34L19 34L19 33L18 33L18 34L17 34L17 35L16 35L16 36L15 36L15 37L17 37L17 38L16 38L16 39L15 39L15 40L14 40L14 36L13 36L13 34L10 34L10 36L11 36L11 37L12 37L12 38L11 38L11 39L12 39L12 42L13 42L13 43L14 43L14 42L13 42L13 40L14 40L14 41L15 41L15 40L16 40L16 42L15 42L15 43L16 43L16 42L17 42L17 41L18 41L18 40L16 40L16 39L17 39L17 38L18 38L18 39L20 39L20 40L23 40L23 41L24 41L24 39L21 39L21 36L23 36L23 35L24 35L24 38L25 38L25 39L26 39L26 38L25 38L25 37L26 37L26 35L27 35L27 34L28 34L28 36L27 36L27 37L28 37L28 36L29 36L29 35L30 35L30 34L31 34L31 33L32 33L32 31L33 31L33 33L35 33L35 32L37 32L37 33L36 33L36 34L32 34L32 35L31 35L31 36L30 36L30 37L29 37L29 38L30 38L30 39L32 39L32 41L31 41L31 40L29 40L29 41L28 41L28 42L27 42L27 43L29 43L29 44L30 44L30 43L29 43L29 41L31 41L31 43L32 43L32 41L33 41L33 43L34 43L34 44L35 44L35 41L36 41L36 40L35 40L35 41L33 41L33 40L34 40L34 38L33 38L33 37L32 37L32 38L30 38L30 37L31 37L31 36L32 36L32 35L33 35L33 36L34 36L34 37L35 37L35 38L37 38L37 37L38 37L38 39L39 39L39 40L38 40L38 41L37 41L37 42L36 42L36 44L37 44L37 42L38 42L38 41L39 41L39 40L41 40L41 41L42 41L42 40L44 40L44 41L43 41L43 42L44 42L44 41L45 41L45 40L44 40L44 39L43 39L43 38L44 38L44 37L43 37L43 36L42 36L42 35L43 35L43 33L44 33L44 32L45 32L45 31L44 31L44 30L43 30L43 33L42 33L42 32L41 32L41 30L42 30L42 28L43 28L43 26L42 26L42 28L41 28L41 27L40 27L40 23L42 23L42 24L41 24L41 25L43 25L43 24L44 24L44 23L45 23L45 22L44 22L44 20L43 20L43 21L42 21L42 20L41 20L41 18L43 18L43 16L42 16L42 15L40 15L40 14L41 14L41 13L40 13L40 12ZM3 13L3 14L2 14L2 15L3 15L3 14L4 14L4 13ZM17 13L17 14L16 14L16 15L17 15L17 14L18 14L18 13ZM39 13L39 14L40 14L40 13ZM47 13L47 14L48 14L48 13ZM29 14L29 15L30 15L30 16L33 16L33 14L32 14L32 15L30 15L30 14ZM25 17L25 18L26 18L26 17ZM37 17L37 18L36 18L36 20L37 20L37 18L38 18L38 17ZM7 18L7 19L6 19L6 20L7 20L7 19L8 19L8 18ZM9 18L9 19L10 19L10 20L11 20L11 18ZM51 18L51 19L50 19L50 21L51 21L51 19L52 19L52 18ZM19 19L19 20L20 20L20 22L22 22L22 23L24 23L24 22L22 22L22 21L21 21L21 20L20 20L20 19ZM52 20L52 22L53 22L53 20ZM31 21L31 23L29 23L29 25L30 25L30 26L29 26L29 28L30 28L30 29L29 29L29 31L27 31L27 32L26 32L26 33L28 33L28 34L30 34L30 32L29 32L29 31L32 31L32 30L31 30L31 29L32 29L32 28L33 28L33 31L34 31L34 32L35 32L35 31L36 31L36 30L37 30L37 32L38 32L38 33L37 33L37 34L36 34L36 35L37 35L37 36L38 36L38 37L41 37L41 40L42 40L42 38L43 38L43 37L41 37L41 34L42 34L42 33L40 33L40 31L39 31L39 32L38 32L38 30L39 30L39 27L37 27L37 26L38 26L38 24L37 24L37 25L36 25L36 23L35 23L35 24L34 24L34 26L33 26L33 24L31 24L31 23L33 23L33 22L32 22L32 21ZM41 21L41 22L42 22L42 21ZM43 22L43 23L44 23L44 22ZM3 23L3 24L2 24L2 25L3 25L3 24L4 24L4 23ZM20 23L20 24L21 24L21 23ZM22 24L22 25L21 25L21 26L20 26L20 25L19 25L19 26L20 26L20 27L19 27L19 28L18 28L18 29L19 29L19 28L21 28L21 26L22 26L22 25L23 25L23 24ZM30 24L30 25L31 25L31 24ZM49 24L49 26L50 26L50 24ZM5 25L5 28L8 28L8 25ZM25 25L25 28L28 28L28 25ZM35 25L35 26L36 26L36 25ZM45 25L45 28L48 28L48 25ZM6 26L6 27L7 27L7 26ZM26 26L26 27L27 27L27 26ZM31 26L31 27L30 27L30 28L31 28L31 27L33 27L33 26ZM46 26L46 27L47 27L47 26ZM35 27L35 29L34 29L34 31L35 31L35 29L36 29L36 27ZM37 28L37 30L38 30L38 28ZM40 28L40 29L41 29L41 28ZM27 29L27 30L28 30L28 29ZM6 30L6 31L7 31L7 32L8 32L8 33L9 33L9 32L8 32L8 31L7 31L7 30ZM21 30L21 31L20 31L20 33L21 33L21 31L22 31L22 30ZM0 32L0 33L1 33L1 35L0 35L0 36L1 36L1 35L2 35L2 33L1 33L1 32ZM14 32L14 33L15 33L15 34L16 34L16 33L15 33L15 32ZM28 32L28 33L29 33L29 32ZM39 33L39 34L40 34L40 33ZM8 34L8 35L9 35L9 34ZM18 34L18 35L17 35L17 37L18 37L18 36L19 36L19 38L20 38L20 35L19 35L19 34ZM11 35L11 36L12 36L12 35ZM38 35L38 36L39 36L39 35ZM35 36L35 37L36 37L36 36ZM22 37L22 38L23 38L23 37ZM12 38L12 39L13 39L13 38ZM32 38L32 39L33 39L33 38ZM39 38L39 39L40 39L40 38ZM27 39L27 40L28 40L28 39ZM10 41L10 42L11 42L11 41ZM19 41L19 42L18 42L18 43L17 43L17 44L18 44L18 43L19 43L19 42L20 42L20 41ZM46 41L46 42L45 42L45 43L46 43L46 42L47 42L47 41ZM41 42L41 43L42 43L42 42ZM48 42L48 43L49 43L49 42ZM10 44L10 45L11 45L11 44ZM31 44L31 45L32 45L32 44ZM25 45L25 48L28 48L28 45ZM45 45L45 48L48 48L48 45ZM20 46L20 47L21 47L21 46ZM26 46L26 47L27 47L27 46ZM46 46L46 47L47 47L47 46ZM39 47L39 49L38 49L38 50L37 50L37 51L39 51L39 49L40 49L40 47ZM49 48L49 50L52 50L52 49L50 49L50 48ZM9 49L9 50L10 50L10 49ZM12 49L12 50L13 50L13 49ZM41 49L41 50L40 50L40 52L37 52L37 53L40 53L40 52L41 52L41 50L42 50L42 51L44 51L44 50L42 50L42 49ZM13 52L13 53L14 53L14 52ZM35 52L35 53L36 53L36 52ZM44 52L44 53L45 53L45 52ZM0 0L0 7L7 7L7 0ZM1 1L1 6L6 6L6 1ZM2 2L2 5L5 5L5 2ZM46 0L46 7L53 7L53 0ZM47 1L47 6L52 6L52 1ZM48 2L48 5L51 5L51 2ZM0 46L0 53L7 53L7 46ZM1 47L1 52L6 52L6 47ZM2 48L2 51L5 51L5 48Z" fill="#000000"/></g></g></svg>
