<?xml version="1.0" encoding="UTF-8"?>
<svg xmlns="http://www.w3.org/2000/svg" version="1.1" width="150" height="150" viewBox="0 0 150 150"><rect x="0" y="0" width="150" height="150" fill="#ffffff"/><g transform="scale(2.632)"><g transform="translate(0,0)"><path fill-rule="evenodd" d="M10 0L10 2L8 2L8 3L11 3L11 1L12 1L12 0ZM15 0L15 1L13 1L13 2L16 2L16 3L17 3L17 4L16 4L16 5L17 5L17 6L16 6L16 7L15 7L15 6L14 6L14 7L13 7L13 6L12 6L12 5L13 5L13 4L14 4L14 5L15 5L15 4L14 4L14 3L13 3L13 4L10 4L10 5L9 5L9 6L8 6L8 8L4 8L4 9L8 9L8 12L6 12L6 13L4 13L4 12L5 12L5 11L7 11L7 10L2 10L2 9L3 9L3 8L0 8L0 9L1 9L1 11L0 11L0 15L1 15L1 17L0 17L0 18L1 18L1 17L2 17L2 14L3 14L3 18L2 18L2 19L0 19L0 20L1 20L1 21L2 21L2 22L4 22L4 24L3 24L3 23L0 23L0 24L1 24L1 28L0 28L0 30L1 30L1 29L2 29L2 31L1 31L1 33L0 33L0 34L2 34L2 37L1 37L1 38L0 38L0 42L2 42L2 43L1 43L1 44L3 44L3 46L2 46L2 45L0 45L0 48L5 48L5 47L7 47L7 48L6 48L6 49L7 49L7 48L8 48L8 53L11 53L11 54L12 54L12 55L14 55L14 56L11 56L11 55L10 55L10 54L8 54L8 57L9 57L9 55L10 55L10 56L11 56L11 57L15 57L15 54L12 54L12 53L13 53L13 51L16 51L16 54L17 54L17 55L16 55L16 56L17 56L17 57L19 57L19 56L20 56L20 55L21 55L21 56L22 56L22 57L23 57L23 56L22 56L22 55L23 55L23 52L24 52L24 54L28 54L28 55L24 55L24 57L25 57L25 56L26 56L26 57L27 57L27 56L28 56L28 57L29 57L29 56L28 56L28 55L29 55L29 53L30 53L30 54L32 54L32 55L30 55L30 57L32 57L32 55L34 55L34 56L36 56L36 57L37 57L37 56L38 56L38 57L39 57L39 56L40 56L40 57L41 57L41 56L44 56L44 57L47 57L47 56L50 56L50 55L51 55L51 56L52 56L52 57L53 57L53 56L52 56L52 55L53 55L53 52L54 52L54 51L57 51L57 49L55 49L55 50L54 50L54 49L53 49L53 48L54 48L54 47L53 47L53 46L56 46L56 47L55 47L55 48L57 48L57 44L56 44L56 43L57 43L57 40L56 40L56 38L57 38L57 37L56 37L56 36L57 36L57 32L56 32L56 31L57 31L57 25L55 25L55 26L54 26L54 25L53 25L53 22L52 22L52 21L53 21L53 20L54 20L54 19L55 19L55 18L56 18L56 19L57 19L57 16L56 16L56 15L57 15L57 12L56 12L56 13L55 13L55 14L54 14L54 13L53 13L53 12L54 12L54 11L53 11L53 10L55 10L55 11L57 11L57 9L55 9L55 8L54 8L54 9L53 9L53 10L52 10L52 9L51 9L51 8L49 8L49 10L48 10L48 9L47 9L47 5L48 5L48 0L46 0L46 1L45 1L45 2L46 2L46 3L47 3L47 5L46 5L46 4L44 4L44 5L43 5L43 4L41 4L41 3L40 3L40 4L41 4L41 5L40 5L40 7L39 7L39 3L37 3L37 4L36 4L36 3L35 3L35 4L34 4L34 7L33 7L33 5L31 5L31 4L32 4L32 3L31 3L31 4L30 4L30 3L29 3L29 4L28 4L28 3L27 3L27 2L28 2L28 1L29 1L29 2L30 2L30 1L31 1L31 2L33 2L33 3L34 3L34 2L35 2L35 1L37 1L37 2L39 2L39 1L40 1L40 2L41 2L41 1L42 1L42 2L44 2L44 0L41 0L41 1L40 1L40 0L33 0L33 1L31 1L31 0L30 0L30 1L29 1L29 0L28 0L28 1L27 1L27 0L26 0L26 3L27 3L27 4L26 4L26 5L25 5L25 4L24 4L24 5L25 5L25 6L24 6L24 7L23 7L23 6L22 6L22 5L20 5L20 3L21 3L21 4L22 4L22 3L23 3L23 2L24 2L24 3L25 3L25 2L24 2L24 1L25 1L25 0L22 0L22 1L21 1L21 0L20 0L20 1L18 1L18 0ZM20 1L20 2L17 2L17 3L18 3L18 4L17 4L17 5L18 5L18 6L17 6L17 7L16 7L16 8L15 8L15 7L14 7L14 8L15 8L15 10L14 10L14 11L16 11L16 12L14 12L14 14L15 14L15 15L13 15L13 11L12 11L12 10L13 10L13 9L9 9L9 10L10 10L10 11L12 11L12 12L11 12L11 13L10 13L10 12L8 12L8 13L6 13L6 14L5 14L5 15L4 15L4 16L7 16L7 15L8 15L8 13L10 13L10 16L11 16L11 15L13 15L13 17L12 17L12 18L11 18L11 19L10 19L10 17L6 17L6 18L9 18L9 19L6 19L6 20L5 20L5 17L4 17L4 18L3 18L3 20L2 20L2 21L3 21L3 20L5 20L5 21L4 21L4 22L5 22L5 25L4 25L4 26L5 26L5 25L6 25L6 26L7 26L7 25L10 25L10 26L9 26L9 29L11 29L11 31L13 31L13 33L11 33L11 34L10 34L10 33L9 33L9 32L7 32L7 31L6 31L6 32L7 32L7 33L3 33L3 35L4 35L4 36L3 36L3 37L5 37L5 36L7 36L7 37L6 37L6 38L5 38L5 39L4 39L4 38L2 38L2 39L3 39L3 41L4 41L4 42L3 42L3 44L4 44L4 46L3 46L3 47L5 47L5 46L8 46L8 47L9 47L9 48L10 48L10 49L9 49L9 50L10 50L10 51L9 51L9 52L10 52L10 51L13 51L13 50L14 50L14 49L15 49L15 50L16 50L16 51L18 51L18 52L17 52L17 54L18 54L18 52L19 52L19 51L18 51L18 50L17 50L17 48L18 48L18 46L21 46L21 47L22 47L22 48L23 48L23 49L24 49L24 50L23 50L23 51L24 51L24 52L25 52L25 53L26 53L26 52L25 52L25 51L26 51L26 50L25 50L25 49L26 49L26 48L27 48L27 47L28 47L28 48L30 48L30 46L29 46L29 45L30 45L30 44L29 44L29 43L30 43L30 42L31 42L31 43L32 43L32 42L33 42L33 41L32 41L32 40L33 40L33 39L32 39L32 38L33 38L33 37L34 37L34 40L35 40L35 41L34 41L34 42L35 42L35 43L34 43L34 44L33 44L33 45L32 45L32 44L31 44L31 45L32 45L32 46L33 46L33 45L34 45L34 47L33 47L33 48L37 48L37 49L36 49L36 50L35 50L35 49L31 49L31 50L34 50L34 52L33 52L33 53L34 53L34 55L38 55L38 56L39 56L39 55L40 55L40 56L41 56L41 55L43 55L43 54L44 54L44 55L46 55L46 56L47 56L47 55L48 55L48 54L47 54L47 53L48 53L48 52L47 52L47 51L48 51L48 50L47 50L47 49L48 49L48 48L49 48L49 47L50 47L50 46L51 46L51 47L52 47L52 48L53 48L53 47L52 47L52 46L53 46L53 45L56 45L56 44L55 44L55 43L54 43L54 42L56 42L56 40L55 40L55 39L53 39L53 40L51 40L51 41L50 41L50 38L53 38L53 37L55 37L55 35L54 35L54 34L55 34L55 33L56 33L56 32L55 32L55 31L56 31L56 30L53 30L53 31L52 31L52 32L51 32L51 33L50 33L50 32L49 32L49 31L48 31L48 30L47 30L47 29L48 29L48 28L47 28L47 27L48 27L48 26L49 26L49 25L50 25L50 26L51 26L51 25L52 25L52 26L53 26L53 27L54 27L54 28L53 28L53 29L55 29L55 27L54 27L54 26L53 26L53 25L52 25L52 24L51 24L51 23L52 23L52 22L51 22L51 21L52 21L52 20L51 20L51 17L50 17L50 18L49 18L49 16L51 16L51 15L52 15L52 14L53 14L53 15L54 15L54 16L53 16L53 17L52 17L52 18L53 18L53 19L54 19L54 18L55 18L55 17L56 17L56 16L55 16L55 15L56 15L56 14L55 14L55 15L54 15L54 14L53 14L53 13L52 13L52 12L51 12L51 11L52 11L52 10L51 10L51 9L50 9L50 10L49 10L49 11L48 11L48 10L47 10L47 9L46 9L46 8L45 8L45 9L44 9L44 6L45 6L45 7L46 7L46 6L45 6L45 5L44 5L44 6L43 6L43 7L42 7L42 5L41 5L41 7L42 7L42 8L41 8L41 9L40 9L40 8L39 8L39 7L38 7L38 6L37 6L37 5L38 5L38 4L37 4L37 5L36 5L36 4L35 4L35 5L36 5L36 6L35 6L35 7L34 7L34 8L35 8L35 7L36 7L36 9L38 9L38 10L36 10L36 11L39 11L39 13L36 13L36 12L35 12L35 13L34 13L34 15L32 15L32 14L33 14L33 13L32 13L32 10L33 10L33 9L32 9L32 8L33 8L33 7L32 7L32 6L31 6L31 9L30 9L30 11L29 11L29 13L28 13L28 12L27 12L27 11L28 11L28 10L29 10L29 9L28 9L28 10L27 10L27 9L26 9L26 10L25 10L25 7L26 7L26 6L25 6L25 7L24 7L24 8L23 8L23 7L22 7L22 6L21 6L21 7L22 7L22 8L20 8L20 6L19 6L19 3L20 3L20 2L21 2L21 3L22 3L22 2L23 2L23 1L22 1L22 2L21 2L21 1ZM46 1L46 2L47 2L47 1ZM10 5L10 6L9 6L9 7L10 7L10 6L11 6L11 7L12 7L12 8L13 8L13 7L12 7L12 6L11 6L11 5ZM27 5L27 8L30 8L30 5ZM18 6L18 7L17 7L17 8L18 8L18 9L17 9L17 10L16 10L16 11L17 11L17 10L18 10L18 11L19 11L19 12L18 12L18 13L19 13L19 14L20 14L20 15L17 15L17 14L16 14L16 13L17 13L17 12L16 12L16 13L15 13L15 14L16 14L16 15L15 15L15 16L14 16L14 17L13 17L13 18L14 18L14 19L16 19L16 22L17 22L17 20L18 20L18 23L16 23L16 24L18 24L18 25L17 25L17 27L16 27L16 28L17 28L17 30L16 30L16 29L14 29L14 30L13 30L13 31L14 31L14 30L16 30L16 31L15 31L15 32L16 32L16 31L17 31L17 34L16 34L16 36L15 36L15 33L14 33L14 36L15 36L15 38L13 38L13 37L12 37L12 36L11 36L11 37L9 37L9 35L10 35L10 34L8 34L8 33L7 33L7 34L6 34L6 35L7 35L7 36L8 36L8 37L9 37L9 38L10 38L10 39L9 39L9 40L10 40L10 39L11 39L11 38L13 38L13 40L12 40L12 41L13 41L13 43L12 43L12 44L11 44L11 43L9 43L9 42L10 42L10 41L9 41L9 42L8 42L8 39L7 39L7 38L6 38L6 39L7 39L7 40L6 40L6 41L7 41L7 42L6 42L6 43L4 43L4 44L5 44L5 45L7 45L7 44L8 44L8 45L9 45L9 44L11 44L11 45L12 45L12 46L10 46L10 47L13 47L13 48L14 48L14 47L15 47L15 48L16 48L16 47L17 47L17 46L16 46L16 44L17 44L17 42L18 42L18 43L19 43L19 44L18 44L18 45L20 45L20 43L21 43L21 46L22 46L22 47L23 47L23 48L24 48L24 47L25 47L25 48L26 48L26 47L27 47L27 46L28 46L28 47L29 47L29 46L28 46L28 45L27 45L27 43L28 43L28 39L29 39L29 40L30 40L30 41L29 41L29 42L30 42L30 41L31 41L31 38L32 38L32 37L33 37L33 36L34 36L34 37L35 37L35 38L36 38L36 39L35 39L35 40L36 40L36 41L35 41L35 42L36 42L36 45L37 45L37 48L39 48L39 49L41 49L41 47L40 47L40 46L41 46L41 43L39 43L39 44L38 44L38 43L37 43L37 42L38 42L38 41L39 41L39 42L42 42L42 44L43 44L43 46L44 46L44 47L42 47L42 48L43 48L43 50L44 50L44 51L41 51L41 50L40 50L40 51L39 51L39 53L40 53L40 55L41 55L41 53L44 53L44 54L46 54L46 53L47 53L47 52L45 52L45 50L46 50L46 49L47 49L47 48L46 48L46 47L45 47L45 46L44 46L44 45L45 45L45 44L47 44L47 43L46 43L46 41L47 41L47 42L48 42L48 43L49 43L49 44L48 44L48 45L47 45L47 46L48 46L48 47L49 47L49 46L50 46L50 45L51 45L51 46L52 46L52 45L51 45L51 44L52 44L52 43L53 43L53 44L54 44L54 43L53 43L53 42L54 42L54 41L53 41L53 42L52 42L52 41L51 41L51 42L50 42L50 41L49 41L49 40L48 40L48 41L47 41L47 40L46 40L46 39L44 39L44 38L45 38L45 34L46 34L46 33L47 33L47 34L48 34L48 33L49 33L49 34L50 34L50 35L49 35L49 36L48 36L48 37L47 37L47 36L46 36L46 37L47 37L47 38L48 38L48 39L49 39L49 38L50 38L50 37L52 37L52 35L53 35L53 36L54 36L54 35L53 35L53 34L54 34L54 33L55 33L55 32L54 32L54 31L53 31L53 32L54 32L54 33L53 33L53 34L52 34L52 33L51 33L51 34L50 34L50 33L49 33L49 32L48 32L48 33L47 33L47 32L46 32L46 31L47 31L47 30L43 30L43 31L40 31L40 30L41 30L41 29L42 29L42 28L43 28L43 29L45 29L45 28L46 28L46 29L47 29L47 28L46 28L46 25L47 25L47 26L48 26L48 25L47 25L47 24L48 24L48 23L49 23L49 24L50 24L50 25L51 25L51 24L50 24L50 23L49 23L49 22L50 22L50 21L51 21L51 20L50 20L50 19L49 19L49 18L48 18L48 15L49 15L49 14L50 14L50 13L51 13L51 14L52 14L52 13L51 13L51 12L50 12L50 11L49 11L49 12L50 12L50 13L49 13L49 14L48 14L48 13L47 13L47 12L48 12L48 11L47 11L47 12L46 12L46 11L45 11L45 10L46 10L46 9L45 9L45 10L44 10L44 9L43 9L43 10L44 10L44 11L43 11L43 13L45 13L45 14L46 14L46 13L47 13L47 14L48 14L48 15L47 15L47 16L46 16L46 15L44 15L44 14L43 14L43 15L44 15L44 16L42 16L42 17L45 17L45 18L43 18L43 20L44 20L44 21L47 21L47 20L48 20L48 21L49 21L49 22L48 22L48 23L46 23L46 22L43 22L43 23L44 23L44 25L43 25L43 24L42 24L42 25L41 25L41 23L42 23L42 22L41 22L41 21L42 21L42 19L39 19L39 20L38 20L38 19L37 19L37 18L38 18L38 17L37 17L37 14L36 14L36 16L35 16L35 15L34 15L34 16L32 16L32 15L31 15L31 13L30 13L30 15L29 15L29 14L28 14L28 13L27 13L27 14L26 14L26 13L25 13L25 14L24 14L24 13L23 13L23 14L22 14L22 12L24 12L24 11L25 11L25 12L26 12L26 11L27 11L27 10L26 10L26 11L25 11L25 10L24 10L24 9L23 9L23 8L22 8L22 9L21 9L21 10L20 10L20 9L19 9L19 8L18 8L18 7L19 7L19 6ZM28 6L28 7L29 7L29 6ZM36 6L36 7L37 7L37 8L38 8L38 9L39 9L39 10L40 10L40 13L39 13L39 14L40 14L40 15L38 15L38 16L39 16L39 17L41 17L41 14L40 14L40 13L42 13L42 9L41 9L41 10L40 10L40 9L39 9L39 8L38 8L38 7L37 7L37 6ZM48 6L48 7L49 7L49 6ZM34 9L34 10L35 10L35 9ZM19 10L19 11L20 11L20 14L21 14L21 11L20 11L20 10ZM22 10L22 11L24 11L24 10ZM30 11L30 12L31 12L31 11ZM33 11L33 12L34 12L34 11ZM1 12L1 13L2 13L2 12ZM45 12L45 13L46 13L46 12ZM11 13L11 14L12 14L12 13ZM6 14L6 15L7 15L7 14ZM23 14L23 15L22 15L22 16L23 16L23 17L24 17L24 18L23 18L23 19L22 19L22 18L21 18L21 15L20 15L20 16L19 16L19 17L20 17L20 18L19 18L19 19L18 19L18 18L17 18L17 17L18 17L18 16L17 16L17 15L16 15L16 16L15 16L15 18L16 18L16 19L18 19L18 20L21 20L21 19L22 19L22 20L23 20L23 21L20 21L20 22L21 22L21 23L20 23L20 24L19 24L19 23L18 23L18 24L19 24L19 25L20 25L20 26L18 26L18 27L20 27L20 28L18 28L18 30L17 30L17 31L18 31L18 32L19 32L19 31L20 31L20 30L23 30L23 31L21 31L21 32L20 32L20 33L18 33L18 34L17 34L17 37L16 37L16 38L17 38L17 39L16 39L16 40L14 40L14 42L17 42L17 39L18 39L18 40L19 40L19 41L18 41L18 42L19 42L19 43L20 43L20 42L21 42L21 41L22 41L22 40L23 40L23 41L24 41L24 42L22 42L22 43L26 43L26 42L25 42L25 41L26 41L26 40L27 40L27 39L26 39L26 38L27 38L27 37L26 37L26 36L27 36L27 35L28 35L28 36L29 36L29 37L28 37L28 38L29 38L29 39L30 39L30 38L31 38L31 37L32 37L32 36L33 36L33 35L34 35L34 36L35 36L35 37L36 37L36 38L37 38L37 37L36 37L36 35L37 35L37 33L38 33L38 36L40 36L40 35L39 35L39 33L38 33L38 32L39 32L39 29L40 29L40 28L39 28L39 27L40 27L40 26L41 26L41 28L42 28L42 27L44 27L44 26L43 26L43 25L42 25L42 26L41 26L41 25L40 25L40 24L39 24L39 23L40 23L40 22L39 22L39 21L38 21L38 20L37 20L37 21L36 21L36 20L35 20L35 18L37 18L37 17L32 17L32 16L31 16L31 15L30 15L30 16L29 16L29 15L28 15L28 14L27 14L27 15L26 15L26 14L25 14L25 15L24 15L24 14ZM23 15L23 16L24 16L24 15ZM25 15L25 16L26 16L26 15ZM27 15L27 19L28 19L28 21L26 21L26 22L30 22L30 21L29 21L29 20L32 20L32 21L31 21L31 22L33 22L33 23L34 23L34 24L36 24L36 25L34 25L34 28L35 28L35 26L36 26L36 29L35 29L35 30L36 30L36 31L35 31L35 33L37 33L37 32L38 32L38 31L37 31L37 30L38 30L38 29L39 29L39 28L37 28L37 26L38 26L38 25L39 25L39 26L40 26L40 25L39 25L39 24L38 24L38 21L37 21L37 22L36 22L36 23L34 23L34 21L33 21L33 20L34 20L34 19L33 19L33 18L32 18L32 17L31 17L31 16L30 16L30 17L28 17L28 15ZM45 16L45 17L46 17L46 18L45 18L45 19L46 19L46 20L47 20L47 17L46 17L46 16ZM54 16L54 17L53 17L53 18L54 18L54 17L55 17L55 16ZM25 17L25 18L24 18L24 19L23 19L23 20L24 20L24 22L25 22L25 20L26 20L26 17ZM30 17L30 18L28 18L28 19L32 19L32 20L33 20L33 19L32 19L32 18L31 18L31 17ZM20 18L20 19L21 19L21 18ZM12 19L12 20L13 20L13 19ZM24 19L24 20L25 20L25 19ZM48 19L48 20L49 20L49 21L50 21L50 20L49 20L49 19ZM6 20L6 21L7 21L7 20ZM9 20L9 21L10 21L10 22L12 22L12 21L10 21L10 20ZM14 20L14 21L15 21L15 20ZM55 20L55 21L54 21L54 23L55 23L55 22L56 22L56 24L57 24L57 22L56 22L56 21L57 21L57 20ZM6 22L6 23L7 23L7 24L6 24L6 25L7 25L7 24L9 24L9 22L8 22L8 23L7 23L7 22ZM13 22L13 23L15 23L15 22ZM22 22L22 23L21 23L21 24L22 24L22 25L21 25L21 26L20 26L20 27L21 27L21 26L22 26L22 27L23 27L23 28L22 28L22 29L23 29L23 30L24 30L24 31L23 31L23 32L21 32L21 33L22 33L22 35L21 35L21 36L20 36L20 35L19 35L19 34L18 34L18 35L19 35L19 36L18 36L18 39L19 39L19 36L20 36L20 38L21 38L21 37L22 37L22 39L20 39L20 40L22 40L22 39L23 39L23 40L24 40L24 39L25 39L25 40L26 40L26 39L25 39L25 38L26 38L26 37L25 37L25 36L26 36L26 35L27 35L27 34L28 34L28 35L29 35L29 34L28 34L28 33L27 33L27 32L28 32L28 31L30 31L30 33L31 33L31 34L30 34L30 35L31 35L31 36L30 36L30 37L29 37L29 38L30 38L30 37L31 37L31 36L32 36L32 33L33 33L33 32L34 32L34 31L33 31L33 30L34 30L34 29L33 29L33 27L32 27L32 26L33 26L33 25L32 25L32 23L26 23L26 25L25 25L25 26L24 26L24 25L23 25L23 24L22 24L22 23L23 23L23 22ZM10 23L10 25L11 25L11 26L10 26L10 28L11 28L11 29L13 29L13 28L15 28L15 26L16 26L16 25L15 25L15 26L13 26L13 24L11 24L11 23ZM24 23L24 24L25 24L25 23ZM36 23L36 24L37 24L37 25L36 25L36 26L37 26L37 25L38 25L38 24L37 24L37 23ZM45 23L45 24L46 24L46 23ZM27 24L27 25L26 25L26 26L25 26L25 27L24 27L24 26L23 26L23 27L24 27L24 28L23 28L23 29L24 29L24 30L25 30L25 29L26 29L26 28L25 28L25 27L26 27L26 26L27 26L27 25L28 25L28 26L29 26L29 25L30 25L30 26L31 26L31 24L29 24L29 25L28 25L28 24ZM11 26L11 28L13 28L13 27L12 27L12 26ZM3 27L3 28L4 28L4 27ZM5 27L5 30L8 30L8 27ZM27 27L27 30L30 30L30 27ZM31 27L31 29L32 29L32 30L31 30L31 31L32 31L32 30L33 30L33 29L32 29L32 27ZM49 27L49 30L52 30L52 27ZM6 28L6 29L7 29L7 28ZM28 28L28 29L29 29L29 28ZM50 28L50 29L51 29L51 28ZM3 29L3 30L4 30L4 29ZM19 29L19 30L18 30L18 31L19 31L19 30L20 30L20 29ZM36 29L36 30L37 30L37 29ZM9 30L9 31L10 31L10 30ZM24 31L24 32L23 32L23 33L24 33L24 34L23 34L23 35L22 35L22 36L23 36L23 35L24 35L24 36L25 36L25 35L24 35L24 34L25 34L25 33L26 33L26 34L27 34L27 33L26 33L26 32L27 32L27 31L26 31L26 32L25 32L25 31ZM31 32L31 33L32 33L32 32ZM45 32L45 33L44 33L44 34L45 34L45 33L46 33L46 32ZM40 33L40 34L41 34L41 35L42 35L42 37L38 37L38 40L37 40L37 41L36 41L36 42L37 42L37 41L38 41L38 40L39 40L39 41L40 41L40 40L39 40L39 38L41 38L41 39L42 39L42 40L41 40L41 41L42 41L42 42L44 42L44 43L45 43L45 41L46 41L46 40L45 40L45 41L44 41L44 39L43 39L43 33ZM4 34L4 35L5 35L5 34ZM11 34L11 35L13 35L13 34ZM51 34L51 35L52 35L52 34ZM0 35L0 36L1 36L1 35ZM49 36L49 37L48 37L48 38L49 38L49 37L50 37L50 36ZM24 37L24 38L25 38L25 37ZM4 40L4 41L5 41L5 40ZM42 40L42 41L43 41L43 40ZM19 41L19 42L20 42L20 41ZM48 41L48 42L49 42L49 43L50 43L50 42L49 42L49 41ZM51 42L51 43L52 43L52 42ZM6 43L6 44L7 44L7 43ZM8 43L8 44L9 44L9 43ZM22 44L22 46L23 46L23 47L24 47L24 46L25 46L25 45L26 45L26 46L27 46L27 45L26 45L26 44ZM34 44L34 45L35 45L35 44ZM37 44L37 45L38 45L38 47L39 47L39 48L40 48L40 47L39 47L39 46L40 46L40 45L38 45L38 44ZM49 44L49 45L48 45L48 46L49 46L49 45L50 45L50 44ZM23 45L23 46L24 46L24 45ZM1 46L1 47L2 47L2 46ZM13 46L13 47L14 47L14 46ZM15 46L15 47L16 47L16 46ZM35 46L35 47L36 47L36 46ZM44 47L44 48L45 48L45 49L44 49L44 50L45 50L45 49L46 49L46 48L45 48L45 47ZM20 48L20 49L19 49L19 50L21 50L21 51L20 51L20 52L21 52L21 51L22 51L22 50L21 50L21 48ZM10 49L10 50L12 50L12 49ZM27 49L27 52L30 52L30 49ZM37 49L37 50L36 50L36 51L35 51L35 52L36 52L36 53L35 53L35 54L38 54L38 51L37 51L37 50L38 50L38 49ZM49 49L49 52L52 52L52 49ZM24 50L24 51L25 51L25 50ZM28 50L28 51L29 51L29 50ZM50 50L50 51L51 51L51 50ZM53 50L53 51L54 51L54 50ZM31 52L31 53L32 53L32 52ZM56 52L56 53L55 53L55 54L54 54L54 55L55 55L55 57L57 57L57 56L56 56L56 55L57 55L57 54L56 54L56 53L57 53L57 52ZM20 53L20 54L21 54L21 55L22 55L22 54L21 54L21 53ZM50 53L50 54L49 54L49 55L50 55L50 54L51 54L51 55L52 55L52 54L51 54L51 53ZM55 54L55 55L56 55L56 54ZM0 0L0 7L7 7L7 0ZM1 1L1 6L6 6L6 1ZM2 2L2 5L5 5L5 2ZM50 0L50 7L57 7L57 0ZM51 1L51 6L56 6L56 1ZM52 2L52 5L55 5L55 2ZM0 50L0 57L7 57L7 50ZM1 51L1 56L6 56L6 51ZM2 52L2 55L5 55L5 52Z" fill="#000000"/></g></g></svg>
