<?xml version="1.0" encoding="UTF-8"?>
<svg xmlns="http://www.w3.org/2000/svg" version="1.1" width="150" height="150" viewBox="0 0 150 150"><rect x="0" y="0" width="150" height="150" fill="#ffffff"/><g transform="scale(2.83)"><g transform="translate(0,0)"><path fill-rule="evenodd" d="M12 0L12 1L9 1L9 2L8 2L8 3L9 3L9 2L11 2L11 3L12 3L12 4L14 4L14 3L15 3L15 0ZM16 0L16 1L17 1L17 2L16 2L16 4L15 4L15 5L14 5L14 7L13 7L13 5L11 5L11 6L10 6L10 4L9 4L9 6L8 6L8 8L4 8L4 10L3 10L3 8L0 8L0 9L2 9L2 10L3 10L3 12L2 12L2 13L1 13L1 12L0 12L0 15L1 15L1 16L0 16L0 18L3 18L3 21L1 21L1 20L0 20L0 22L2 22L2 23L5 23L5 24L4 24L4 26L3 26L3 24L0 24L0 25L2 25L2 26L0 26L0 27L3 27L3 28L4 28L4 30L1 30L1 29L2 29L2 28L1 28L1 29L0 29L0 30L1 30L1 32L0 32L0 35L1 35L1 36L0 36L0 37L1 37L1 38L0 38L0 40L1 40L1 42L0 42L0 43L1 43L1 44L3 44L3 45L4 45L4 44L3 44L3 43L7 43L7 44L6 44L6 45L8 45L8 49L9 49L9 47L10 47L10 49L11 49L11 50L10 50L10 51L11 51L11 52L9 52L9 50L8 50L8 53L11 53L11 52L13 52L13 53L14 53L14 51L13 51L13 48L12 48L12 49L11 49L11 47L15 47L15 48L14 48L14 50L15 50L15 52L16 52L16 51L17 51L17 52L18 52L18 53L20 53L20 51L21 51L21 52L22 52L22 53L29 53L29 50L30 50L30 49L31 49L31 50L32 50L32 51L31 51L31 52L30 52L30 53L31 53L31 52L32 52L32 53L33 53L33 52L34 52L34 53L35 53L35 52L36 52L36 53L37 53L37 52L38 52L38 53L39 53L39 52L38 52L38 51L37 51L37 50L38 50L38 49L39 49L39 50L40 50L40 53L41 53L41 52L42 52L42 53L45 53L45 52L44 52L44 51L45 51L45 50L46 50L46 51L47 51L47 52L48 52L48 53L49 53L49 52L50 52L50 51L51 51L51 53L53 53L53 52L52 52L52 50L50 50L50 49L49 49L49 48L50 48L50 47L51 47L51 48L52 48L52 49L53 49L53 48L52 48L52 47L53 47L53 42L52 42L52 41L53 41L53 40L52 40L52 39L53 39L53 37L51 37L51 38L50 38L50 37L49 37L49 38L48 38L48 37L47 37L47 36L48 36L48 35L49 35L49 36L50 36L50 35L51 35L51 36L53 36L53 32L52 32L52 31L53 31L53 30L52 30L52 29L53 29L53 28L52 28L52 27L53 27L53 25L51 25L51 26L50 26L50 25L49 25L49 24L50 24L50 23L51 23L51 24L53 24L53 22L52 22L52 21L53 21L53 20L52 20L52 19L53 19L53 17L51 17L51 18L50 18L50 17L49 17L49 16L50 16L50 15L51 15L51 16L53 16L53 12L52 12L52 11L53 11L53 9L51 9L51 8L50 8L50 9L47 9L47 8L45 8L45 6L44 6L44 7L43 7L43 3L44 3L44 4L45 4L45 3L44 3L44 1L43 1L43 0L42 0L42 2L43 2L43 3L42 3L42 4L40 4L40 1L41 1L41 0L38 0L38 1L37 1L37 0L36 0L36 1L35 1L35 0L34 0L34 1L33 1L33 0L32 0L32 1L31 1L31 0L30 0L30 1L29 1L29 2L28 2L28 1L25 1L25 0L24 0L24 1L23 1L23 2L22 2L22 3L23 3L23 2L24 2L24 4L23 4L23 6L22 6L22 7L21 7L21 6L20 6L20 5L21 5L21 3L20 3L20 2L21 2L21 1L22 1L22 0L21 0L21 1L20 1L20 0L18 0L18 1L17 1L17 0ZM12 1L12 3L14 3L14 2L13 2L13 1ZM18 1L18 2L17 2L17 3L18 3L18 4L17 4L17 5L15 5L15 7L16 7L16 6L17 6L17 10L16 10L16 8L14 8L14 10L11 10L11 9L12 9L12 8L10 8L10 10L9 10L9 9L8 9L8 13L3 13L3 14L1 14L1 15L2 15L2 16L1 16L1 17L2 17L2 16L3 16L3 17L4 17L4 16L5 16L5 15L6 15L6 16L7 16L7 17L6 17L6 18L8 18L8 19L9 19L9 20L7 20L7 19L6 19L6 20L7 20L7 21L5 21L5 23L6 23L6 24L9 24L9 26L10 26L10 27L9 27L9 28L10 28L10 29L9 29L9 32L8 32L8 31L6 31L6 32L7 32L7 33L6 33L6 34L5 34L5 30L7 30L7 29L5 29L5 30L4 30L4 31L3 31L3 32L1 32L1 34L2 34L2 35L3 35L3 36L1 36L1 37L6 37L6 38L8 38L8 40L7 40L7 39L6 39L6 40L7 40L7 41L4 41L4 42L7 42L7 41L8 41L8 43L9 43L9 44L10 44L10 45L9 45L9 46L10 46L10 47L11 47L11 46L10 46L10 45L12 45L12 46L13 46L13 45L14 45L14 44L15 44L15 45L16 45L16 46L15 46L15 47L16 47L16 48L17 48L17 47L16 47L16 46L17 46L17 45L18 45L18 44L19 44L19 45L20 45L20 47L19 47L19 46L18 46L18 47L19 47L19 48L18 48L18 50L17 50L17 49L16 49L16 50L17 50L17 51L18 51L18 52L19 52L19 51L20 51L20 50L21 50L21 51L22 51L22 52L24 52L24 50L25 50L25 49L24 49L24 48L23 48L23 47L22 47L22 46L21 46L21 45L22 45L22 44L21 44L21 43L23 43L23 46L24 46L24 44L27 44L27 43L28 43L28 44L29 44L29 43L31 43L31 41L32 41L32 42L33 42L33 43L32 43L32 44L33 44L33 45L32 45L32 46L31 46L31 45L29 45L29 47L30 47L30 48L29 48L29 49L28 49L28 50L27 50L27 49L26 49L26 51L25 51L25 52L27 52L27 51L28 51L28 50L29 50L29 49L30 49L30 48L32 48L32 46L33 46L33 47L34 47L34 48L35 48L35 49L33 49L33 50L34 50L34 52L35 52L35 51L36 51L36 52L37 52L37 51L36 51L36 50L37 50L37 49L38 49L38 48L39 48L39 49L40 49L40 50L41 50L41 51L42 51L42 52L43 52L43 49L44 49L44 48L41 48L41 49L40 49L40 47L43 47L43 46L44 46L44 42L43 42L43 41L45 41L45 42L47 42L47 43L48 43L48 44L49 44L49 45L50 45L50 46L49 46L49 47L50 47L50 46L51 46L51 47L52 47L52 42L51 42L51 41L52 41L52 40L51 40L51 39L52 39L52 38L51 38L51 39L50 39L50 38L49 38L49 39L48 39L48 38L47 38L47 37L45 37L45 36L44 36L44 34L45 34L45 33L44 33L44 31L43 31L43 30L44 30L44 28L43 28L43 29L40 29L40 27L43 27L43 26L44 26L44 24L46 24L46 22L47 22L47 23L48 23L48 22L49 22L49 23L50 23L50 22L51 22L51 23L52 23L52 22L51 22L51 21L52 21L52 20L51 20L51 19L52 19L52 18L51 18L51 19L50 19L50 18L49 18L49 17L48 17L48 18L47 18L47 16L49 16L49 15L50 15L50 14L51 14L51 15L52 15L52 14L51 14L51 13L52 13L52 12L51 12L51 11L52 11L52 10L51 10L51 9L50 9L50 10L47 10L47 9L45 9L45 8L44 8L44 9L43 9L43 7L42 7L42 5L40 5L40 4L39 4L39 3L38 3L38 2L37 2L37 1L36 1L36 2L35 2L35 3L34 3L34 2L33 2L33 1L32 1L32 2L31 2L31 1L30 1L30 2L31 2L31 3L28 3L28 2L27 2L27 3L28 3L28 4L29 4L29 5L30 5L30 4L31 4L31 7L32 7L32 6L33 6L33 7L34 7L34 8L33 8L33 9L34 9L34 10L33 10L33 11L34 11L34 12L33 12L33 13L32 13L32 14L31 14L31 13L30 13L30 12L31 12L31 11L32 11L32 8L29 8L29 9L30 9L30 10L29 10L29 11L28 11L28 9L26 9L26 10L25 10L25 9L24 9L24 6L23 6L23 7L22 7L22 8L21 8L21 7L20 7L20 6L19 6L19 5L20 5L20 4L19 4L19 3L18 3L18 2L19 2L19 1ZM25 2L25 3L26 3L26 2ZM33 3L33 4L32 4L32 5L33 5L33 6L34 6L34 7L35 7L35 8L34 8L34 9L35 9L35 10L36 10L36 11L35 11L35 12L34 12L34 13L33 13L33 14L32 14L32 17L31 17L31 18L32 18L32 19L31 19L31 20L32 20L32 21L31 21L31 24L30 24L30 23L29 23L29 20L27 20L27 22L26 22L26 21L25 21L25 24L23 24L23 23L19 23L19 22L20 22L20 21L19 21L19 20L20 20L20 19L22 19L22 20L21 20L21 22L24 22L24 21L23 21L23 20L24 20L24 18L26 18L26 19L25 19L25 20L26 20L26 19L27 19L27 18L28 18L28 19L29 19L29 18L30 18L30 17L29 17L29 16L31 16L31 15L30 15L30 14L29 14L29 12L30 12L30 11L31 11L31 10L30 10L30 11L29 11L29 12L28 12L28 11L27 11L27 10L26 10L26 11L25 11L25 12L24 12L24 9L23 9L23 8L22 8L22 9L21 9L21 8L20 8L20 7L19 7L19 6L18 6L18 5L17 5L17 6L18 6L18 7L19 7L19 8L18 8L18 9L19 9L19 10L18 10L18 11L16 11L16 12L18 12L18 13L17 13L17 16L16 16L16 15L15 15L15 12L14 12L14 11L15 11L15 10L14 10L14 11L12 11L12 12L11 12L11 10L10 10L10 11L9 11L9 13L8 13L8 14L6 14L6 15L7 15L7 16L8 16L8 14L9 14L9 15L11 15L11 14L12 14L12 17L13 17L13 13L12 13L12 12L14 12L14 15L15 15L15 16L14 16L14 17L15 17L15 19L13 19L13 18L12 18L12 19L10 19L10 20L9 20L9 22L8 22L8 23L9 23L9 24L10 24L10 26L11 26L11 24L12 24L12 25L13 25L13 26L14 26L14 27L13 27L13 28L12 28L12 29L13 29L13 28L14 28L14 31L15 31L15 32L14 32L14 33L15 33L15 34L13 34L13 35L12 35L12 34L11 34L11 33L12 33L12 32L11 32L11 30L10 30L10 32L9 32L9 33L10 33L10 34L9 34L9 35L8 35L8 33L7 33L7 34L6 34L6 35L8 35L8 36L6 36L6 37L8 37L8 38L9 38L9 43L10 43L10 44L11 44L11 43L10 43L10 41L12 41L12 42L13 42L13 44L14 44L14 43L15 43L15 42L14 42L14 40L16 40L16 42L17 42L17 40L16 40L16 39L17 39L17 38L18 38L18 39L19 39L19 40L18 40L18 41L19 41L19 42L18 42L18 43L16 43L16 44L18 44L18 43L19 43L19 44L20 44L20 43L21 43L21 42L23 42L23 40L24 40L24 39L23 39L23 36L24 36L24 37L25 37L25 41L24 41L24 42L25 42L25 43L26 43L26 42L30 42L30 41L31 41L31 40L32 40L32 41L33 41L33 40L34 40L34 41L35 41L35 42L36 42L36 43L35 43L35 44L34 44L34 43L33 43L33 44L34 44L34 45L33 45L33 46L34 46L34 45L35 45L35 46L38 46L38 45L39 45L39 46L42 46L42 45L41 45L41 43L42 43L42 44L43 44L43 43L42 43L42 41L43 41L43 40L42 40L42 39L41 39L41 38L40 38L40 37L42 37L42 36L43 36L43 35L42 35L42 36L41 36L41 34L42 34L42 33L43 33L43 34L44 34L44 33L43 33L43 32L41 32L41 30L40 30L40 31L39 31L39 32L38 32L38 29L39 29L39 28L38 28L38 27L37 27L37 26L38 26L38 25L37 25L37 24L39 24L39 23L38 23L38 21L37 21L37 20L38 20L38 19L39 19L39 20L40 20L40 21L42 21L42 19L40 19L40 18L41 18L41 15L42 15L42 16L43 16L43 15L44 15L44 16L45 16L45 17L46 17L46 16L47 16L47 15L46 15L46 16L45 16L45 14L46 14L46 13L47 13L47 14L48 14L48 15L49 15L49 14L50 14L50 13L49 13L49 12L50 12L50 11L51 11L51 10L50 10L50 11L47 11L47 12L46 12L46 11L45 11L45 10L43 10L43 11L45 11L45 12L46 12L46 13L45 13L45 14L43 14L43 15L42 15L42 14L41 14L41 15L40 15L40 14L39 14L39 15L38 15L38 13L39 13L39 10L40 10L40 13L42 13L42 11L41 11L41 10L40 10L40 9L41 9L41 8L42 8L42 7L41 7L41 6L40 6L40 5L39 5L39 4L38 4L38 5L37 5L37 4L36 4L36 3L35 3L35 4L34 4L34 3ZM33 4L33 5L34 5L34 4ZM35 4L35 5L36 5L36 6L35 6L35 7L36 7L36 6L37 6L37 7L38 7L38 8L37 8L37 9L36 9L36 8L35 8L35 9L36 9L36 10L37 10L37 12L38 12L38 10L39 10L39 9L40 9L40 6L39 6L39 7L38 7L38 6L37 6L37 5L36 5L36 4ZM25 5L25 8L28 8L28 5ZM9 6L9 7L10 7L10 6ZM11 6L11 7L12 7L12 6ZM26 6L26 7L27 7L27 6ZM29 6L29 7L30 7L30 6ZM19 8L19 9L20 9L20 10L19 10L19 11L18 11L18 12L19 12L19 13L20 13L20 14L18 14L18 15L20 15L20 16L18 16L18 18L17 18L17 17L16 17L16 18L17 18L17 19L16 19L16 21L15 21L15 22L14 22L14 23L16 23L16 24L14 24L14 26L15 26L15 27L14 27L14 28L16 28L16 27L18 27L18 28L17 28L17 29L15 29L15 31L16 31L16 32L17 32L17 31L16 31L16 30L17 30L17 29L18 29L18 28L19 28L19 29L20 29L20 30L18 30L18 31L26 31L26 32L27 32L27 33L26 33L26 34L27 34L27 35L28 35L28 36L27 36L27 37L28 37L28 39L26 39L26 40L29 40L29 41L30 41L30 40L31 40L31 37L30 37L30 35L32 35L32 34L34 34L34 36L33 36L33 37L34 37L34 38L33 38L33 39L34 39L34 40L35 40L35 41L36 41L36 42L37 42L37 43L36 43L36 44L35 44L35 45L36 45L36 44L37 44L37 45L38 45L38 44L39 44L39 45L40 45L40 44L39 44L39 43L40 43L40 42L41 42L41 41L42 41L42 40L41 40L41 41L40 41L40 40L39 40L39 39L40 39L40 38L39 38L39 37L40 37L40 34L41 34L41 33L40 33L40 32L39 32L39 33L38 33L38 32L37 32L37 33L36 33L36 32L35 32L35 31L36 31L36 30L37 30L37 29L38 29L38 28L37 28L37 29L36 29L36 28L35 28L35 27L36 27L36 26L37 26L37 25L36 25L36 24L35 24L35 23L36 23L36 22L37 22L37 21L36 21L36 20L35 20L35 19L36 19L36 18L37 18L37 19L38 19L38 18L39 18L39 17L40 17L40 16L37 16L37 17L36 17L36 16L35 16L35 15L36 15L36 14L37 14L37 13L36 13L36 12L35 12L35 13L34 13L34 14L33 14L33 15L34 15L34 16L33 16L33 17L32 17L32 18L33 18L33 19L34 19L34 20L33 20L33 21L34 21L34 22L32 22L32 23L33 23L33 26L31 26L31 25L32 25L32 24L31 24L31 25L30 25L30 24L29 24L29 23L28 23L28 22L27 22L27 23L26 23L26 24L27 24L27 23L28 23L28 24L29 24L29 25L30 25L30 26L29 26L29 27L30 27L30 28L31 28L31 27L34 27L34 28L33 28L33 29L28 29L28 30L27 30L27 31L26 31L26 29L23 29L23 30L21 30L21 29L22 29L22 28L21 28L21 27L20 27L20 26L21 26L21 25L22 25L22 27L23 27L23 28L24 28L24 26L23 26L23 25L22 25L22 24L19 24L19 23L18 23L18 22L17 22L17 21L18 21L18 20L19 20L19 19L20 19L20 18L21 18L21 17L22 17L22 19L23 19L23 18L24 18L24 17L25 17L25 15L26 15L26 18L27 18L27 17L28 17L28 16L29 16L29 15L28 15L28 14L27 14L27 13L28 13L28 12L27 12L27 11L26 11L26 12L25 12L25 13L24 13L24 12L23 12L23 10L21 10L21 9L20 9L20 8ZM38 8L38 9L37 9L37 10L38 10L38 9L39 9L39 8ZM6 9L6 10L5 10L5 11L4 11L4 12L7 12L7 11L6 11L6 10L7 10L7 9ZM20 10L20 11L19 11L19 12L20 12L20 11L21 11L21 10ZM10 12L10 13L9 13L9 14L10 14L10 13L11 13L11 12ZM21 12L21 14L20 14L20 15L21 15L21 16L22 16L22 17L23 17L23 16L22 16L22 15L23 15L23 14L24 14L24 13L23 13L23 12ZM47 12L47 13L48 13L48 14L49 14L49 13L48 13L48 12ZM25 13L25 14L26 14L26 15L27 15L27 16L28 16L28 15L27 15L27 14L26 14L26 13ZM35 13L35 14L36 14L36 13ZM3 14L3 16L4 16L4 15L5 15L5 14ZM21 14L21 15L22 15L22 14ZM34 16L34 17L35 17L35 18L34 18L34 19L35 19L35 18L36 18L36 17L35 17L35 16ZM8 17L8 18L9 18L9 17ZM19 17L19 18L18 18L18 19L17 19L17 20L18 20L18 19L19 19L19 18L20 18L20 17ZM37 17L37 18L38 18L38 17ZM42 17L42 18L43 18L43 20L44 20L44 18L43 18L43 17ZM48 18L48 19L47 19L47 20L46 20L46 19L45 19L45 20L46 20L46 21L47 21L47 22L48 22L48 21L49 21L49 22L50 22L50 21L49 21L49 20L50 20L50 19L49 19L49 18ZM4 19L4 20L5 20L5 19ZM12 19L12 21L11 21L11 22L9 22L9 23L11 23L11 22L12 22L12 24L13 24L13 21L14 21L14 20L13 20L13 19ZM34 20L34 21L35 21L35 22L36 22L36 21L35 21L35 20ZM47 20L47 21L48 21L48 20ZM6 22L6 23L7 23L7 22ZM16 22L16 23L17 23L17 22ZM40 22L40 25L43 25L43 23L45 23L45 22L43 22L43 23L41 23L41 22ZM16 24L16 26L17 26L17 24ZM18 24L18 25L19 25L19 26L18 26L18 27L19 27L19 28L20 28L20 29L21 29L21 28L20 28L20 27L19 27L19 26L20 26L20 25L19 25L19 24ZM34 24L34 25L35 25L35 26L36 26L36 25L35 25L35 24ZM5 25L5 28L8 28L8 25ZM25 25L25 28L28 28L28 25ZM45 25L45 28L48 28L48 25ZM6 26L6 27L7 27L7 26ZM26 26L26 27L27 27L27 26ZM39 26L39 27L40 27L40 26ZM46 26L46 27L47 27L47 26ZM49 26L49 27L50 27L50 28L49 28L49 29L48 29L48 30L47 30L47 31L48 31L48 32L47 32L47 33L46 33L46 34L47 34L47 35L48 35L48 34L49 34L49 35L50 35L50 34L51 34L51 35L52 35L52 34L51 34L51 33L52 33L52 32L51 32L51 31L52 31L52 30L51 30L51 29L52 29L52 28L51 28L51 27L52 27L52 26L51 26L51 27L50 27L50 26ZM10 27L10 28L11 28L11 27ZM34 28L34 29L33 29L33 30L34 30L34 29L35 29L35 30L36 30L36 29L35 29L35 28ZM49 29L49 30L48 30L48 31L49 31L49 32L50 32L50 31L51 31L51 30L50 30L50 29ZM49 30L49 31L50 31L50 30ZM29 31L29 32L28 32L28 33L29 33L29 34L30 34L30 33L31 33L31 34L32 34L32 33L35 33L35 34L36 34L36 35L35 35L35 36L34 36L34 37L35 37L35 38L37 38L37 39L35 39L35 40L36 40L36 41L37 41L37 42L38 42L38 41L39 41L39 40L38 40L38 37L37 37L37 36L38 36L38 35L37 35L37 34L38 34L38 33L37 33L37 34L36 34L36 33L35 33L35 32L33 32L33 31L32 31L32 33L31 33L31 32L30 32L30 31ZM10 32L10 33L11 33L11 32ZM18 32L18 34L17 34L17 33L16 33L16 34L17 34L17 35L16 35L16 36L15 36L15 35L13 35L13 36L12 36L12 35L9 35L9 38L10 38L10 40L11 40L11 38L12 38L12 39L13 39L13 38L14 38L14 39L16 39L16 38L17 38L17 37L18 37L18 36L19 36L19 37L20 37L20 38L19 38L19 39L20 39L20 40L19 40L19 41L20 41L20 42L19 42L19 43L20 43L20 42L21 42L21 41L22 41L22 40L23 40L23 39L22 39L22 36L23 36L23 35L24 35L24 33L23 33L23 35L22 35L22 34L21 34L21 33L22 33L22 32ZM29 32L29 33L30 33L30 32ZM2 33L2 34L3 34L3 35L4 35L4 36L5 36L5 34L4 34L4 33ZM19 33L19 34L18 34L18 35L17 35L17 36L18 36L18 35L19 35L19 36L20 36L20 37L21 37L21 36L22 36L22 35L21 35L21 34L20 34L20 33ZM39 33L39 34L40 34L40 33ZM47 33L47 34L48 34L48 33ZM49 33L49 34L50 34L50 33ZM19 34L19 35L20 35L20 36L21 36L21 35L20 35L20 34ZM10 36L10 38L11 38L11 37L12 37L12 36ZM14 36L14 38L16 38L16 37L15 37L15 36ZM25 36L25 37L26 37L26 36ZM28 36L28 37L29 37L29 36ZM35 36L35 37L36 37L36 36ZM44 37L44 38L43 38L43 39L45 39L45 40L46 40L46 41L47 41L47 42L48 42L48 43L49 43L49 44L50 44L50 43L51 43L51 42L50 42L50 41L49 41L49 42L48 42L48 41L47 41L47 40L48 40L48 39L47 39L47 38L46 38L46 39L45 39L45 37ZM4 38L4 39L5 39L5 38ZM20 38L20 39L21 39L21 40L22 40L22 39L21 39L21 38ZM1 39L1 40L2 40L2 39ZM29 39L29 40L30 40L30 39ZM49 39L49 40L50 40L50 39ZM12 40L12 41L13 41L13 40ZM37 40L37 41L38 41L38 40ZM2 42L2 43L3 43L3 42ZM49 42L49 43L50 43L50 42ZM45 43L45 44L46 44L46 43ZM25 45L25 48L28 48L28 45ZM45 45L45 48L48 48L48 45ZM26 46L26 47L27 47L27 46ZM46 46L46 47L47 47L47 46ZM21 47L21 48L22 48L22 49L21 49L21 50L22 50L22 51L23 51L23 50L24 50L24 49L23 49L23 48L22 48L22 47ZM35 47L35 48L36 48L36 49L35 49L35 50L36 50L36 49L37 49L37 48L38 48L38 47ZM19 49L19 50L18 50L18 51L19 51L19 50L20 50L20 49ZM41 49L41 50L42 50L42 49ZM46 49L46 50L47 50L47 51L48 51L48 52L49 52L49 51L50 51L50 50L49 50L49 51L48 51L48 50L47 50L47 49ZM11 50L11 51L12 51L12 50ZM0 0L0 7L7 7L7 0ZM1 1L1 6L6 6L6 1ZM2 2L2 5L5 5L5 2ZM46 0L46 7L53 7L53 0ZM47 1L47 6L52 6L52 1ZM48 2L48 5L51 5L51 2ZM0 46L0 53L7 53L7 46ZM1 47L1 52L6 52L6 47ZM2 48L2 51L5 51L5 48Z" fill="#000000"/></g></g></svg>
