<?xml version="1.0" encoding="UTF-8"?>
<svg xmlns="http://www.w3.org/2000/svg" version="1.1" width="150" height="150" viewBox="0 0 150 150"><rect x="0" y="0" width="150" height="150" fill="#ffffff"/><g transform="scale(2.632)"><g transform="translate(0,0)"><path fill-rule="evenodd" d="M9 0L9 1L10 1L10 2L11 2L11 5L12 5L12 7L13 7L13 9L12 9L12 8L11 8L11 6L10 6L10 5L9 5L9 6L8 6L8 8L4 8L4 9L3 9L3 8L0 8L0 13L2 13L2 14L0 14L0 15L1 15L1 16L0 16L0 17L1 17L1 18L0 18L0 19L2 19L2 20L1 20L1 22L0 22L0 23L1 23L1 24L3 24L3 25L1 25L1 26L3 26L3 25L4 25L4 31L3 31L3 30L2 30L2 31L3 31L3 32L2 32L2 33L1 33L1 34L2 34L2 35L3 35L3 36L4 36L4 37L3 37L3 38L4 38L4 41L3 41L3 42L2 42L2 40L3 40L3 39L2 39L2 38L1 38L1 39L2 39L2 40L1 40L1 41L0 41L0 42L2 42L2 44L3 44L3 45L4 45L4 46L5 46L5 47L3 47L3 46L2 46L2 45L1 45L1 43L0 43L0 48L5 48L5 47L7 47L7 46L9 46L9 47L10 47L10 46L11 46L11 45L12 45L12 44L10 44L10 43L9 43L9 41L10 41L10 40L9 40L9 39L11 39L11 38L9 38L9 37L13 37L13 36L14 36L14 37L15 37L15 40L14 40L14 39L13 39L13 41L12 41L12 40L11 40L11 42L12 42L12 43L13 43L13 44L16 44L16 45L15 45L15 46L14 46L14 49L15 49L15 48L16 48L16 47L17 47L17 50L14 50L14 51L15 51L15 52L12 52L12 53L11 53L11 54L10 54L10 52L11 52L11 48L10 48L10 50L9 50L9 48L8 48L8 53L9 53L9 54L8 54L8 57L11 57L11 56L9 56L9 55L12 55L12 54L13 54L13 56L12 56L12 57L15 57L15 55L14 55L14 54L13 54L13 53L15 53L15 52L16 52L16 54L17 54L17 55L16 55L16 56L18 56L18 57L19 57L19 56L20 56L20 55L21 55L21 56L22 56L22 57L23 57L23 56L22 56L22 55L23 55L23 52L24 52L24 54L26 54L26 55L24 55L24 56L26 56L26 57L27 57L27 56L28 56L28 57L29 57L29 56L28 56L28 55L29 55L29 53L30 53L30 54L32 54L32 55L30 55L30 57L32 57L32 55L34 55L34 56L36 56L36 57L37 57L37 56L38 56L38 57L39 57L39 56L40 56L40 57L41 57L41 56L42 56L42 57L43 57L43 56L42 56L42 55L41 55L41 54L42 54L42 53L41 53L41 50L40 50L40 51L39 51L39 52L38 52L38 51L37 51L37 50L38 50L38 49L37 49L37 48L39 48L39 49L41 49L41 46L40 46L40 45L41 45L41 42L42 42L42 41L41 41L41 40L43 40L43 39L44 39L44 41L43 41L43 42L44 42L44 43L42 43L42 44L43 44L43 45L45 45L45 44L47 44L47 43L46 43L46 41L47 41L47 42L48 42L48 43L49 43L49 44L48 44L48 45L47 45L47 46L48 46L48 47L49 47L49 48L48 48L48 49L47 49L47 48L46 48L46 47L45 47L45 48L44 48L44 46L43 46L43 47L42 47L42 48L43 48L43 50L44 50L44 51L42 51L42 52L43 52L43 53L44 53L44 54L43 54L43 55L44 55L44 57L45 57L45 56L46 56L46 55L44 55L44 54L45 54L45 53L47 53L47 52L48 52L48 55L49 55L49 54L50 54L50 55L51 55L51 56L50 56L50 57L51 57L51 56L52 56L52 57L53 57L53 56L52 56L52 55L53 55L53 52L54 52L54 51L56 51L56 52L55 52L55 54L54 54L54 55L55 55L55 57L57 57L57 56L56 56L56 55L57 55L57 54L56 54L56 52L57 52L57 48L56 48L56 47L57 47L57 44L56 44L56 45L53 45L53 46L52 46L52 45L51 45L51 44L52 44L52 43L53 43L53 44L54 44L54 43L57 43L57 40L56 40L56 38L57 38L57 32L56 32L56 31L57 31L57 29L56 29L56 27L57 27L57 25L55 25L55 26L54 26L54 25L53 25L53 22L52 22L52 21L53 21L53 20L54 20L54 19L55 19L55 22L54 22L54 23L55 23L55 22L56 22L56 23L57 23L57 22L56 22L56 21L57 21L57 20L56 20L56 19L57 19L57 16L56 16L56 15L57 15L57 13L55 13L55 14L54 14L54 13L53 13L53 12L54 12L54 11L53 11L53 10L55 10L55 11L57 11L57 9L55 9L55 8L54 8L54 9L53 9L53 10L52 10L52 9L51 9L51 8L49 8L49 10L48 10L48 9L47 9L47 8L46 8L46 7L47 7L47 5L48 5L48 0L46 0L46 1L45 1L45 2L46 2L46 3L47 3L47 5L46 5L46 4L44 4L44 5L43 5L43 2L44 2L44 0L41 0L41 1L40 1L40 0L37 0L37 2L38 2L38 3L39 3L39 1L40 1L40 2L41 2L41 1L42 1L42 4L41 4L41 3L40 3L40 4L41 4L41 5L40 5L40 7L39 7L39 4L38 4L38 7L37 7L37 6L36 6L36 5L37 5L37 4L36 4L36 3L35 3L35 2L36 2L36 1L35 1L35 0L32 0L32 1L31 1L31 0L30 0L30 1L29 1L29 0L28 0L28 1L27 1L27 0L26 0L26 1L25 1L25 0L22 0L22 1L21 1L21 0L20 0L20 1L19 1L19 2L18 2L18 0L15 0L15 2L14 2L14 1L13 1L13 2L14 2L14 3L12 3L12 1L11 1L11 0ZM20 1L20 2L19 2L19 3L18 3L18 6L17 6L17 5L16 5L16 4L17 4L17 3L14 3L14 4L12 4L12 5L14 5L14 6L13 6L13 7L14 7L14 8L15 8L15 9L16 9L16 10L17 10L17 11L15 11L15 10L14 10L14 9L13 9L13 10L14 10L14 11L15 11L15 12L14 12L14 14L15 14L15 15L20 15L20 16L19 16L19 17L20 17L20 18L19 18L19 19L18 19L18 18L17 18L17 17L18 17L18 16L15 16L15 18L17 18L17 19L18 19L18 20L17 20L17 22L16 22L16 20L15 20L15 19L14 19L14 18L13 18L13 19L10 19L10 18L9 18L9 20L13 20L13 21L10 21L10 22L11 22L11 23L9 23L9 21L8 21L8 22L7 22L7 21L6 21L6 22L7 22L7 23L5 23L5 24L7 24L7 23L9 23L9 25L8 25L8 26L9 26L9 31L8 31L8 32L7 32L7 31L5 31L5 32L4 32L4 33L2 33L2 34L3 34L3 35L6 35L6 36L7 36L7 35L6 35L6 34L7 34L7 33L8 33L8 37L6 37L6 38L5 38L5 41L4 41L4 42L3 42L3 44L4 44L4 42L5 42L5 43L6 43L6 44L5 44L5 45L6 45L6 46L7 46L7 45L8 45L8 44L9 44L9 43L8 43L8 41L6 41L6 40L8 40L8 39L6 39L6 38L8 38L8 37L9 37L9 36L13 36L13 35L14 35L14 36L16 36L16 34L17 34L17 35L18 35L18 36L17 36L17 37L16 37L16 38L17 38L17 39L16 39L16 40L15 40L15 41L14 41L14 43L16 43L16 44L17 44L17 45L16 45L16 46L15 46L15 47L16 47L16 46L19 46L19 47L18 47L18 48L19 48L19 47L20 47L20 49L19 49L19 50L21 50L21 51L20 51L20 52L21 52L21 53L20 53L20 54L21 54L21 55L22 55L22 54L21 54L21 53L22 53L22 52L23 52L23 51L24 51L24 52L25 52L25 53L26 53L26 52L25 52L25 51L26 51L26 50L25 50L25 49L26 49L26 48L27 48L27 47L28 47L28 48L30 48L30 46L29 46L29 45L31 45L31 47L32 47L32 48L31 48L31 49L32 49L32 50L31 50L31 51L32 51L32 50L33 50L33 51L34 51L34 52L33 52L33 53L34 53L34 55L36 55L36 56L37 56L37 54L35 54L35 53L36 53L36 52L35 52L35 51L36 51L36 50L37 50L37 49L36 49L36 50L35 50L35 49L34 49L34 50L33 50L33 49L32 49L32 48L33 48L33 47L32 47L32 46L33 46L33 45L34 45L34 47L36 47L36 48L37 48L37 47L36 47L36 46L37 46L37 45L38 45L38 47L39 47L39 48L40 48L40 46L39 46L39 45L40 45L40 42L41 42L41 41L40 41L40 40L39 40L39 38L41 38L41 39L43 39L43 36L42 36L42 35L43 35L43 33L40 33L40 34L41 34L41 36L42 36L42 37L38 37L38 40L37 40L37 39L36 39L36 38L37 38L37 37L36 37L36 34L35 34L35 32L34 32L34 31L35 31L35 30L36 30L36 31L38 31L38 32L37 32L37 33L38 33L38 35L37 35L37 36L38 36L38 35L39 35L39 36L40 36L40 35L39 35L39 33L38 33L38 32L39 32L39 31L45 31L45 30L47 30L47 31L46 31L46 32L45 32L45 33L44 33L44 34L45 34L45 35L46 35L46 36L45 36L45 38L44 38L44 39L45 39L45 40L46 40L46 39L47 39L47 41L48 41L48 39L47 39L47 37L48 37L48 38L49 38L49 41L50 41L50 42L49 42L49 43L50 43L50 42L51 42L51 43L52 43L52 42L53 42L53 43L54 43L54 42L55 42L55 41L56 41L56 40L55 40L55 39L51 39L51 41L50 41L50 38L51 38L51 37L52 37L52 38L53 38L53 37L56 37L56 36L55 36L55 35L54 35L54 34L56 34L56 32L55 32L55 31L56 31L56 30L53 30L53 31L52 31L52 32L51 32L51 33L50 33L50 32L49 32L49 31L48 31L48 30L47 30L47 29L48 29L48 28L47 28L47 27L48 27L48 26L49 26L49 25L50 25L50 26L51 26L51 25L52 25L52 26L53 26L53 27L54 27L54 28L53 28L53 29L55 29L55 27L54 27L54 26L53 26L53 25L52 25L52 24L51 24L51 23L52 23L52 22L51 22L51 21L52 21L52 20L51 20L51 19L52 19L52 18L53 18L53 19L54 19L54 18L55 18L55 19L56 19L56 18L55 18L55 17L56 17L56 16L55 16L55 15L56 15L56 14L55 14L55 15L54 15L54 14L53 14L53 13L52 13L52 12L51 12L51 11L52 11L52 10L51 10L51 9L50 9L50 10L49 10L49 11L48 11L48 10L47 10L47 9L46 9L46 8L45 8L45 9L44 9L44 8L43 8L43 7L44 7L44 6L45 6L45 7L46 7L46 6L45 6L45 5L44 5L44 6L43 6L43 7L42 7L42 6L41 6L41 7L42 7L42 8L41 8L41 9L40 9L40 8L39 8L39 7L38 7L38 8L37 8L37 7L36 7L36 6L35 6L35 7L34 7L34 4L35 4L35 5L36 5L36 4L35 4L35 3L34 3L34 2L33 2L33 1L32 1L32 2L31 2L31 3L32 3L32 4L31 4L31 5L33 5L33 7L32 7L32 6L31 6L31 9L30 9L30 11L29 11L29 13L28 13L28 12L27 12L27 11L28 11L28 10L29 10L29 9L28 9L28 10L27 10L27 9L26 9L26 10L25 10L25 7L26 7L26 6L25 6L25 5L26 5L26 4L27 4L27 3L28 3L28 4L29 4L29 3L30 3L30 2L29 2L29 1L28 1L28 2L27 2L27 1L26 1L26 2L25 2L25 1L24 1L24 2L23 2L23 1L22 1L22 2L21 2L21 1ZM46 1L46 2L47 2L47 1ZM8 2L8 3L9 3L9 2ZM20 2L20 3L19 3L19 6L18 6L18 7L17 7L17 6L16 6L16 7L15 7L15 6L14 6L14 7L15 7L15 8L16 8L16 7L17 7L17 10L18 10L18 11L19 11L19 12L18 12L18 13L19 13L19 14L20 14L20 15L21 15L21 18L20 18L20 19L21 19L21 20L18 20L18 22L17 22L17 23L16 23L16 24L17 24L17 26L16 26L16 27L17 27L17 28L16 28L16 29L15 29L15 30L14 30L14 27L10 27L10 29L11 29L11 30L13 30L13 32L12 32L12 33L11 33L11 34L12 34L12 35L13 35L13 34L14 34L14 35L15 35L15 34L14 34L14 33L15 33L15 32L17 32L17 34L18 34L18 35L19 35L19 36L18 36L18 38L19 38L19 36L20 36L20 38L21 38L21 37L22 37L22 39L20 39L20 40L22 40L22 41L21 41L21 42L20 42L20 41L19 41L19 40L17 40L17 42L16 42L16 43L17 43L17 42L18 42L18 43L19 43L19 44L18 44L18 45L19 45L19 46L20 46L20 47L21 47L21 50L24 50L24 51L25 51L25 50L24 50L24 49L23 49L23 48L24 48L24 47L25 47L25 48L26 48L26 47L27 47L27 46L28 46L28 47L29 47L29 46L28 46L28 45L27 45L27 44L28 44L28 43L29 43L29 44L31 44L31 42L30 42L30 41L31 41L31 38L32 38L32 39L33 39L33 40L32 40L32 41L33 41L33 42L32 42L32 45L33 45L33 44L34 44L34 45L35 45L35 44L36 44L36 45L37 45L37 44L38 44L38 45L39 45L39 44L38 44L38 43L36 43L36 42L38 42L38 41L39 41L39 42L40 42L40 41L39 41L39 40L38 40L38 41L36 41L36 39L35 39L35 40L34 40L34 39L33 39L33 38L34 38L34 37L35 37L35 38L36 38L36 37L35 37L35 36L34 36L34 37L33 37L33 36L32 36L32 35L31 35L31 34L33 34L33 35L34 35L34 34L33 34L33 32L32 32L32 31L33 31L33 30L34 30L34 29L33 29L33 27L32 27L32 26L33 26L33 25L32 25L32 23L31 23L31 24L30 24L30 23L29 23L29 22L30 22L30 21L31 21L31 22L33 22L33 23L34 23L34 24L35 24L35 23L34 23L34 21L33 21L33 20L34 20L34 19L33 19L33 20L32 20L32 19L31 19L31 20L30 20L30 19L28 19L28 18L30 18L30 17L31 17L31 18L33 18L33 17L34 17L34 16L33 16L33 15L34 15L34 13L35 13L35 14L36 14L36 16L35 16L35 17L37 17L37 18L36 18L36 19L35 19L35 20L36 20L36 21L37 21L37 22L36 22L36 23L37 23L37 24L36 24L36 25L37 25L37 26L36 26L36 29L37 29L37 30L38 30L38 29L39 29L39 30L41 30L41 29L42 29L42 28L43 28L43 29L45 29L45 28L46 28L46 29L47 29L47 28L46 28L46 27L45 27L45 26L46 26L46 25L47 25L47 26L48 26L48 25L47 25L47 24L48 24L48 23L49 23L49 24L50 24L50 25L51 25L51 24L50 24L50 23L49 23L49 22L50 22L50 21L51 21L51 20L50 20L50 19L49 19L49 18L50 18L50 17L49 17L49 18L48 18L48 15L49 15L49 16L51 16L51 15L49 15L49 14L50 14L50 13L51 13L51 14L52 14L52 17L51 17L51 18L52 18L52 17L53 17L53 18L54 18L54 17L55 17L55 16L54 16L54 15L53 15L53 14L52 14L52 13L51 13L51 12L50 12L50 11L49 11L49 12L50 12L50 13L49 13L49 14L48 14L48 13L47 13L47 12L48 12L48 11L47 11L47 12L46 12L46 9L45 9L45 10L44 10L44 9L43 9L43 8L42 8L42 9L41 9L41 10L40 10L40 9L39 9L39 8L38 8L38 9L36 9L36 7L35 7L35 8L34 8L34 7L33 7L33 8L32 8L32 9L33 9L33 10L32 10L32 13L30 13L30 15L29 15L29 14L28 14L28 13L27 13L27 14L26 14L26 13L25 13L25 12L26 12L26 11L27 11L27 10L26 10L26 11L25 11L25 10L24 10L24 9L23 9L23 8L24 8L24 7L25 7L25 6L24 6L24 7L23 7L23 6L22 6L22 4L21 4L21 5L20 5L20 3L21 3L21 2ZM22 2L22 3L23 3L23 2ZM24 2L24 3L25 3L25 2ZM26 2L26 3L27 3L27 2ZM33 3L33 4L34 4L34 3ZM24 4L24 5L25 5L25 4ZM27 5L27 8L30 8L30 5ZM9 6L9 7L10 7L10 6ZM19 6L19 7L18 7L18 8L19 8L19 9L18 9L18 10L19 10L19 11L20 11L20 14L21 14L21 11L20 11L20 10L21 10L21 9L22 9L22 8L23 8L23 7L22 7L22 6L21 6L21 7L22 7L22 8L20 8L20 6ZM28 6L28 7L29 7L29 6ZM48 6L48 7L49 7L49 6ZM10 8L10 9L11 9L11 8ZM2 9L2 10L1 10L1 11L2 11L2 13L4 13L4 14L3 14L3 15L2 15L2 16L3 16L3 17L2 17L2 19L3 19L3 20L2 20L2 22L3 22L3 23L4 23L4 22L3 22L3 21L4 21L4 19L5 19L5 20L7 20L7 19L8 19L8 17L9 17L9 16L12 16L12 17L11 17L11 18L12 18L12 17L13 17L13 16L12 16L12 14L13 14L13 12L12 12L12 10L9 10L9 11L11 11L11 15L10 15L10 14L8 14L8 13L5 13L5 12L7 12L7 11L6 11L6 10L7 10L7 9L6 9L6 10L5 10L5 9L4 9L4 10L3 10L3 9ZM19 9L19 10L20 10L20 9ZM34 9L34 10L35 10L35 9ZM38 9L38 10L36 10L36 11L35 11L35 13L36 13L36 11L39 11L39 13L37 13L37 17L38 17L38 18L37 18L37 21L38 21L38 22L37 22L37 23L38 23L38 24L37 24L37 25L38 25L38 26L37 26L37 28L39 28L39 29L40 29L40 28L39 28L39 27L40 27L40 26L41 26L41 28L42 28L42 26L43 26L43 28L44 28L44 26L43 26L43 25L44 25L44 23L43 23L43 22L45 22L45 23L46 23L46 24L47 24L47 22L49 22L49 21L50 21L50 20L48 20L48 19L47 19L47 17L46 17L46 16L47 16L47 15L48 15L48 14L47 14L47 13L46 13L46 12L45 12L45 13L46 13L46 14L45 14L45 15L46 15L46 16L45 16L45 17L42 17L42 16L44 16L44 13L43 13L43 12L44 12L44 11L42 11L42 10L43 10L43 9L42 9L42 10L41 10L41 11L42 11L42 13L40 13L40 10L39 10L39 9ZM2 10L2 11L3 11L3 10ZM4 10L4 12L5 12L5 10ZM22 10L22 11L24 11L24 12L25 12L25 11L24 11L24 10ZM30 11L30 12L31 12L31 11ZM33 11L33 12L34 12L34 11ZM22 12L22 14L23 14L23 15L22 15L22 16L23 16L23 17L24 17L24 18L23 18L23 19L24 19L24 20L23 20L23 23L22 23L22 22L21 22L21 21L20 21L20 22L21 22L21 23L20 23L20 24L19 24L19 25L20 25L20 26L18 26L18 27L20 27L20 28L18 28L18 30L17 30L17 29L16 29L16 30L15 30L15 31L14 31L14 32L13 32L13 33L14 33L14 32L15 32L15 31L18 31L18 32L19 32L19 31L21 31L21 32L20 32L20 33L18 33L18 34L19 34L19 35L20 35L20 36L23 36L23 35L24 35L24 36L27 36L27 35L28 35L28 36L29 36L29 37L28 37L28 38L29 38L29 39L28 39L28 42L29 42L29 43L30 43L30 42L29 42L29 41L30 41L30 40L29 40L29 39L30 39L30 38L31 38L31 37L32 37L32 38L33 38L33 37L32 37L32 36L31 36L31 35L30 35L30 34L31 34L31 33L32 33L32 32L31 32L31 33L30 33L30 31L28 31L28 32L27 32L27 31L26 31L26 32L25 32L25 31L24 31L24 30L25 30L25 29L26 29L26 28L25 28L25 27L26 27L26 26L27 26L27 25L28 25L28 26L29 26L29 25L28 25L28 24L27 24L27 25L26 25L26 23L28 23L28 22L29 22L29 21L30 21L30 20L29 20L29 21L28 21L28 20L27 20L27 18L25 18L25 17L27 17L27 15L28 15L28 17L30 17L30 16L31 16L31 17L32 17L32 16L31 16L31 15L33 15L33 14L31 14L31 15L30 15L30 16L29 16L29 15L28 15L28 14L27 14L27 15L26 15L26 14L25 14L25 13L23 13L23 12ZM15 13L15 14L16 14L16 13ZM39 13L39 14L40 14L40 15L38 15L38 16L39 16L39 17L41 17L41 14L40 14L40 13ZM4 14L4 17L3 17L3 18L4 18L4 17L5 17L5 18L6 18L6 19L7 19L7 18L6 18L6 17L8 17L8 15L7 15L7 14ZM24 14L24 15L23 15L23 16L24 16L24 15L25 15L25 16L26 16L26 15L25 15L25 14ZM5 15L5 17L6 17L6 16L7 16L7 15ZM53 16L53 17L54 17L54 16ZM45 17L45 18L43 18L43 19L39 19L39 20L38 20L38 21L39 21L39 22L40 22L40 23L39 23L39 24L38 24L38 25L39 25L39 26L40 26L40 25L41 25L41 26L42 26L42 25L41 25L41 24L43 24L43 23L41 23L41 21L43 21L43 20L44 20L44 21L45 21L45 22L46 22L46 21L48 21L48 20L45 20L45 18L46 18L46 17ZM21 18L21 19L22 19L22 18ZM24 18L24 19L25 19L25 20L24 20L24 22L25 22L25 20L26 20L26 22L27 22L27 20L26 20L26 19L25 19L25 18ZM14 20L14 21L15 21L15 20ZM31 20L31 21L32 21L32 20ZM12 22L12 23L13 23L13 22ZM21 23L21 24L22 24L22 25L21 25L21 26L20 26L20 27L21 27L21 26L22 26L22 27L23 27L23 28L22 28L22 29L23 29L23 30L21 30L21 31L23 31L23 32L21 32L21 33L22 33L22 34L24 34L24 35L27 35L27 34L28 34L28 35L29 35L29 34L28 34L28 33L27 33L27 32L26 32L26 33L25 33L25 34L24 34L24 33L23 33L23 32L24 32L24 31L23 31L23 30L24 30L24 29L23 29L23 28L24 28L24 27L25 27L25 26L26 26L26 25L25 25L25 26L24 26L24 25L23 25L23 24L22 24L22 23ZM24 23L24 24L25 24L25 23ZM10 24L10 25L11 25L11 26L13 26L13 25L11 25L11 24ZM39 24L39 25L40 25L40 24ZM6 25L6 26L7 26L7 25ZM30 25L30 26L31 26L31 25ZM34 25L34 28L35 28L35 25ZM23 26L23 27L24 27L24 26ZM5 27L5 30L8 30L8 27ZM27 27L27 30L30 30L30 27ZM31 27L31 31L32 31L32 27ZM49 27L49 30L52 30L52 27ZM0 28L0 30L1 30L1 28ZM6 28L6 29L7 29L7 28ZM11 28L11 29L13 29L13 28ZM28 28L28 29L29 29L29 28ZM50 28L50 29L51 29L51 28ZM19 29L19 30L18 30L18 31L19 31L19 30L20 30L20 29ZM10 31L10 32L11 32L11 31ZM53 31L53 32L54 32L54 33L53 33L53 34L52 34L52 33L51 33L51 34L50 34L50 33L49 33L49 32L48 32L48 33L47 33L47 32L46 32L46 33L45 33L45 34L46 34L46 33L47 33L47 34L48 34L48 35L49 35L49 36L50 36L50 37L49 37L49 38L50 38L50 37L51 37L51 36L52 36L52 35L53 35L53 36L54 36L54 35L53 35L53 34L54 34L54 33L55 33L55 32L54 32L54 31ZM6 32L6 33L4 33L4 34L6 34L6 33L7 33L7 32ZM8 32L8 33L9 33L9 32ZM26 33L26 34L27 34L27 33ZM48 33L48 34L49 34L49 35L50 35L50 34L49 34L49 33ZM9 34L9 35L10 35L10 34ZM51 34L51 35L52 35L52 34ZM30 36L30 37L29 37L29 38L30 38L30 37L31 37L31 36ZM46 36L46 37L47 37L47 36ZM24 37L24 38L25 38L25 37ZM26 37L26 38L27 38L27 37ZM22 39L22 40L23 40L23 41L24 41L24 42L22 42L22 43L24 43L24 44L22 44L22 46L21 46L21 43L20 43L20 42L19 42L19 43L20 43L20 46L21 46L21 47L22 47L22 48L23 48L23 47L24 47L24 46L25 46L25 45L26 45L26 46L27 46L27 45L26 45L26 44L25 44L25 43L26 43L26 42L25 42L25 41L26 41L26 40L27 40L27 39L26 39L26 40L25 40L25 39L24 39L24 40L23 40L23 39ZM53 40L53 42L54 42L54 40ZM34 41L34 42L35 42L35 41ZM44 41L44 42L45 42L45 41ZM51 41L51 42L52 42L52 41ZM6 42L6 43L7 43L7 44L6 44L6 45L7 45L7 44L8 44L8 43L7 43L7 42ZM24 42L24 43L25 43L25 42ZM34 43L34 44L35 44L35 43ZM49 44L49 45L48 45L48 46L49 46L49 47L50 47L50 46L51 46L51 47L52 47L52 48L53 48L53 49L54 49L54 50L53 50L53 51L54 51L54 50L56 50L56 48L55 48L55 47L56 47L56 46L53 46L53 47L52 47L52 46L51 46L51 45L50 45L50 44ZM23 45L23 46L22 46L22 47L23 47L23 46L24 46L24 45ZM49 45L49 46L50 46L50 45ZM1 46L1 47L2 47L2 46ZM12 46L12 48L13 48L13 46ZM53 47L53 48L54 48L54 47ZM6 48L6 49L7 49L7 48ZM45 48L45 49L44 49L44 50L45 50L45 52L47 52L47 51L48 51L48 50L47 50L47 49L46 49L46 48ZM27 49L27 52L30 52L30 49ZM45 49L45 50L46 50L46 49ZM49 49L49 52L52 52L52 49ZM12 50L12 51L13 51L13 50ZM17 50L17 51L16 51L16 52L17 52L17 53L18 53L18 52L19 52L19 51L18 51L18 50ZM28 50L28 51L29 51L29 50ZM50 50L50 51L51 51L51 50ZM9 51L9 52L10 52L10 51ZM17 51L17 52L18 52L18 51ZM21 51L21 52L22 52L22 51ZM31 52L31 53L32 53L32 52ZM34 52L34 53L35 53L35 52ZM37 52L37 53L38 53L38 56L39 56L39 55L40 55L40 53L38 53L38 52ZM50 53L50 54L51 54L51 55L52 55L52 54L51 54L51 53ZM18 54L18 55L19 55L19 54ZM27 54L27 55L26 55L26 56L27 56L27 55L28 55L28 54ZM55 54L55 55L56 55L56 54ZM48 56L48 57L49 57L49 56ZM0 0L0 7L7 7L7 0ZM1 1L1 6L6 6L6 1ZM2 2L2 5L5 5L5 2ZM50 0L50 7L57 7L57 0ZM51 1L51 6L56 6L56 1ZM52 2L52 5L55 5L55 2ZM0 50L0 57L7 57L7 50ZM1 51L1 56L6 56L6 51ZM2 52L2 55L5 55L5 52Z" fill="#000000"/></g></g></svg>
