<?xml version="1.0" encoding="UTF-8"?>
<svg xmlns="http://www.w3.org/2000/svg" version="1.1" width="150" height="150" viewBox="0 0 150 150"><rect x="0" y="0" width="150" height="150" fill="#ffffff"/><g transform="scale(2.83)"><g transform="translate(0,0)"><path fill-rule="evenodd" d="M9 0L9 1L10 1L10 0ZM13 0L13 1L11 1L11 3L10 3L10 5L12 5L12 9L13 9L13 10L11 10L11 11L12 11L12 14L14 14L14 15L15 15L15 16L14 16L14 17L15 17L15 18L14 18L14 19L13 19L13 18L12 18L12 17L13 17L13 16L12 16L12 17L11 17L11 14L10 14L10 13L9 13L9 12L10 12L10 10L9 10L9 8L10 8L10 9L11 9L11 8L10 8L10 7L11 7L11 6L10 6L10 7L9 7L9 6L8 6L8 8L4 8L4 9L3 9L3 8L0 8L0 10L2 10L2 9L3 9L3 11L4 11L4 12L2 12L2 11L1 11L1 12L0 12L0 13L1 13L1 12L2 12L2 14L0 14L0 15L1 15L1 17L0 17L0 18L1 18L1 19L2 19L2 18L3 18L3 15L2 15L2 14L4 14L4 13L9 13L9 14L8 14L8 16L6 16L6 17L8 17L8 18L9 18L9 19L10 19L10 18L9 18L9 15L10 15L10 17L11 17L11 21L10 21L10 20L9 20L9 21L10 21L10 22L12 22L12 21L13 21L13 24L12 24L12 23L10 23L10 24L9 24L9 23L8 23L8 21L7 21L7 20L8 20L8 19L7 19L7 18L6 18L6 19L7 19L7 20L5 20L5 19L4 19L4 20L5 20L5 21L7 21L7 22L4 22L4 21L1 21L1 20L0 20L0 21L1 21L1 22L0 22L0 29L1 29L1 30L0 30L0 31L3 31L3 32L4 32L4 31L5 31L5 29L9 29L9 30L6 30L6 31L9 31L9 32L10 32L10 33L9 33L9 34L5 34L5 33L8 33L8 32L5 32L5 33L4 33L4 34L2 34L2 33L1 33L1 32L0 32L0 35L1 35L1 36L0 36L0 37L2 37L2 38L4 38L4 37L5 37L5 38L6 38L6 39L4 39L4 40L3 40L3 41L2 41L2 39L0 39L0 41L2 41L2 42L0 42L0 43L1 43L1 44L3 44L3 45L4 45L4 44L3 44L3 43L7 43L7 42L6 42L6 41L8 41L8 40L10 40L10 42L11 42L11 43L12 43L12 42L11 42L11 41L12 41L12 40L13 40L13 43L15 43L15 44L16 44L16 43L17 43L17 44L18 44L18 45L17 45L17 46L16 46L16 45L15 45L15 46L16 46L16 47L14 47L14 51L13 51L13 49L12 49L12 51L13 51L13 52L12 52L12 53L13 53L13 52L14 52L14 53L15 53L15 52L16 52L16 51L17 51L17 52L18 52L18 53L20 53L20 52L21 52L21 53L23 53L23 52L24 52L24 53L25 53L25 52L26 52L26 53L31 53L31 52L32 52L32 53L33 53L33 52L34 52L34 53L35 53L35 52L34 52L34 50L33 50L33 49L35 49L35 50L36 50L36 53L39 53L39 52L40 52L40 53L43 53L43 52L44 52L44 53L45 53L45 52L44 52L44 51L45 51L45 50L46 50L46 51L47 51L47 52L48 52L48 53L50 53L50 51L51 51L51 53L53 53L53 52L52 52L52 50L50 50L50 49L49 49L49 48L50 48L50 47L51 47L51 48L52 48L52 49L53 49L53 48L52 48L52 47L53 47L53 46L50 46L50 43L51 43L51 42L52 42L52 43L53 43L53 42L52 42L52 41L53 41L53 40L52 40L52 39L53 39L53 37L52 37L52 38L50 38L50 35L51 35L51 36L53 36L53 28L52 28L52 27L53 27L53 25L51 25L51 26L50 26L50 25L49 25L49 24L50 24L50 23L53 23L53 20L52 20L52 19L53 19L53 17L49 17L49 16L50 16L50 15L51 15L51 16L52 16L52 15L53 15L53 12L52 12L52 11L53 11L53 9L51 9L51 8L50 8L50 9L47 9L47 8L45 8L45 9L47 9L47 10L50 10L50 11L47 11L47 12L46 12L46 11L45 11L45 10L43 10L43 11L45 11L45 12L46 12L46 13L45 13L45 14L44 14L44 13L43 13L43 12L42 12L42 11L41 11L41 10L40 10L40 9L41 9L41 8L42 8L42 7L43 7L43 9L44 9L44 7L45 7L45 6L44 6L44 7L43 7L43 3L44 3L44 4L45 4L45 3L44 3L44 1L43 1L43 0L42 0L42 1L41 1L41 2L43 2L43 3L41 3L41 6L40 6L40 4L37 4L37 6L36 6L36 5L35 5L35 4L36 4L36 1L37 1L37 2L40 2L40 1L39 1L39 0L38 0L38 1L37 1L37 0L36 0L36 1L35 1L35 0L34 0L34 1L32 1L32 0L29 0L29 2L28 2L28 1L27 1L27 0L26 0L26 1L25 1L25 0L24 0L24 1L23 1L23 2L22 2L22 3L23 3L23 6L22 6L22 5L21 5L21 3L19 3L19 2L21 2L21 0L20 0L20 1L19 1L19 0L18 0L18 1L17 1L17 0L16 0L16 1L17 1L17 2L16 2L16 3L15 3L15 2L14 2L14 1L15 1L15 0ZM18 1L18 2L17 2L17 4L19 4L19 5L20 5L20 4L19 4L19 3L18 3L18 2L19 2L19 1ZM26 1L26 2L27 2L27 3L28 3L28 4L29 4L29 5L30 5L30 4L31 4L31 5L32 5L32 6L31 6L31 7L32 7L32 6L33 6L33 7L34 7L34 8L33 8L33 9L34 9L34 10L33 10L33 11L34 11L34 12L33 12L33 13L32 13L32 12L31 12L31 11L32 11L32 9L30 9L30 6L29 6L29 11L28 11L28 10L27 10L27 9L26 9L26 10L25 10L25 9L24 9L24 8L23 8L23 7L24 7L24 6L23 6L23 7L22 7L22 6L21 6L21 7L22 7L22 8L21 8L21 9L20 9L20 8L19 8L19 9L20 9L20 10L19 10L19 11L18 11L18 10L16 10L16 8L17 8L17 9L18 9L18 8L17 8L17 7L18 7L18 6L17 6L17 5L16 5L16 4L15 4L15 3L14 3L14 2L13 2L13 3L14 3L14 4L13 4L13 7L14 7L14 5L16 5L16 6L15 6L15 7L16 7L16 8L14 8L14 10L13 10L13 11L14 11L14 12L13 12L13 13L14 13L14 12L15 12L15 13L16 13L16 14L15 14L15 15L16 15L16 16L17 16L17 17L16 17L16 18L17 18L17 17L18 17L18 16L19 16L19 17L20 17L20 18L18 18L18 19L19 19L19 21L17 21L17 19L16 19L16 20L15 20L15 19L14 19L14 20L13 20L13 19L12 19L12 20L13 20L13 21L14 21L14 20L15 20L15 21L16 21L16 22L14 22L14 23L16 23L16 24L14 24L14 26L13 26L13 25L12 25L12 24L10 24L10 25L12 25L12 26L10 26L10 28L9 28L9 29L10 29L10 30L9 30L9 31L10 31L10 32L11 32L11 31L13 31L13 32L12 32L12 33L11 33L11 36L10 36L10 37L11 37L11 36L12 36L12 38L10 38L10 39L13 39L13 37L14 37L14 36L15 36L15 37L16 37L16 38L14 38L14 39L16 39L16 40L14 40L14 42L15 42L15 43L16 43L16 42L17 42L17 43L20 43L20 44L19 44L19 45L18 45L18 46L17 46L17 47L16 47L16 48L15 48L15 49L16 49L16 50L15 50L15 51L14 51L14 52L15 52L15 51L16 51L16 50L17 50L17 51L19 51L19 52L20 52L20 51L19 51L19 50L17 50L17 49L18 49L18 48L20 48L20 50L21 50L21 52L23 52L23 51L22 51L22 50L21 50L21 49L22 49L22 48L23 48L23 49L24 49L24 50L25 50L25 51L26 51L26 52L27 52L27 51L28 51L28 50L29 50L29 51L32 51L32 50L31 50L31 49L30 49L30 50L29 50L29 49L28 49L28 50L27 50L27 49L24 49L24 47L22 47L22 46L21 46L21 42L22 42L22 43L24 43L24 44L23 44L23 45L24 45L24 44L27 44L27 43L28 43L28 44L29 44L29 48L32 48L32 46L33 46L33 47L34 47L34 48L35 48L35 49L36 49L36 50L37 50L37 51L38 51L38 52L39 52L39 51L40 51L40 50L41 50L41 52L43 52L43 51L44 51L44 50L43 50L43 49L44 49L44 48L41 48L41 49L40 49L40 46L41 46L41 47L43 47L43 46L44 46L44 42L45 42L45 43L46 43L46 42L47 42L47 43L48 43L48 44L49 44L49 43L50 43L50 42L51 42L51 41L52 41L52 40L51 40L51 39L50 39L50 38L49 38L49 35L48 35L48 34L49 34L49 33L50 33L50 34L51 34L51 35L52 35L52 34L51 34L51 33L52 33L52 32L51 32L51 31L50 31L50 30L51 30L51 29L52 29L52 28L51 28L51 27L52 27L52 26L51 26L51 27L50 27L50 26L49 26L49 27L50 27L50 30L49 30L49 29L48 29L48 30L47 30L47 31L48 31L48 32L47 32L47 33L46 33L46 32L45 32L45 31L43 31L43 30L44 30L44 28L43 28L43 26L44 26L44 24L46 24L46 23L50 23L50 22L52 22L52 20L51 20L51 19L52 19L52 18L49 18L49 17L48 17L48 18L47 18L47 16L49 16L49 15L50 15L50 14L51 14L51 15L52 15L52 14L51 14L51 13L52 13L52 12L51 12L51 11L52 11L52 10L51 10L51 9L50 9L50 10L51 10L51 11L50 11L50 14L47 14L47 13L48 13L48 12L47 12L47 13L46 13L46 14L45 14L45 15L44 15L44 14L43 14L43 13L42 13L42 12L41 12L41 13L42 13L42 14L41 14L41 18L40 18L40 19L39 19L39 20L38 20L38 18L39 18L39 17L40 17L40 16L37 16L37 17L36 17L36 16L35 16L35 14L36 14L36 15L40 15L40 13L39 13L39 12L40 12L40 10L39 10L39 9L40 9L40 6L39 6L39 7L38 7L38 6L37 6L37 7L38 7L38 8L37 8L37 9L36 9L36 8L35 8L35 7L36 7L36 6L35 6L35 7L34 7L34 4L35 4L35 3L34 3L34 2L32 2L32 1L31 1L31 3L30 3L30 2L29 2L29 3L28 3L28 2L27 2L27 1ZM8 2L8 3L9 3L9 2ZM23 2L23 3L24 3L24 4L26 4L26 3L25 3L25 2ZM29 3L29 4L30 4L30 3ZM31 3L31 4L32 4L32 5L33 5L33 4L34 4L34 3L33 3L33 4L32 4L32 3ZM25 5L25 8L28 8L28 5ZM16 6L16 7L17 7L17 6ZM19 6L19 7L20 7L20 6ZM26 6L26 7L27 7L27 6ZM41 6L41 7L42 7L42 6ZM22 8L22 10L20 10L20 11L19 11L19 12L18 12L18 11L16 11L16 12L17 12L17 14L16 14L16 15L17 15L17 16L18 16L18 15L19 15L19 16L20 16L20 15L21 15L21 14L20 14L20 11L23 11L23 12L21 12L21 13L22 13L22 15L23 15L23 16L22 16L22 20L21 20L21 21L22 21L22 22L23 22L23 21L25 21L25 23L27 23L27 24L24 24L24 23L23 23L23 24L22 24L22 23L20 23L20 24L18 24L18 23L19 23L19 22L20 22L20 21L19 21L19 22L18 22L18 23L17 23L17 22L16 22L16 23L17 23L17 24L16 24L16 26L18 26L18 27L16 27L16 28L18 28L18 29L17 29L17 30L16 30L16 29L15 29L15 28L14 28L14 27L15 27L15 26L14 26L14 27L12 27L12 28L14 28L14 29L12 29L12 30L14 30L14 31L15 31L15 32L14 32L14 33L15 33L15 34L14 34L14 35L13 35L13 34L12 34L12 36L14 36L14 35L15 35L15 36L16 36L16 35L17 35L17 36L18 36L18 37L17 37L17 38L16 38L16 39L17 39L17 40L18 40L18 41L17 41L17 42L20 42L20 40L22 40L22 42L23 42L23 41L25 41L25 42L24 42L24 43L25 43L25 42L27 42L27 40L28 40L28 39L27 39L27 38L29 38L29 37L27 37L27 36L28 36L28 35L29 35L29 36L30 36L30 37L31 37L31 38L30 38L30 40L32 40L32 41L31 41L31 44L32 44L32 45L31 45L31 46L32 46L32 45L33 45L33 46L34 46L34 45L33 45L33 44L36 44L36 47L35 47L35 48L36 48L36 49L37 49L37 50L38 50L38 49L39 49L39 50L40 50L40 49L39 49L39 48L38 48L38 45L39 45L39 46L40 46L40 45L41 45L41 43L42 43L42 41L43 41L43 42L44 42L44 41L45 41L45 42L46 42L46 41L47 41L47 42L48 42L48 43L49 43L49 42L50 42L50 41L49 41L49 42L48 42L48 41L47 41L47 40L48 40L48 39L49 39L49 40L50 40L50 39L49 39L49 38L48 38L48 37L47 37L47 36L48 36L48 35L47 35L47 34L48 34L48 33L49 33L49 32L50 32L50 31L49 31L49 30L48 30L48 31L49 31L49 32L48 32L48 33L47 33L47 34L46 34L46 33L45 33L45 32L44 32L44 33L43 33L43 32L41 32L41 31L40 31L40 30L39 30L39 32L38 32L38 29L41 29L41 27L40 27L40 26L39 26L39 28L38 28L38 27L37 27L37 26L38 26L38 25L37 25L37 24L39 24L39 23L37 23L37 22L38 22L38 21L37 21L37 18L38 18L38 17L37 17L37 18L36 18L36 17L35 17L35 16L34 16L34 13L33 13L33 14L32 14L32 13L31 13L31 12L30 12L30 11L29 11L29 12L27 12L27 14L28 14L28 15L27 15L27 16L28 16L28 17L27 17L27 18L26 18L26 17L25 17L25 16L24 16L24 15L23 15L23 14L24 14L24 13L25 13L25 12L26 12L26 11L27 11L27 10L26 10L26 11L25 11L25 12L24 12L24 9L23 9L23 8ZM34 8L34 9L35 9L35 10L36 10L36 13L38 13L38 12L39 12L39 10L38 10L38 9L39 9L39 8L38 8L38 9L37 9L37 10L36 10L36 9L35 9L35 8ZM6 9L6 10L7 10L7 9ZM4 10L4 11L5 11L5 10ZM14 10L14 11L15 11L15 10ZM37 10L37 12L38 12L38 10ZM6 11L6 12L7 12L7 11ZM8 11L8 12L9 12L9 11ZM23 12L23 13L24 13L24 12ZM29 12L29 13L30 13L30 14L29 14L29 15L28 15L28 16L30 16L30 17L29 17L29 19L28 19L28 20L29 20L29 21L30 21L30 22L29 22L29 23L30 23L30 24L29 24L29 27L30 27L30 28L29 28L29 29L30 29L30 30L27 30L27 31L26 31L26 30L25 30L25 31L26 31L26 32L25 32L25 33L24 33L24 32L23 32L23 31L24 31L24 28L23 28L23 27L24 27L24 26L23 26L23 27L22 27L22 28L23 28L23 30L22 30L22 31L21 31L21 25L22 25L22 24L20 24L20 26L19 26L19 27L20 27L20 28L19 28L19 30L20 30L20 31L18 31L18 30L17 30L17 31L16 31L16 30L15 30L15 31L16 31L16 32L15 32L15 33L16 33L16 34L15 34L15 35L16 35L16 34L17 34L17 35L18 35L18 36L19 36L19 37L18 37L18 38L17 38L17 39L18 39L18 40L19 40L19 39L18 39L18 38L21 38L21 39L22 39L22 40L23 40L23 39L24 39L24 40L25 40L25 41L26 41L26 40L27 40L27 39L26 39L26 38L24 38L24 37L25 37L25 35L24 35L24 34L25 34L25 33L26 33L26 32L27 32L27 33L28 33L28 34L26 34L26 36L27 36L27 35L28 35L28 34L29 34L29 35L30 35L30 36L31 36L31 37L32 37L32 38L31 38L31 39L32 39L32 38L33 38L33 39L34 39L34 40L33 40L33 41L32 41L32 42L33 42L33 43L36 43L36 42L37 42L37 43L38 43L38 44L37 44L37 45L38 45L38 44L39 44L39 43L40 43L40 42L41 42L41 41L42 41L42 40L43 40L43 41L44 41L44 40L45 40L45 41L46 41L46 40L45 40L45 39L46 39L46 38L47 38L47 39L48 39L48 38L47 38L47 37L45 37L45 36L44 36L44 34L45 34L45 35L46 35L46 34L45 34L45 33L44 33L44 34L43 34L43 33L42 33L42 34L41 34L41 33L40 33L40 32L39 32L39 33L38 33L38 32L37 32L37 33L36 33L36 32L35 32L35 31L36 31L36 30L37 30L37 29L38 29L38 28L37 28L37 29L36 29L36 26L37 26L37 25L36 25L36 24L35 24L35 23L36 23L36 22L37 22L37 21L36 21L36 20L35 20L35 19L36 19L36 18L35 18L35 17L34 17L34 16L33 16L33 15L32 15L32 14L31 14L31 13L30 13L30 12ZM18 13L18 14L17 14L17 15L18 15L18 14L19 14L19 15L20 15L20 14L19 14L19 13ZM6 14L6 15L7 15L7 14ZM30 15L30 16L31 16L31 18L32 18L32 19L31 19L31 20L30 20L30 19L29 19L29 20L30 20L30 21L31 21L31 22L32 22L32 23L31 23L31 24L32 24L32 25L31 25L31 26L33 26L33 22L34 22L34 21L35 21L35 20L34 20L34 21L33 21L33 18L32 18L32 17L33 17L33 16L32 16L32 15ZM42 15L42 16L44 16L44 15ZM46 15L46 16L45 16L45 17L46 17L46 16L47 16L47 15ZM4 16L4 17L5 17L5 16ZM23 16L23 17L24 17L24 18L23 18L23 19L24 19L24 20L25 20L25 21L26 21L26 22L27 22L27 23L28 23L28 22L27 22L27 19L26 19L26 18L25 18L25 17L24 17L24 16ZM1 17L1 18L2 18L2 17ZM42 17L42 18L43 18L43 20L42 20L42 19L40 19L40 20L39 20L39 21L41 21L41 20L42 20L42 21L43 21L43 22L42 22L42 23L40 23L40 25L43 25L43 24L44 24L44 23L45 23L45 22L46 22L46 21L47 21L47 22L50 22L50 21L49 21L49 20L50 20L50 19L49 19L49 18L48 18L48 19L47 19L47 20L46 20L46 19L45 19L45 20L46 20L46 21L45 21L45 22L44 22L44 21L43 21L43 20L44 20L44 18L43 18L43 17ZM20 18L20 19L21 19L21 18ZM34 18L34 19L35 19L35 18ZM25 19L25 20L26 20L26 19ZM48 19L48 20L47 20L47 21L48 21L48 20L49 20L49 19ZM31 20L31 21L32 21L32 22L33 22L33 21L32 21L32 20ZM1 22L1 23L2 23L2 24L4 24L4 23L3 23L3 22ZM43 22L43 23L44 23L44 22ZM5 23L5 24L7 24L7 23ZM17 24L17 25L18 25L18 24ZM23 24L23 25L24 25L24 24ZM34 24L34 25L35 25L35 26L36 26L36 25L35 25L35 24ZM1 25L1 27L2 27L2 26L3 26L3 27L4 27L4 26L3 26L3 25ZM5 25L5 28L8 28L8 25ZM25 25L25 28L28 28L28 25ZM45 25L45 28L48 28L48 25ZM6 26L6 27L7 27L7 26ZM26 26L26 27L27 27L27 26ZM46 26L46 27L47 27L47 26ZM31 27L31 28L30 28L30 29L31 29L31 30L32 30L32 33L31 33L31 32L30 32L30 31L29 31L29 32L28 32L28 33L31 33L31 34L32 34L32 35L31 35L31 36L32 36L32 37L33 37L33 38L34 38L34 39L35 39L35 40L34 40L34 41L35 41L35 42L36 42L36 41L37 41L37 42L38 42L38 41L39 41L39 40L40 40L40 41L41 41L41 40L42 40L42 38L39 38L39 40L38 40L38 39L36 39L36 38L34 38L34 37L33 37L33 36L35 36L35 35L34 35L34 34L32 34L32 33L35 33L35 34L36 34L36 37L37 37L37 38L38 38L38 37L37 37L37 36L39 36L39 37L43 37L43 36L42 36L42 35L41 35L41 34L40 34L40 33L39 33L39 34L40 34L40 35L37 35L37 34L38 34L38 33L37 33L37 34L36 34L36 33L35 33L35 32L33 32L33 30L34 30L34 31L35 31L35 30L36 30L36 29L35 29L35 28L34 28L34 27ZM2 28L2 30L3 30L3 31L4 31L4 30L3 30L3 29L4 29L4 28ZM31 28L31 29L32 29L32 30L33 30L33 29L34 29L34 30L35 30L35 29L34 29L34 28L33 28L33 29L32 29L32 28ZM42 28L42 29L43 29L43 28ZM10 30L10 31L11 31L11 30ZM17 31L17 32L16 32L16 33L17 33L17 34L18 34L18 35L19 35L19 36L20 36L20 35L21 35L21 34L20 34L20 32L21 32L21 31L20 31L20 32L18 32L18 31ZM17 32L17 33L18 33L18 32ZM22 32L22 34L23 34L23 32ZM4 34L4 35L3 35L3 36L2 36L2 37L4 37L4 36L5 36L5 34ZM9 34L9 35L8 35L8 36L7 36L7 35L6 35L6 36L7 36L7 37L6 37L6 38L7 38L7 37L8 37L8 36L9 36L9 35L10 35L10 34ZM19 34L19 35L20 35L20 34ZM23 35L23 36L21 36L21 38L22 38L22 39L23 39L23 36L24 36L24 35ZM44 37L44 38L43 38L43 39L45 39L45 37ZM8 38L8 39L6 39L6 40L8 40L8 39L9 39L9 38ZM25 39L25 40L26 40L26 39ZM35 40L35 41L36 41L36 40ZM37 40L37 41L38 41L38 40ZM3 41L3 42L2 42L2 43L3 43L3 42L5 42L5 41ZM15 41L15 42L16 42L16 41ZM28 41L28 43L29 43L29 41ZM6 44L6 45L8 45L8 49L9 49L9 48L10 48L10 50L11 50L11 48L12 48L12 45L13 45L13 46L14 46L14 44L9 44L9 45L8 45L8 44ZM42 44L42 45L43 45L43 44ZM51 44L51 45L52 45L52 44ZM9 45L9 47L10 47L10 46L11 46L11 45ZM25 45L25 48L28 48L28 45ZM45 45L45 48L48 48L48 45ZM18 46L18 47L17 47L17 48L18 48L18 47L19 47L19 46ZM20 46L20 47L21 47L21 46ZM26 46L26 47L27 47L27 46ZM46 46L46 47L47 47L47 46ZM49 46L49 47L50 47L50 46ZM37 48L37 49L38 49L38 48ZM41 49L41 50L42 50L42 49ZM46 49L46 50L47 50L47 51L48 51L48 52L49 52L49 51L50 51L50 50L49 50L49 51L48 51L48 50L47 50L47 49ZM8 50L8 53L11 53L11 51L10 51L10 52L9 52L9 50ZM0 0L0 7L7 7L7 0ZM1 1L1 6L6 6L6 1ZM2 2L2 5L5 5L5 2ZM46 0L46 7L53 7L53 0ZM47 1L47 6L52 6L52 1ZM48 2L48 5L51 5L51 2ZM0 46L0 53L7 53L7 46ZM1 47L1 52L6 52L6 47ZM2 48L2 51L5 51L5 48Z" fill="#000000"/></g></g></svg>
