<?xml version="1.0" encoding="UTF-8"?>
<svg xmlns="http://www.w3.org/2000/svg" version="1.1" width="150" height="150" viewBox="0 0 150 150"><rect x="0" y="0" width="150" height="150" fill="#ffffff"/><g transform="scale(2.83)"><g transform="translate(0,0)"><path fill-rule="evenodd" d="M10 0L10 1L9 1L9 2L8 2L8 3L9 3L9 5L10 5L10 4L12 4L12 9L11 9L11 6L10 6L10 9L9 9L9 6L8 6L8 8L4 8L4 9L5 9L5 10L4 10L4 11L1 11L1 10L0 10L0 12L2 12L2 13L3 13L3 12L5 12L5 10L6 10L6 11L7 11L7 12L6 12L6 13L5 13L5 14L1 14L1 13L0 13L0 14L1 14L1 15L2 15L2 16L3 16L3 17L4 17L4 16L5 16L5 17L7 17L7 16L8 16L8 17L9 17L9 18L8 18L8 20L10 20L10 23L8 23L8 24L5 24L5 23L7 23L7 22L5 22L5 21L7 21L7 20L6 20L6 19L7 19L7 18L0 18L0 20L2 20L2 21L1 21L1 22L0 22L0 26L1 26L1 28L0 28L0 31L1 31L1 32L2 32L2 31L1 31L1 30L2 30L2 29L1 29L1 28L2 28L2 27L3 27L3 26L4 26L4 29L3 29L3 30L4 30L4 29L7 29L7 30L6 30L6 31L7 31L7 32L4 32L4 34L2 34L2 33L0 33L0 34L2 34L2 36L3 36L3 35L4 35L4 39L5 39L5 37L7 37L7 38L6 38L6 39L7 39L7 38L9 38L9 39L8 39L8 40L6 40L6 41L5 41L5 40L3 40L3 38L1 38L1 37L0 37L0 39L2 39L2 40L3 40L3 41L4 41L4 42L3 42L3 43L2 43L2 42L0 42L0 43L1 43L1 44L3 44L3 45L4 45L4 44L3 44L3 43L7 43L7 44L6 44L6 45L7 45L7 44L8 44L8 49L9 49L9 50L8 50L8 53L12 53L12 52L13 52L13 53L16 53L16 51L19 51L19 52L17 52L17 53L20 53L20 51L21 51L21 50L20 50L20 48L19 48L19 47L17 47L17 46L19 46L19 44L21 44L21 46L20 46L20 47L21 47L21 48L22 48L22 51L23 51L23 52L21 52L21 53L23 53L23 52L24 52L24 53L25 53L25 52L26 52L26 53L27 53L27 52L28 52L28 53L29 53L29 52L30 52L30 53L31 53L31 52L30 52L30 51L29 51L29 50L30 50L30 49L31 49L31 50L32 50L32 53L33 53L33 52L34 52L34 50L33 50L33 49L35 49L35 50L36 50L36 51L35 51L35 53L38 53L38 52L40 52L40 53L41 53L41 52L42 52L42 53L43 53L43 52L45 52L45 50L46 50L46 51L47 51L47 52L48 52L48 53L50 53L50 51L51 51L51 53L53 53L53 52L52 52L52 50L53 50L53 48L52 48L52 47L53 47L53 42L52 42L52 41L53 41L53 40L52 40L52 39L53 39L53 37L51 37L51 38L50 38L50 36L49 36L49 38L48 38L48 37L47 37L47 36L48 36L48 35L51 35L51 36L53 36L53 32L52 32L52 31L53 31L53 28L52 28L52 27L53 27L53 24L52 24L52 23L53 23L53 20L52 20L52 19L53 19L53 16L52 16L52 15L53 15L53 12L52 12L52 11L53 11L53 9L51 9L51 8L50 8L50 9L47 9L47 8L45 8L45 9L47 9L47 10L50 10L50 11L51 11L51 12L49 12L49 11L48 11L48 13L47 13L47 12L46 12L46 11L45 11L45 10L43 10L43 11L45 11L45 12L46 12L46 13L45 13L45 14L44 14L44 13L43 13L43 12L42 12L42 11L41 11L41 10L40 10L40 9L41 9L41 8L42 8L42 7L43 7L43 9L44 9L44 7L45 7L45 6L44 6L44 7L43 7L43 3L44 3L44 4L45 4L45 3L44 3L44 1L43 1L43 0L42 0L42 1L41 1L41 2L43 2L43 3L41 3L41 4L40 4L40 5L39 5L39 4L37 4L37 6L36 6L36 3L35 3L35 4L34 4L34 7L33 7L33 6L32 6L32 5L33 5L33 4L32 4L32 3L31 3L31 2L32 2L32 1L33 1L33 3L34 3L34 2L36 2L36 1L37 1L37 3L39 3L39 2L40 2L40 1L39 1L39 0L38 0L38 1L37 1L37 0L36 0L36 1L35 1L35 0L34 0L34 1L33 1L33 0L29 0L29 2L28 2L28 1L27 1L27 2L24 2L24 1L25 1L25 0L23 0L23 2L22 2L22 3L23 3L23 5L21 5L21 0L20 0L20 1L19 1L19 2L18 2L18 0L16 0L16 1L15 1L15 2L14 2L14 1L12 1L12 0ZM10 1L10 2L11 2L11 1ZM16 1L16 2L15 2L15 3L14 3L14 2L12 2L12 3L14 3L14 4L13 4L13 5L14 5L14 6L13 6L13 7L14 7L14 8L13 8L13 9L14 9L14 10L13 10L13 11L12 11L12 12L13 12L13 13L11 13L11 11L10 11L10 10L11 10L11 9L10 9L10 10L9 10L9 9L8 9L8 10L9 10L9 11L10 11L10 12L9 12L9 13L6 13L6 14L5 14L5 15L6 15L6 16L7 16L7 15L6 15L6 14L8 14L8 15L12 15L12 17L11 17L11 18L9 18L9 19L10 19L10 20L11 20L11 21L12 21L12 19L14 19L14 20L13 20L13 21L14 21L14 20L15 20L15 21L16 21L16 22L15 22L15 23L14 23L14 22L12 22L12 23L11 23L11 26L12 26L12 27L11 27L11 28L12 28L12 29L14 29L14 28L15 28L15 29L16 29L16 30L14 30L14 31L16 31L16 32L14 32L14 34L12 34L12 33L13 33L13 31L12 31L12 30L11 30L11 29L10 29L10 27L9 27L9 29L10 29L10 30L11 30L11 31L10 31L10 32L11 32L11 31L12 31L12 33L11 33L11 34L12 34L12 35L11 35L11 36L10 36L10 37L11 37L11 39L9 39L9 40L10 40L10 41L9 41L9 42L10 42L10 43L11 43L11 40L12 40L12 42L13 42L13 43L14 43L14 44L15 44L15 45L14 45L14 47L13 47L13 49L16 49L16 50L13 50L13 51L14 51L14 52L15 52L15 51L16 51L16 50L17 50L17 49L18 49L18 48L17 48L17 47L15 47L15 46L17 46L17 43L18 43L18 42L19 42L19 43L20 43L20 42L21 42L21 41L22 41L22 40L19 40L19 41L18 41L18 40L16 40L16 38L17 38L17 39L19 39L19 38L21 38L21 39L23 39L23 42L22 42L22 43L24 43L24 44L23 44L23 46L24 46L24 44L27 44L27 43L28 43L28 44L29 44L29 45L30 45L30 46L29 46L29 49L28 49L28 50L27 50L27 49L26 49L26 50L25 50L25 49L24 49L24 47L22 47L22 46L21 46L21 47L22 47L22 48L23 48L23 49L24 49L24 50L23 50L23 51L24 51L24 50L25 50L25 51L26 51L26 52L27 52L27 51L28 51L28 50L29 50L29 49L30 49L30 48L32 48L32 47L31 47L31 45L32 45L32 46L33 46L33 45L34 45L34 48L35 48L35 49L36 49L36 50L37 50L37 52L38 52L38 51L40 51L40 50L41 50L41 51L42 51L42 52L43 52L43 51L44 51L44 50L43 50L43 49L44 49L44 48L41 48L41 49L40 49L40 46L41 46L41 47L43 47L43 46L44 46L44 42L45 42L45 43L46 43L46 44L47 44L47 43L50 43L50 44L49 44L49 45L50 45L50 46L49 46L49 47L50 47L50 48L49 48L49 49L50 49L50 50L49 50L49 51L48 51L48 50L47 50L47 49L46 49L46 50L47 50L47 51L48 51L48 52L49 52L49 51L50 51L50 50L51 50L51 49L52 49L52 48L51 48L51 47L52 47L52 46L51 46L51 45L52 45L52 44L51 44L51 43L52 43L52 42L51 42L51 43L50 43L50 42L49 42L49 41L52 41L52 40L51 40L51 39L52 39L52 38L51 38L51 39L50 39L50 38L49 38L49 39L48 39L48 38L47 38L47 37L45 37L45 36L44 36L44 34L45 34L45 35L46 35L46 36L47 36L47 35L48 35L48 34L49 34L49 33L52 33L52 32L51 32L51 31L52 31L52 30L51 30L51 29L52 29L52 28L51 28L51 27L52 27L52 26L51 26L51 25L52 25L52 24L51 24L51 23L52 23L52 22L51 22L51 21L52 21L52 20L51 20L51 19L52 19L52 18L51 18L51 17L52 17L52 16L51 16L51 15L52 15L52 14L51 14L51 13L52 13L52 12L51 12L51 13L50 13L50 14L49 14L49 13L48 13L48 14L47 14L47 13L46 13L46 15L44 15L44 14L43 14L43 13L42 13L42 12L41 12L41 13L40 13L40 12L39 12L39 13L36 13L36 10L37 10L37 12L38 12L38 10L39 10L39 11L40 11L40 10L39 10L39 9L40 9L40 6L41 6L41 7L42 7L42 6L41 6L41 5L40 5L40 6L39 6L39 7L38 7L38 6L37 6L37 7L38 7L38 8L37 8L37 9L36 9L36 8L35 8L35 7L36 7L36 6L35 6L35 7L34 7L34 8L33 8L33 9L32 9L32 10L33 10L33 11L34 11L34 12L33 12L33 13L32 13L32 12L31 12L31 9L30 9L30 6L29 6L29 11L30 11L30 12L29 12L29 13L30 13L30 14L29 14L29 15L28 15L28 14L26 14L26 13L27 13L27 11L26 11L26 10L27 10L27 9L26 9L26 10L25 10L25 9L24 9L24 8L23 8L23 7L24 7L24 6L23 6L23 7L22 7L22 6L21 6L21 8L20 8L20 10L22 10L22 9L21 9L21 8L23 8L23 9L24 9L24 10L23 10L23 11L21 11L21 12L20 12L20 11L19 11L19 10L18 10L18 8L19 8L19 7L20 7L20 6L19 6L19 5L20 5L20 4L19 4L19 3L20 3L20 2L19 2L19 3L18 3L18 2L17 2L17 1ZM16 2L16 3L15 3L15 4L16 4L16 5L15 5L15 6L14 6L14 7L15 7L15 8L14 8L14 9L15 9L15 10L14 10L14 11L13 11L13 12L14 12L14 13L13 13L13 14L12 14L12 15L13 15L13 17L12 17L12 18L11 18L11 19L12 19L12 18L14 18L14 19L15 19L15 20L16 20L16 21L18 21L18 22L17 22L17 23L15 23L15 24L14 24L14 25L15 25L15 26L14 26L14 27L12 27L12 28L14 28L14 27L15 27L15 28L16 28L16 29L17 29L17 30L16 30L16 31L17 31L17 32L18 32L18 33L17 33L17 34L16 34L16 33L15 33L15 34L14 34L14 35L12 35L12 36L11 36L11 37L12 37L12 36L14 36L14 37L13 37L13 38L12 38L12 39L13 39L13 38L14 38L14 39L15 39L15 38L16 38L16 37L15 37L15 36L16 36L16 35L18 35L18 33L19 33L19 35L20 35L20 36L21 36L21 38L23 38L23 36L24 36L24 41L25 41L25 42L24 42L24 43L27 43L27 42L28 42L28 43L29 43L29 44L30 44L30 45L31 45L31 44L32 44L32 45L33 45L33 44L34 44L34 45L35 45L35 48L36 48L36 49L37 49L37 50L38 50L38 49L39 49L39 50L40 50L40 49L39 49L39 48L38 48L38 47L36 47L36 46L37 46L37 45L39 45L39 46L40 46L40 45L41 45L41 46L42 46L42 45L43 45L43 44L42 44L42 41L43 41L43 42L44 42L44 41L45 41L45 42L46 42L46 43L47 43L47 42L48 42L48 41L45 41L45 40L48 40L48 39L47 39L47 38L46 38L46 39L45 39L45 37L44 37L44 38L43 38L43 39L45 39L45 40L44 40L44 41L43 41L43 40L42 40L42 39L41 39L41 38L42 38L42 37L43 37L43 36L42 36L42 35L41 35L41 34L42 34L42 33L43 33L43 34L44 34L44 33L45 33L45 34L46 34L46 35L47 35L47 34L48 34L48 31L49 31L49 32L50 32L50 31L51 31L51 30L50 30L50 29L49 29L49 26L50 26L50 25L49 25L49 24L50 24L50 23L51 23L51 22L50 22L50 20L49 20L49 18L50 18L50 19L51 19L51 18L50 18L50 17L49 17L49 16L50 16L50 15L51 15L51 14L50 14L50 15L49 15L49 14L48 14L48 15L49 15L49 16L47 16L47 15L46 15L46 16L45 16L45 17L46 17L46 16L47 16L47 18L48 18L48 21L49 21L49 22L48 22L48 23L46 23L46 24L44 24L44 23L45 23L45 22L46 22L46 21L47 21L47 20L46 20L46 19L45 19L45 20L46 20L46 21L45 21L45 22L44 22L44 21L43 21L43 20L44 20L44 18L43 18L43 17L42 17L42 18L43 18L43 20L42 20L42 19L40 19L40 18L41 18L41 14L42 14L42 13L41 13L41 14L39 14L39 15L37 15L37 14L36 14L36 15L35 15L35 16L34 16L34 13L35 13L35 12L34 12L34 13L33 13L33 14L32 14L32 13L31 13L31 12L30 12L30 13L31 13L31 14L32 14L32 15L29 15L29 16L28 16L28 15L27 15L27 16L28 16L28 17L27 17L27 18L26 18L26 17L25 17L25 16L26 16L26 15L25 15L25 16L24 16L24 15L23 15L23 14L25 14L25 12L26 12L26 11L25 11L25 12L21 12L21 13L22 13L22 14L20 14L20 12L17 12L17 14L18 14L18 15L14 15L14 14L16 14L16 13L15 13L15 12L16 12L16 11L17 11L17 10L16 10L16 9L15 9L15 8L16 8L16 7L17 7L17 8L18 8L18 7L19 7L19 6L18 6L18 5L19 5L19 4L17 4L17 2ZM27 2L27 3L28 3L28 4L29 4L29 5L30 5L30 4L31 4L31 5L32 5L32 4L31 4L31 3L30 3L30 2L29 2L29 3L28 3L28 2ZM24 3L24 4L25 4L25 3ZM29 3L29 4L30 4L30 3ZM16 5L16 6L15 6L15 7L16 7L16 6L17 6L17 7L18 7L18 6L17 6L17 5ZM25 5L25 8L28 8L28 5ZM26 6L26 7L27 7L27 6ZM31 6L31 7L32 7L32 6ZM0 8L0 9L3 9L3 8ZM34 8L34 9L33 9L33 10L34 10L34 9L35 9L35 10L36 10L36 9L35 9L35 8ZM38 8L38 9L37 9L37 10L38 10L38 9L39 9L39 8ZM6 9L6 10L7 10L7 9ZM50 9L50 10L51 10L51 11L52 11L52 10L51 10L51 9ZM15 10L15 11L14 11L14 12L15 12L15 11L16 11L16 10ZM9 13L9 14L10 14L10 13ZM19 14L19 15L20 15L20 16L19 16L19 17L20 17L20 18L21 18L21 19L20 19L20 20L19 20L19 19L16 19L16 18L18 18L18 16L14 16L14 18L15 18L15 19L16 19L16 20L19 20L19 21L20 21L20 22L19 22L19 23L18 23L18 24L15 24L15 25L16 25L16 26L15 26L15 27L16 27L16 28L19 28L19 30L20 30L20 31L18 31L18 30L17 30L17 31L18 31L18 32L20 32L20 34L21 34L21 36L23 36L23 35L24 35L24 36L25 36L25 35L24 35L24 34L25 34L25 33L26 33L26 32L27 32L27 33L28 33L28 34L27 34L27 35L26 35L26 36L27 36L27 37L30 37L30 38L27 38L27 39L26 39L26 38L25 38L25 39L26 39L26 40L25 40L25 41L26 41L26 40L27 40L27 41L28 41L28 42L30 42L30 44L31 44L31 41L32 41L32 42L33 42L33 43L34 43L34 44L35 44L35 45L36 45L36 44L35 44L35 43L36 43L36 42L37 42L37 43L40 43L40 44L41 44L41 45L42 45L42 44L41 44L41 43L40 43L40 42L41 42L41 41L42 41L42 40L41 40L41 41L40 41L40 40L39 40L39 35L40 35L40 34L41 34L41 33L40 33L40 32L39 32L39 31L40 31L40 30L41 30L41 32L43 32L43 33L44 33L44 32L45 32L45 33L46 33L46 34L47 34L47 33L46 33L46 32L45 32L45 31L43 31L43 30L44 30L44 28L43 28L43 26L44 26L44 24L43 24L43 25L40 25L40 23L39 23L39 21L36 21L36 18L37 18L37 19L38 19L38 18L39 18L39 17L40 17L40 16L37 16L37 17L36 17L36 16L35 16L35 17L34 17L34 16L33 16L33 15L32 15L32 16L33 16L33 17L32 17L32 18L31 18L31 17L28 17L28 18L29 18L29 19L28 19L28 20L27 20L27 19L26 19L26 18L25 18L25 17L24 17L24 16L23 16L23 15L22 15L22 16L23 16L23 17L24 17L24 18L23 18L23 23L21 23L21 22L22 22L22 21L21 21L21 20L22 20L22 18L21 18L21 15L20 15L20 14ZM3 15L3 16L4 16L4 15ZM42 15L42 16L44 16L44 15ZM0 16L0 17L1 17L1 16ZM9 16L9 17L10 17L10 16ZM15 17L15 18L16 18L16 17ZM35 17L35 18L34 18L34 19L33 19L33 18L32 18L32 19L31 19L31 20L30 20L30 19L29 19L29 20L28 20L28 21L27 21L27 22L26 22L26 21L25 21L25 20L26 20L26 19L25 19L25 20L24 20L24 22L26 22L26 23L27 23L27 24L24 24L24 23L23 23L23 24L22 24L22 25L21 25L21 26L20 26L20 24L21 24L21 23L20 23L20 24L18 24L18 25L17 25L17 26L16 26L16 27L19 27L19 28L20 28L20 27L21 27L21 30L22 30L22 31L20 31L20 32L22 32L22 34L23 34L23 32L24 32L24 33L25 33L25 32L26 32L26 31L27 31L27 32L28 32L28 33L30 33L30 32L31 32L31 31L30 31L30 32L28 32L28 31L27 31L27 30L30 30L30 29L31 29L31 30L33 30L33 31L32 31L32 33L31 33L31 34L32 34L32 35L31 35L31 36L30 36L30 34L28 34L28 35L27 35L27 36L28 36L28 35L29 35L29 36L30 36L30 37L31 37L31 38L32 38L32 39L31 39L31 40L32 40L32 41L33 41L33 40L34 40L34 41L35 41L35 42L36 42L36 41L37 41L37 42L38 42L38 41L39 41L39 40L38 40L38 39L37 39L37 38L36 38L36 37L38 37L38 35L37 35L37 34L38 34L38 33L39 33L39 34L40 34L40 33L39 33L39 32L38 32L38 30L37 30L37 29L38 29L38 27L37 27L37 26L38 26L38 25L37 25L37 24L39 24L39 23L38 23L38 22L36 22L36 21L35 21L35 20L34 20L34 19L35 19L35 18L36 18L36 17ZM37 17L37 18L38 18L38 17ZM48 17L48 18L49 18L49 17ZM2 19L2 20L5 20L5 19ZM29 20L29 21L30 21L30 22L29 22L29 27L30 27L30 28L29 28L29 29L30 29L30 28L31 28L31 29L32 29L32 28L34 28L34 27L36 27L36 26L37 26L37 25L36 25L36 24L35 24L35 23L36 23L36 22L35 22L35 21L34 21L34 22L31 22L31 21L32 21L32 20L31 20L31 21L30 21L30 20ZM41 20L41 21L40 21L40 22L41 22L41 23L44 23L44 22L43 22L43 21L42 21L42 20ZM3 21L3 22L1 22L1 23L2 23L2 24L1 24L1 26L2 26L2 24L3 24L3 22L4 22L4 21ZM8 21L8 22L9 22L9 21ZM41 21L41 22L42 22L42 21ZM27 22L27 23L28 23L28 22ZM49 22L49 23L50 23L50 22ZM12 23L12 24L13 24L13 23ZM31 23L31 24L32 24L32 25L31 25L31 26L33 26L33 23ZM23 24L23 25L24 25L24 24ZM34 24L34 25L35 25L35 26L36 26L36 25L35 25L35 24ZM5 25L5 28L8 28L8 25ZM25 25L25 28L28 28L28 25ZM45 25L45 28L48 28L48 25ZM6 26L6 27L7 27L7 26ZM19 26L19 27L20 27L20 26ZM23 26L23 27L22 27L22 28L23 28L23 31L22 31L22 32L23 32L23 31L24 31L24 32L25 32L25 31L26 31L26 30L24 30L24 28L23 28L23 27L24 27L24 26ZM26 26L26 27L27 27L27 26ZM39 26L39 27L40 27L40 28L39 28L39 29L41 29L41 30L42 30L42 29L43 29L43 28L42 28L42 27L40 27L40 26ZM46 26L46 27L47 27L47 26ZM31 27L31 28L32 28L32 27ZM35 28L35 29L34 29L34 31L33 31L33 32L35 32L35 33L32 33L32 34L34 34L34 36L33 36L33 35L32 35L32 36L31 36L31 37L32 37L32 38L33 38L33 37L34 37L34 40L35 40L35 41L36 41L36 40L35 40L35 39L36 39L36 38L35 38L35 37L36 37L36 34L37 34L37 33L38 33L38 32L37 32L37 33L36 33L36 32L35 32L35 31L37 31L37 30L35 30L35 29L36 29L36 28ZM41 28L41 29L42 29L42 28ZM48 29L48 30L47 30L47 31L48 31L48 30L49 30L49 31L50 31L50 30L49 30L49 29ZM7 30L7 31L8 31L8 32L7 32L7 33L5 33L5 35L6 35L6 36L7 36L7 37L9 37L9 34L10 34L10 33L8 33L8 32L9 32L9 30ZM7 33L7 34L6 34L6 35L7 35L7 34L8 34L8 33ZM35 33L35 34L36 34L36 33ZM15 34L15 35L14 35L14 36L15 36L15 35L16 35L16 34ZM51 34L51 35L52 35L52 34ZM0 35L0 36L1 36L1 35ZM17 36L17 38L19 38L19 36ZM32 36L32 37L33 37L33 36ZM41 36L41 37L40 37L40 38L41 38L41 37L42 37L42 36ZM27 39L27 40L28 40L28 41L29 41L29 40L30 40L30 39L29 39L29 40L28 40L28 39ZM49 39L49 40L50 40L50 39ZM14 40L14 41L15 41L15 42L14 42L14 43L15 43L15 44L16 44L16 43L17 43L17 42L18 42L18 41L17 41L17 42L16 42L16 41L15 41L15 40ZM37 40L37 41L38 41L38 40ZM6 41L6 42L8 42L8 41ZM19 41L19 42L20 42L20 41ZM15 42L15 43L16 43L16 42ZM8 43L8 44L9 44L9 43ZM10 44L10 45L11 45L11 46L10 46L10 47L11 47L11 49L10 49L10 50L11 50L11 51L10 51L10 52L12 52L12 47L11 47L11 46L13 46L13 44L12 44L12 45L11 45L11 44ZM25 45L25 48L28 48L28 45ZM45 45L45 48L48 48L48 45ZM26 46L26 47L27 47L27 46ZM46 46L46 47L47 47L47 46ZM50 46L50 47L51 47L51 46ZM37 48L37 49L38 49L38 48ZM41 49L41 50L42 50L42 49ZM0 0L0 7L7 7L7 0ZM1 1L1 6L6 6L6 1ZM2 2L2 5L5 5L5 2ZM46 0L46 7L53 7L53 0ZM47 1L47 6L52 6L52 1ZM48 2L48 5L51 5L51 2ZM0 46L0 53L7 53L7 46ZM1 47L1 52L6 52L6 47ZM2 48L2 51L5 51L5 48Z" fill="#000000"/></g></g></svg>
