<?xml version="1.0" encoding="UTF-8"?>
<svg xmlns="http://www.w3.org/2000/svg" version="1.1" width="150" height="150" viewBox="0 0 150 150"><rect x="0" y="0" width="150" height="150" fill="#ffffff"/><g transform="scale(2.83)"><g transform="translate(0,0)"><path fill-rule="evenodd" d="M16 0L16 1L13 1L13 2L16 2L16 3L15 3L15 4L14 4L14 3L13 3L13 4L11 4L11 5L10 5L10 4L9 4L9 6L8 6L8 8L4 8L4 9L3 9L3 8L0 8L0 10L3 10L3 11L4 11L4 9L5 9L5 10L6 10L6 11L7 11L7 12L5 12L5 13L7 13L7 14L5 14L5 15L3 15L3 14L4 14L4 12L3 12L3 14L2 14L2 15L3 15L3 17L4 17L4 16L5 16L5 19L3 19L3 18L2 18L2 16L1 16L1 15L0 15L0 16L1 16L1 17L0 17L0 19L3 19L3 21L2 21L2 20L1 20L1 21L0 21L0 23L1 23L1 24L0 24L0 25L1 25L1 24L2 24L2 25L3 25L3 24L4 24L4 27L3 27L3 26L1 26L1 27L3 27L3 28L2 28L2 29L3 29L3 30L2 30L2 31L1 31L1 32L0 32L0 35L1 35L1 36L2 36L2 37L1 37L1 38L2 38L2 37L4 37L4 35L1 35L1 33L2 33L2 34L4 34L4 33L2 33L2 32L4 32L4 31L5 31L5 30L4 30L4 29L9 29L9 31L8 31L8 33L13 33L13 34L8 34L8 35L7 35L7 34L6 34L6 35L5 35L5 37L7 37L7 38L5 38L5 39L4 39L4 38L3 38L3 40L2 40L2 42L0 42L0 43L1 43L1 44L3 44L3 45L4 45L4 44L3 44L3 43L9 43L9 44L8 44L8 49L9 49L9 50L8 50L8 53L11 53L11 52L12 52L12 53L15 53L15 52L16 52L16 51L19 51L19 52L18 52L18 53L19 53L19 52L20 52L20 51L21 51L21 52L22 52L22 53L23 53L23 52L24 52L24 53L25 53L25 52L26 52L26 53L27 53L27 52L28 52L28 53L29 53L29 52L30 52L30 53L31 53L31 52L30 52L30 51L29 51L29 50L30 50L30 49L31 49L31 50L32 50L32 53L38 53L38 51L37 51L37 50L38 50L38 49L39 49L39 50L40 50L40 51L39 51L39 52L40 52L40 53L41 53L41 52L42 52L42 53L43 53L43 52L44 52L44 53L45 53L45 52L44 52L44 51L45 51L45 50L46 50L46 51L47 51L47 52L48 52L48 53L49 53L49 52L48 52L48 51L49 51L49 50L50 50L50 49L49 49L49 48L50 48L50 47L51 47L51 48L52 48L52 49L51 49L51 53L53 53L53 52L52 52L52 50L53 50L53 48L52 48L52 47L53 47L53 44L51 44L51 46L50 46L50 44L49 44L49 42L50 42L50 43L51 43L51 42L52 42L52 43L53 43L53 42L52 42L52 41L53 41L53 40L52 40L52 39L53 39L53 37L51 37L51 36L53 36L53 32L52 32L52 31L53 31L53 28L52 28L52 27L53 27L53 24L52 24L52 23L53 23L53 20L52 20L52 19L53 19L53 16L52 16L52 15L53 15L53 12L52 12L52 11L53 11L53 9L51 9L51 8L50 8L50 9L47 9L47 8L45 8L45 9L47 9L47 10L50 10L50 11L47 11L47 12L46 12L46 11L45 11L45 10L43 10L43 11L45 11L45 12L46 12L46 13L45 13L45 14L44 14L44 13L43 13L43 12L42 12L42 11L41 11L41 10L40 10L40 9L41 9L41 8L42 8L42 7L43 7L43 9L44 9L44 7L45 7L45 6L44 6L44 7L43 7L43 3L44 3L44 4L45 4L45 3L44 3L44 1L43 1L43 0L42 0L42 1L41 1L41 2L43 2L43 3L41 3L41 4L38 4L38 3L40 3L40 1L39 1L39 0L38 0L38 1L37 1L37 0L36 0L36 1L35 1L35 0L34 0L34 1L33 1L33 0L29 0L29 2L28 2L28 1L27 1L27 0L26 0L26 1L25 1L25 0L23 0L23 1L21 1L21 0L20 0L20 1L19 1L19 2L20 2L20 4L19 4L19 5L21 5L21 3L23 3L23 5L22 5L22 7L21 7L21 6L20 6L20 7L21 7L21 10L20 10L20 8L18 8L18 9L17 9L17 10L16 10L16 9L15 9L15 8L16 8L16 7L17 7L17 6L18 6L18 7L19 7L19 6L18 6L18 5L17 5L17 4L18 4L18 3L17 3L17 2L18 2L18 0ZM9 1L9 2L8 2L8 3L11 3L11 2L10 2L10 1ZM16 1L16 2L17 2L17 1ZM20 1L20 2L21 2L21 1ZM23 1L23 3L24 3L24 2L25 2L25 3L26 3L26 2L27 2L27 3L28 3L28 4L29 4L29 5L30 5L30 4L29 4L29 3L32 3L32 4L31 4L31 5L33 5L33 7L34 7L34 8L33 8L33 9L32 9L32 10L31 10L31 8L30 8L30 6L29 6L29 11L28 11L28 10L27 10L27 9L26 9L26 10L25 10L25 9L24 9L24 8L23 8L23 7L24 7L24 6L23 6L23 7L22 7L22 8L23 8L23 10L22 10L22 11L23 11L23 14L21 14L21 12L20 12L20 11L18 11L18 10L17 10L17 11L16 11L16 10L13 10L13 11L16 11L16 12L15 12L15 13L16 13L16 14L15 14L15 15L14 15L14 14L13 14L13 15L14 15L14 16L10 16L10 14L12 14L12 13L14 13L14 12L12 12L12 10L10 10L10 12L9 12L9 13L10 13L10 14L7 14L7 15L5 15L5 16L7 16L7 17L6 17L6 18L7 18L7 19L5 19L5 20L4 20L4 21L6 21L6 22L7 22L7 23L6 23L6 24L7 24L7 23L8 23L8 24L9 24L9 25L10 25L10 26L11 26L11 25L10 25L10 24L12 24L12 26L13 26L13 27L14 27L14 28L13 28L13 29L12 29L12 30L11 30L11 28L10 28L10 27L9 27L9 29L10 29L10 31L9 31L9 32L10 32L10 31L12 31L12 30L13 30L13 31L14 31L14 32L13 32L13 33L14 33L14 34L13 34L13 35L12 35L12 36L10 36L10 35L8 35L8 36L7 36L7 35L6 35L6 36L7 36L7 37L8 37L8 39L11 39L11 41L8 41L8 40L7 40L7 39L6 39L6 40L5 40L5 41L6 41L6 42L9 42L9 43L12 43L12 45L13 45L13 44L14 44L14 46L12 46L12 47L11 47L11 45L10 45L10 44L9 44L9 45L10 45L10 47L9 47L9 48L10 48L10 47L11 47L11 48L13 48L13 49L12 49L12 51L13 51L13 52L14 52L14 51L16 51L16 50L17 50L17 49L18 49L18 48L19 48L19 47L20 47L20 50L19 50L19 51L20 51L20 50L21 50L21 49L22 49L22 48L23 48L23 49L24 49L24 50L22 50L22 51L24 51L24 50L25 50L25 51L26 51L26 52L27 52L27 51L28 51L28 50L29 50L29 49L30 49L30 48L32 48L32 46L31 46L31 45L32 45L32 43L31 43L31 41L32 41L32 42L33 42L33 43L34 43L34 44L35 44L35 43L36 43L36 42L37 42L37 43L40 43L40 42L41 42L41 41L42 41L42 44L41 44L41 45L40 45L40 44L39 44L39 45L37 45L37 46L38 46L38 48L37 48L37 49L36 49L36 48L35 48L35 47L36 47L36 45L34 45L34 46L33 46L33 47L34 47L34 48L35 48L35 49L33 49L33 50L34 50L34 51L33 51L33 52L34 52L34 51L35 51L35 52L36 52L36 50L37 50L37 49L38 49L38 48L39 48L39 49L40 49L40 50L41 50L41 51L42 51L42 52L43 52L43 51L44 51L44 50L43 50L43 49L44 49L44 48L41 48L41 49L40 49L40 46L41 46L41 47L43 47L43 46L44 46L44 42L45 42L45 44L46 44L46 42L49 42L49 41L50 41L50 42L51 42L51 41L52 41L52 40L51 40L51 39L52 39L52 38L51 38L51 37L50 37L50 38L49 38L49 36L51 36L51 35L52 35L52 34L51 34L51 33L52 33L52 32L51 32L51 31L52 31L52 30L51 30L51 29L52 29L52 28L51 28L51 27L52 27L52 26L51 26L51 25L52 25L52 24L51 24L51 23L52 23L52 22L51 22L51 21L52 21L52 20L51 20L51 19L52 19L52 18L51 18L51 17L52 17L52 16L51 16L51 15L52 15L52 14L51 14L51 13L52 13L52 12L51 12L51 11L52 11L52 10L51 10L51 9L50 9L50 10L51 10L51 11L50 11L50 12L49 12L49 13L50 13L50 14L47 14L47 13L48 13L48 12L47 12L47 13L46 13L46 15L44 15L44 14L43 14L43 13L42 13L42 12L41 12L41 13L40 13L40 14L41 14L41 18L40 18L40 20L41 20L41 21L40 21L40 22L39 22L39 21L38 21L38 20L39 20L39 19L38 19L38 18L39 18L39 17L40 17L40 16L37 16L37 17L36 17L36 16L35 16L35 15L36 15L36 14L37 14L37 15L39 15L39 13L38 13L38 14L37 14L37 13L36 13L36 10L37 10L37 12L39 12L39 11L40 11L40 10L39 10L39 9L40 9L40 6L41 6L41 7L42 7L42 6L41 6L41 5L40 5L40 6L39 6L39 7L38 7L38 6L37 6L37 7L38 7L38 8L37 8L37 9L36 9L36 8L35 8L35 7L36 7L36 6L35 6L35 7L34 7L34 4L35 4L35 5L37 5L37 1L36 1L36 2L35 2L35 3L34 3L34 2L33 2L33 1L32 1L32 2L29 2L29 3L28 3L28 2L27 2L27 1L26 1L26 2L25 2L25 1ZM32 2L32 3L33 3L33 4L34 4L34 3L33 3L33 2ZM16 3L16 4L15 4L15 5L14 5L14 4L13 4L13 5L12 5L12 6L11 6L11 8L12 8L12 6L13 6L13 7L14 7L14 8L13 8L13 9L14 9L14 8L15 8L15 7L16 7L16 6L17 6L17 5L16 5L16 4L17 4L17 3ZM35 3L35 4L36 4L36 3ZM13 5L13 6L14 6L14 7L15 7L15 6L16 6L16 5L15 5L15 6L14 6L14 5ZM25 5L25 8L28 8L28 5ZM9 6L9 7L10 7L10 6ZM26 6L26 7L27 7L27 6ZM31 6L31 7L32 7L32 6ZM34 8L34 9L33 9L33 10L34 10L34 9L35 9L35 10L36 10L36 9L35 9L35 8ZM38 8L38 9L37 9L37 10L38 10L38 11L39 11L39 10L38 10L38 9L39 9L39 8ZM6 9L6 10L9 10L9 9ZM26 10L26 11L25 11L25 12L26 12L26 11L27 11L27 12L28 12L28 13L27 13L27 14L26 14L26 13L25 13L25 14L26 14L26 15L27 15L27 16L26 16L26 17L25 17L25 18L26 18L26 19L25 19L25 20L24 20L24 21L23 21L23 20L21 20L21 18L22 18L22 19L24 19L24 16L21 16L21 18L20 18L20 17L19 17L19 16L18 16L18 18L16 18L16 17L15 17L15 16L14 16L14 17L12 17L12 19L11 19L11 18L9 18L9 16L8 16L8 15L7 15L7 16L8 16L8 17L7 17L7 18L9 18L9 19L8 19L8 20L6 20L6 21L8 21L8 20L9 20L9 19L10 19L10 21L9 21L9 24L10 24L10 23L12 23L12 22L11 22L11 21L12 21L12 19L13 19L13 20L14 20L14 21L13 21L13 22L14 22L14 23L13 23L13 24L14 24L14 25L13 25L13 26L14 26L14 27L15 27L15 28L14 28L14 29L13 29L13 30L14 30L14 31L15 31L15 32L14 32L14 33L15 33L15 34L14 34L14 35L13 35L13 36L12 36L12 37L11 37L11 38L12 38L12 37L13 37L13 39L12 39L12 41L11 41L11 42L12 42L12 43L14 43L14 44L16 44L16 45L17 45L17 46L16 46L16 47L14 47L14 48L16 48L16 49L13 49L13 51L14 51L14 50L16 50L16 49L17 49L17 48L18 48L18 47L19 47L19 46L20 46L20 47L24 47L24 49L25 49L25 50L26 50L26 49L27 49L27 50L28 50L28 49L29 49L29 48L30 48L30 47L29 47L29 46L30 46L30 45L31 45L31 44L30 44L30 43L29 43L29 44L28 44L28 43L26 43L26 42L28 42L28 41L29 41L29 42L30 42L30 41L29 41L29 40L32 40L32 41L33 41L33 40L34 40L34 41L35 41L35 42L36 42L36 41L37 41L37 42L38 42L38 41L39 41L39 40L40 40L40 41L41 41L41 40L42 40L42 41L43 41L43 42L44 42L44 41L45 41L45 42L46 42L46 41L48 41L48 39L49 39L49 40L50 40L50 39L51 39L51 38L50 38L50 39L49 39L49 38L48 38L48 37L47 37L47 36L49 36L49 34L50 34L50 35L51 35L51 34L50 34L50 33L49 33L49 34L48 34L48 33L47 33L47 32L48 32L48 31L49 31L49 32L50 32L50 31L51 31L51 30L50 30L50 29L49 29L49 28L50 28L50 27L51 27L51 26L50 26L50 25L49 25L49 24L50 24L50 23L51 23L51 22L50 22L50 21L49 21L49 20L50 20L50 19L51 19L51 18L50 18L50 17L49 17L49 16L50 16L50 15L51 15L51 14L50 14L50 15L49 15L49 16L47 16L47 15L46 15L46 16L45 16L45 17L46 17L46 16L47 16L47 18L48 18L48 21L47 21L47 20L46 20L46 19L45 19L45 23L41 23L41 22L42 22L42 21L43 21L43 22L44 22L44 21L43 21L43 20L44 20L44 18L43 18L43 17L42 17L42 18L43 18L43 20L42 20L42 19L41 19L41 20L42 20L42 21L41 21L41 22L40 22L40 25L43 25L43 24L44 24L44 26L43 26L43 28L42 28L42 27L40 27L40 26L39 26L39 28L37 28L37 26L38 26L38 25L37 25L37 24L39 24L39 23L36 23L36 22L37 22L37 20L38 20L38 19L37 19L37 18L38 18L38 17L37 17L37 18L36 18L36 17L35 17L35 16L34 16L34 13L35 13L35 14L36 14L36 13L35 13L35 12L34 12L34 11L33 11L33 12L32 12L32 11L31 11L31 12L30 12L30 11L29 11L29 12L28 12L28 11L27 11L27 10ZM0 11L0 12L1 12L1 13L0 13L0 14L1 14L1 13L2 13L2 11ZM17 11L17 14L16 14L16 16L17 16L17 15L18 15L18 13L20 13L20 12L18 12L18 11ZM7 12L7 13L8 13L8 12ZM29 12L29 13L30 13L30 14L29 14L29 15L28 15L28 14L27 14L27 15L28 15L28 16L27 16L27 17L26 17L26 18L27 18L27 19L26 19L26 20L25 20L25 21L24 21L24 23L22 23L22 24L27 24L27 23L28 23L28 24L29 24L29 25L30 25L30 26L29 26L29 27L30 27L30 28L29 28L29 29L28 29L28 30L27 30L27 31L26 31L26 30L25 30L25 29L24 29L24 28L23 28L23 27L22 27L22 28L23 28L23 30L21 30L21 29L20 29L20 28L21 28L21 27L20 27L20 28L19 28L19 31L18 31L18 30L17 30L17 27L18 27L18 24L16 24L16 22L17 22L17 23L18 23L18 22L17 22L17 20L19 20L19 22L20 22L20 23L21 23L21 22L22 22L22 21L21 21L21 20L19 20L19 19L20 19L20 18L18 18L18 19L16 19L16 18L15 18L15 19L14 19L14 18L13 18L13 19L14 19L14 20L15 20L15 23L14 23L14 24L15 24L15 25L16 25L16 26L15 26L15 27L16 27L16 28L15 28L15 30L17 30L17 31L16 31L16 32L15 32L15 33L16 33L16 34L15 34L15 35L14 35L14 36L13 36L13 37L14 37L14 36L15 36L15 38L14 38L14 39L15 39L15 40L14 40L14 43L17 43L17 44L19 44L19 43L21 43L21 44L20 44L20 46L21 46L21 44L22 44L22 43L24 43L24 44L23 44L23 45L24 45L24 44L25 44L25 43L24 43L24 42L22 42L22 43L21 43L21 40L19 40L19 41L20 41L20 42L18 42L18 40L17 40L17 39L18 39L18 37L17 37L17 36L19 36L19 37L20 37L20 38L19 38L19 39L21 39L21 36L23 36L23 39L22 39L22 40L23 40L23 41L24 41L24 40L23 40L23 39L24 39L24 36L23 36L23 35L24 35L24 32L23 32L23 31L26 31L26 32L25 32L25 33L26 33L26 32L27 32L27 33L28 33L28 34L25 34L25 36L27 36L27 37L28 37L28 38L27 38L27 39L26 39L26 38L25 38L25 39L26 39L26 40L25 40L25 41L26 41L26 40L27 40L27 41L28 41L28 40L29 40L29 39L32 39L32 38L33 38L33 37L34 37L34 40L35 40L35 41L36 41L36 40L35 40L35 39L38 39L38 40L37 40L37 41L38 41L38 40L39 40L39 39L40 39L40 38L41 38L41 39L42 39L42 40L43 40L43 41L44 41L44 40L45 40L45 41L46 41L46 40L45 40L45 39L46 39L46 38L47 38L47 39L48 39L48 38L47 38L47 37L45 37L45 36L46 36L46 34L47 34L47 35L48 35L48 34L47 34L47 33L46 33L46 32L45 32L45 31L44 31L44 32L43 32L43 30L44 30L44 28L43 28L43 29L42 29L42 28L41 28L41 29L40 29L40 28L39 28L39 29L37 29L37 30L36 30L36 29L34 29L34 31L33 31L33 32L35 32L35 33L32 33L32 30L31 30L31 29L32 29L32 27L33 27L33 28L34 28L34 27L36 27L36 26L37 26L37 25L36 25L36 24L35 24L35 21L36 21L36 20L35 20L35 19L36 19L36 18L35 18L35 17L34 17L34 16L33 16L33 15L32 15L32 14L33 14L33 13L32 13L32 12L31 12L31 13L30 13L30 12ZM31 13L31 14L32 14L32 13ZM41 13L41 14L42 14L42 13ZM19 14L19 15L21 15L21 14ZM23 14L23 15L24 15L24 14ZM30 15L30 16L31 16L31 18L32 18L32 19L31 19L31 20L30 20L30 19L29 19L29 18L30 18L30 17L29 17L29 16L28 16L28 17L27 17L27 18L28 18L28 19L27 19L27 20L28 20L28 21L27 21L27 22L28 22L28 23L29 23L29 24L30 24L30 25L31 25L31 26L30 26L30 27L31 27L31 26L33 26L33 22L34 22L34 19L35 19L35 18L34 18L34 19L33 19L33 18L32 18L32 17L33 17L33 16L32 16L32 15ZM42 15L42 16L44 16L44 15ZM48 17L48 18L49 18L49 19L50 19L50 18L49 18L49 17ZM15 19L15 20L16 20L16 19ZM28 19L28 20L29 20L29 21L30 21L30 22L29 22L29 23L30 23L30 24L31 24L31 25L32 25L32 24L31 24L31 21L32 21L32 22L33 22L33 21L32 21L32 20L31 20L31 21L30 21L30 20L29 20L29 19ZM46 21L46 23L45 23L45 24L46 24L46 23L48 23L48 22L49 22L49 23L50 23L50 22L49 22L49 21L48 21L48 22L47 22L47 21ZM1 22L1 23L3 23L3 22ZM4 22L4 24L5 24L5 22ZM20 24L20 26L21 26L21 24ZM34 24L34 25L35 25L35 26L36 26L36 25L35 25L35 24ZM5 25L5 28L8 28L8 25ZM25 25L25 28L28 28L28 25ZM45 25L45 28L48 28L48 25ZM6 26L6 27L7 27L7 26ZM16 26L16 27L17 27L17 26ZM26 26L26 27L27 27L27 26ZM46 26L46 27L47 27L47 26ZM49 26L49 27L50 27L50 26ZM0 28L0 30L1 30L1 28ZM3 28L3 29L4 29L4 28ZM30 28L30 29L29 29L29 30L30 30L30 29L31 29L31 28ZM39 29L39 30L40 30L40 31L39 31L39 32L38 32L38 31L36 31L36 30L35 30L35 32L36 32L36 33L35 33L35 34L36 34L36 35L35 35L35 36L34 36L34 34L32 34L32 33L31 33L31 34L30 34L30 33L29 33L29 32L31 32L31 31L29 31L29 32L28 32L28 31L27 31L27 32L28 32L28 33L29 33L29 34L30 34L30 35L29 35L29 36L28 36L28 35L27 35L27 36L28 36L28 37L29 37L29 38L30 38L30 37L31 37L31 38L32 38L32 37L33 37L33 36L34 36L34 37L39 37L39 38L40 38L40 37L41 37L41 38L42 38L42 37L43 37L43 36L42 36L42 35L41 35L41 34L42 34L42 33L43 33L43 32L41 32L41 30L42 30L42 29L41 29L41 30L40 30L40 29ZM48 29L48 30L47 30L47 31L48 31L48 30L49 30L49 31L50 31L50 30L49 30L49 29ZM3 30L3 31L4 31L4 30ZM6 30L6 31L7 31L7 30ZM20 30L20 31L19 31L19 32L18 32L18 31L17 31L17 32L18 32L18 35L19 35L19 36L20 36L20 35L21 35L21 34L20 34L20 31L21 31L21 30ZM5 32L5 33L7 33L7 32ZM21 32L21 33L22 33L22 34L23 34L23 32ZM37 32L37 33L36 33L36 34L37 34L37 36L38 36L38 35L40 35L40 34L41 34L41 33L40 33L40 32L39 32L39 33L38 33L38 32ZM44 32L44 33L45 33L45 34L43 34L43 35L44 35L44 36L45 36L45 34L46 34L46 33L45 33L45 32ZM37 33L37 34L38 34L38 33ZM39 33L39 34L40 34L40 33ZM19 34L19 35L20 35L20 34ZM31 34L31 35L30 35L30 36L29 36L29 37L30 37L30 36L31 36L31 37L32 37L32 34ZM15 35L15 36L17 36L17 35ZM8 36L8 37L9 37L9 38L10 38L10 36ZM39 36L39 37L40 37L40 36ZM41 36L41 37L42 37L42 36ZM44 37L44 38L43 38L43 40L44 40L44 39L45 39L45 37ZM27 39L27 40L28 40L28 39ZM6 40L6 41L7 41L7 40ZM16 40L16 41L15 41L15 42L16 42L16 41L17 41L17 40ZM12 41L12 42L13 42L13 41ZM2 42L2 43L3 43L3 42ZM6 44L6 45L7 45L7 44ZM29 44L29 45L30 45L30 44ZM42 44L42 45L41 45L41 46L42 46L42 45L43 45L43 44ZM25 45L25 48L28 48L28 45ZM39 45L39 46L40 46L40 45ZM45 45L45 48L48 48L48 45ZM26 46L26 47L27 47L27 46ZM46 46L46 47L47 47L47 46ZM49 46L49 47L50 47L50 46ZM51 46L51 47L52 47L52 46ZM16 47L16 48L17 48L17 47ZM35 49L35 50L36 50L36 49ZM41 49L41 50L42 50L42 49ZM46 49L46 50L47 50L47 51L48 51L48 50L47 50L47 49ZM10 50L10 51L9 51L9 52L10 52L10 51L11 51L11 50ZM0 0L0 7L7 7L7 0ZM1 1L1 6L6 6L6 1ZM2 2L2 5L5 5L5 2ZM46 0L46 7L53 7L53 0ZM47 1L47 6L52 6L52 1ZM48 2L48 5L51 5L51 2ZM0 46L0 53L7 53L7 46ZM1 47L1 52L6 52L6 47ZM2 48L2 51L5 51L5 48Z" fill="#000000"/></g></g></svg>
