<?xml version="1.0" encoding="UTF-8"?>
<svg xmlns="http://www.w3.org/2000/svg" version="1.1" width="150" height="150" viewBox="0 0 150 150"><rect x="0" y="0" width="150" height="150" fill="#ffffff"/><g transform="scale(2.83)"><g transform="translate(0,0)"><path fill-rule="evenodd" d="M8 0L8 1L9 1L9 2L8 2L8 5L9 5L9 6L8 6L8 7L9 7L9 8L8 8L8 9L7 9L7 8L6 8L6 9L7 9L7 10L6 10L6 11L8 11L8 13L9 13L9 14L6 14L6 15L7 15L7 16L6 16L6 17L7 17L7 18L6 18L6 19L7 19L7 18L8 18L8 19L9 19L9 20L10 20L10 22L9 22L9 21L8 21L8 20L6 20L6 21L7 21L7 22L5 22L5 21L4 21L4 18L5 18L5 13L4 13L4 11L5 11L5 10L4 10L4 11L3 11L3 10L2 10L2 11L1 11L1 12L0 12L0 13L2 13L2 12L3 12L3 14L2 14L2 15L3 15L3 14L4 14L4 18L3 18L3 19L1 19L1 18L2 18L2 17L3 17L3 16L2 16L2 17L1 17L1 16L0 16L0 19L1 19L1 20L0 20L0 21L2 21L2 22L0 22L0 23L1 23L1 24L0 24L0 25L3 25L3 26L4 26L4 29L2 29L2 28L3 28L3 27L2 27L2 26L1 26L1 27L0 27L0 30L1 30L1 29L2 29L2 31L1 31L1 32L0 32L0 34L1 34L1 33L2 33L2 34L3 34L3 36L5 36L5 37L4 37L4 38L1 38L1 40L2 40L2 41L0 41L0 43L1 43L1 44L3 44L3 45L4 45L4 44L3 44L3 43L7 43L7 44L6 44L6 45L8 45L8 46L9 46L9 45L10 45L10 44L11 44L11 43L10 43L10 42L12 42L12 44L13 44L13 43L16 43L16 44L17 44L17 45L18 45L18 44L19 44L19 46L20 46L20 47L21 47L21 46L23 46L23 44L24 44L24 47L22 47L22 48L20 48L20 50L18 50L18 49L19 49L19 48L18 48L18 49L17 49L17 50L18 50L18 51L15 51L15 49L16 49L16 48L17 48L17 47L18 47L18 46L17 46L17 47L16 47L16 46L14 46L14 47L12 47L12 46L13 46L13 45L11 45L11 48L10 48L10 47L9 47L9 48L10 48L10 50L12 50L12 51L15 51L15 52L16 52L16 53L17 53L17 52L19 52L19 53L20 53L20 52L21 52L21 53L22 53L22 52L21 52L21 50L22 50L22 51L24 51L24 49L25 49L25 51L27 51L27 52L26 52L26 53L27 53L27 52L29 52L29 53L30 53L30 52L32 52L32 53L33 53L33 52L34 52L34 53L35 53L35 52L34 52L34 49L33 49L33 51L32 51L32 50L30 50L30 49L32 49L32 48L33 48L33 47L34 47L34 48L35 48L35 47L36 47L36 49L35 49L35 50L36 50L36 49L37 49L37 48L38 48L38 45L39 45L39 46L40 46L40 45L41 45L41 44L42 44L42 42L41 42L41 41L42 41L42 40L43 40L43 38L44 38L44 37L45 37L45 38L46 38L46 39L45 39L45 40L44 40L44 41L45 41L45 40L47 40L47 41L46 41L46 42L45 42L45 43L46 43L46 44L44 44L44 42L43 42L43 45L42 45L42 46L41 46L41 47L42 47L42 48L44 48L44 50L42 50L42 49L41 49L41 50L40 50L40 51L39 51L39 49L40 49L40 47L39 47L39 49L38 49L38 50L37 50L37 51L39 51L39 52L41 52L41 53L42 53L42 52L43 52L43 51L44 51L44 50L45 50L45 49L47 49L47 50L46 50L46 51L47 51L47 50L49 50L49 48L50 48L50 49L52 49L52 50L51 50L51 53L52 53L52 50L53 50L53 49L52 49L52 48L53 48L53 47L52 47L52 48L50 48L50 47L51 47L51 46L53 46L53 44L51 44L51 43L52 43L52 42L53 42L53 41L52 41L52 42L50 42L50 41L49 41L49 39L50 39L50 38L51 38L51 37L52 37L52 39L51 39L51 40L52 40L52 39L53 39L53 36L49 36L49 37L50 37L50 38L49 38L49 39L48 39L48 40L47 40L47 38L48 38L48 37L47 37L47 38L46 38L46 37L45 37L45 36L46 36L46 35L45 35L45 34L46 34L46 33L48 33L48 34L47 34L47 35L48 35L48 34L49 34L49 33L51 33L51 34L50 34L50 35L51 35L51 34L53 34L53 32L52 32L52 33L51 33L51 31L52 31L52 30L51 30L51 31L50 31L50 32L48 32L48 31L49 31L49 30L50 30L50 29L51 29L51 28L52 28L52 27L53 27L53 25L52 25L52 24L53 24L53 23L52 23L52 24L50 24L50 23L51 23L51 22L53 22L53 20L52 20L52 21L51 21L51 19L52 19L52 18L51 18L51 19L50 19L50 20L49 20L49 18L50 18L50 17L49 17L49 18L48 18L48 19L47 19L47 16L49 16L49 15L50 15L50 14L51 14L51 13L52 13L52 15L51 15L51 16L52 16L52 15L53 15L53 13L52 13L52 12L53 12L53 11L52 11L52 12L50 12L50 11L51 11L51 10L53 10L53 8L52 8L52 9L51 9L51 8L48 8L48 9L51 9L51 10L50 10L50 11L49 11L49 10L46 10L46 12L48 12L48 13L47 13L47 14L48 14L48 13L49 13L49 12L50 12L50 14L49 14L49 15L46 15L46 14L45 14L45 12L44 12L44 14L42 14L42 13L43 13L43 12L42 12L42 13L41 13L41 14L40 14L40 13L37 13L37 12L38 12L38 11L39 11L39 12L40 12L40 11L39 11L39 10L40 10L40 9L41 9L41 11L45 11L45 10L44 10L44 9L46 9L46 8L45 8L45 6L44 6L44 9L43 9L43 8L42 8L42 7L43 7L43 3L44 3L44 4L45 4L45 3L44 3L44 1L43 1L43 0L42 0L42 1L41 1L41 0L40 0L40 1L41 1L41 2L43 2L43 3L42 3L42 7L41 7L41 5L39 5L39 4L38 4L38 3L37 3L37 2L36 2L36 1L37 1L37 0L36 0L36 1L34 1L34 0L33 0L33 1L32 1L32 0L27 0L27 1L26 1L26 2L27 2L27 1L29 1L29 2L28 2L28 3L27 3L27 4L25 4L25 2L24 2L24 1L25 1L25 0L21 0L21 1L19 1L19 3L17 3L17 2L18 2L18 1L17 1L17 2L16 2L16 3L15 3L15 2L13 2L13 0L12 0L12 1L9 1L9 0ZM14 0L14 1L16 1L16 0ZM22 1L22 2L20 2L20 3L19 3L19 4L18 4L18 5L20 5L20 3L21 3L21 7L20 7L20 6L19 6L19 7L18 7L18 6L17 6L17 3L16 3L16 4L15 4L15 3L13 3L13 2L12 2L12 3L10 3L10 2L9 2L9 5L10 5L10 6L9 6L9 7L10 7L10 6L11 6L11 8L9 8L9 9L8 9L8 10L10 10L10 11L11 11L11 12L12 12L12 14L14 14L14 15L13 15L13 16L12 16L12 15L11 15L11 14L10 14L10 15L8 15L8 16L9 16L9 18L10 18L10 15L11 15L11 16L12 16L12 17L11 17L11 18L12 18L12 17L14 17L14 16L15 16L15 18L13 18L13 19L11 19L11 20L14 20L14 21L13 21L13 22L12 22L12 21L11 21L11 23L9 23L9 22L7 22L7 23L6 23L6 24L8 24L8 23L9 23L9 24L10 24L10 25L9 25L9 29L10 29L10 27L11 27L11 30L12 30L12 31L11 31L11 32L10 32L10 31L9 31L9 30L8 30L8 32L10 32L10 33L11 33L11 35L12 35L12 34L13 34L13 35L14 35L14 36L13 36L13 37L12 37L12 36L9 36L9 33L8 33L8 34L7 34L7 33L5 33L5 31L2 31L2 33L3 33L3 34L4 34L4 35L5 35L5 36L7 36L7 35L8 35L8 36L9 36L9 37L8 37L8 38L7 38L7 37L5 37L5 38L7 38L7 39L2 39L2 40L4 40L4 42L5 42L5 40L7 40L7 39L8 39L8 40L10 40L10 41L9 41L9 42L8 42L8 41L6 41L6 42L7 42L7 43L9 43L9 44L10 44L10 43L9 43L9 42L10 42L10 41L12 41L12 42L16 42L16 40L18 40L18 41L17 41L17 42L18 42L18 43L19 43L19 44L20 44L20 43L21 43L21 44L22 44L22 42L23 42L23 43L24 43L24 44L26 44L26 43L27 43L27 44L29 44L29 46L30 46L30 45L31 45L31 47L30 47L30 48L29 48L29 49L27 49L27 51L28 51L28 50L29 50L29 52L30 52L30 50L29 50L29 49L30 49L30 48L32 48L32 46L33 46L33 41L35 41L35 43L36 43L36 42L37 42L37 44L36 44L36 45L38 45L38 42L39 42L39 41L41 41L41 40L42 40L42 38L43 38L43 37L44 37L44 35L41 35L41 34L42 34L42 33L43 33L43 30L44 30L44 31L45 31L45 32L44 32L44 34L45 34L45 33L46 33L46 31L48 31L48 30L49 30L49 29L45 29L45 30L44 30L44 26L43 26L43 25L44 25L44 24L45 24L45 23L44 23L44 22L45 22L45 21L43 21L43 20L44 20L44 19L43 19L43 18L45 18L45 16L46 16L46 15L45 15L45 14L44 14L44 15L42 15L42 14L41 14L41 15L42 15L42 16L43 16L43 18L41 18L41 16L38 16L38 15L36 15L36 14L35 14L35 13L36 13L36 11L38 11L38 10L39 10L39 9L40 9L40 8L38 8L38 6L37 6L37 5L38 5L38 4L36 4L36 3L34 3L34 1L33 1L33 3L31 3L31 2L32 2L32 1L31 1L31 2L29 2L29 3L28 3L28 4L30 4L30 5L29 5L29 9L31 9L31 10L33 10L33 11L32 11L32 12L31 12L31 11L29 11L29 10L27 10L27 9L25 9L25 11L24 11L24 12L25 12L25 13L24 13L24 14L23 14L23 15L22 15L22 17L21 17L21 14L20 14L20 13L19 13L19 14L17 14L17 12L19 12L19 11L20 11L20 12L21 12L21 13L23 13L23 12L21 12L21 11L20 11L20 10L21 10L21 9L20 9L20 8L21 8L21 7L22 7L22 8L23 8L23 10L22 10L22 11L23 11L23 10L24 10L24 8L23 8L23 7L24 7L24 3L22 3L22 2L23 2L23 1ZM30 3L30 4L31 4L31 3ZM10 4L10 5L12 5L12 9L14 9L14 11L13 11L13 10L12 10L12 12L14 12L14 11L15 11L15 10L16 10L16 9L14 9L14 8L15 8L15 6L14 6L14 5L12 5L12 4ZM22 4L22 5L23 5L23 4ZM35 4L35 5L36 5L36 4ZM25 5L25 8L28 8L28 5ZM30 5L30 8L31 8L31 6L32 6L32 7L33 7L33 6L34 6L34 7L35 7L35 8L34 8L34 9L33 9L33 10L34 10L34 13L35 13L35 11L36 11L36 10L37 10L37 9L38 9L38 8L37 8L37 6L36 6L36 7L35 7L35 6L34 6L34 5ZM13 6L13 8L14 8L14 6ZM16 6L16 8L17 8L17 6ZM22 6L22 7L23 7L23 6ZM26 6L26 7L27 7L27 6ZM39 6L39 7L40 7L40 6ZM0 8L0 9L4 9L4 8ZM35 8L35 9L34 9L34 10L36 10L36 9L37 9L37 8ZM41 8L41 9L42 9L42 8ZM10 9L10 10L11 10L11 9ZM17 9L17 10L18 10L18 9ZM26 10L26 11L25 11L25 12L26 12L26 13L25 13L25 14L24 14L24 16L23 16L23 17L24 17L24 16L26 16L26 15L27 15L27 16L28 16L28 15L29 15L29 14L30 14L30 15L33 15L33 16L31 16L31 18L32 18L32 17L33 17L33 19L32 19L32 20L31 20L31 21L30 21L30 22L29 22L29 20L30 20L30 19L29 19L29 20L28 20L28 21L27 21L27 19L28 19L28 18L27 18L27 19L26 19L26 20L24 20L24 21L23 21L23 19L22 19L22 18L21 18L21 20L20 20L20 16L19 16L19 17L18 17L18 16L16 16L16 15L17 15L17 14L16 14L16 15L15 15L15 16L16 16L16 18L15 18L15 19L14 19L14 20L15 20L15 19L16 19L16 18L19 18L19 21L22 21L22 23L20 23L20 26L19 26L19 24L18 24L18 26L19 26L19 27L17 27L17 26L16 26L16 27L15 27L15 28L14 28L14 29L13 29L13 27L14 27L14 26L15 26L15 25L17 25L17 24L16 24L16 23L18 23L18 22L16 22L16 21L14 21L14 23L12 23L12 25L13 25L13 24L14 24L14 23L15 23L15 25L14 25L14 26L13 26L13 27L12 27L12 26L11 26L11 27L12 27L12 30L13 30L13 31L15 31L15 30L17 30L17 28L19 28L19 27L20 27L20 28L21 28L21 29L22 29L22 27L23 27L23 26L24 26L24 29L23 29L23 30L24 30L24 31L23 31L23 32L20 32L20 31L21 31L21 30L19 30L19 29L18 29L18 31L16 31L16 32L20 32L20 33L21 33L21 34L18 34L18 33L17 33L17 34L18 34L18 35L16 35L16 36L15 36L15 38L16 38L16 39L18 39L18 40L19 40L19 41L18 41L18 42L20 42L20 40L21 40L21 39L23 39L23 37L22 37L22 38L21 38L21 36L23 36L23 35L24 35L24 34L25 34L25 36L24 36L24 37L25 37L25 36L27 36L27 37L28 37L28 38L30 38L30 40L29 40L29 41L28 41L28 42L27 42L27 40L28 40L28 39L27 39L27 40L26 40L26 41L25 41L25 42L24 42L24 40L23 40L23 42L24 42L24 43L25 43L25 42L27 42L27 43L28 43L28 42L29 42L29 44L30 44L30 41L31 41L31 45L32 45L32 41L33 41L33 40L34 40L34 39L32 39L32 38L30 38L30 37L31 37L31 36L30 36L30 37L29 37L29 35L28 35L28 36L27 36L27 35L26 35L26 34L28 34L28 33L29 33L29 34L30 34L30 35L31 35L31 33L32 33L32 29L33 29L33 28L34 28L34 27L33 27L33 26L34 26L34 24L35 24L35 23L36 23L36 25L35 25L35 26L36 26L36 25L37 25L37 24L38 24L38 26L37 26L37 29L36 29L36 28L35 28L35 29L34 29L34 31L33 31L33 33L35 33L35 32L37 32L37 33L36 33L36 34L32 34L32 36L33 36L33 35L34 35L34 36L35 36L35 37L36 37L36 38L35 38L35 39L37 39L37 38L38 38L38 39L39 39L39 40L38 40L38 41L37 41L37 42L38 42L38 41L39 41L39 40L41 40L41 38L42 38L42 37L43 37L43 36L42 36L42 37L41 37L41 38L40 38L40 39L39 39L39 37L40 37L40 36L39 36L39 35L36 35L36 34L37 34L37 33L38 33L38 32L39 32L39 31L40 31L40 33L39 33L39 34L40 34L40 33L42 33L42 32L41 32L41 31L40 31L40 30L41 30L41 29L42 29L42 28L43 28L43 26L42 26L42 28L41 28L41 29L40 29L40 21L41 21L41 20L42 20L42 19L41 19L41 18L40 18L40 20L39 20L39 19L37 19L37 18L38 18L38 17L37 17L37 18L36 18L36 20L39 20L39 23L36 23L36 22L38 22L38 21L36 21L36 22L34 22L34 21L35 21L35 19L34 19L34 18L35 18L35 17L36 17L36 16L35 16L35 17L33 17L33 16L34 16L34 15L33 15L33 14L30 14L30 13L31 13L31 12L30 12L30 13L28 13L28 12L29 12L29 11L28 11L28 12L26 12L26 11L27 11L27 10ZM16 11L16 12L15 12L15 13L16 13L16 12L17 12L17 11ZM6 12L6 13L7 13L7 12ZM27 13L27 15L28 15L28 13ZM0 14L0 15L1 15L1 14ZM19 14L19 15L20 15L20 14ZM39 14L39 15L40 15L40 14ZM25 17L25 18L26 18L26 17ZM29 17L29 18L30 18L30 17ZM46 19L46 20L47 20L47 21L46 21L46 22L49 22L49 23L50 23L50 22L51 22L51 21L49 21L49 20L47 20L47 19ZM2 20L2 21L3 21L3 22L4 22L4 24L3 24L3 23L2 23L2 24L3 24L3 25L4 25L4 24L5 24L5 22L4 22L4 21L3 21L3 20ZM17 20L17 21L18 21L18 20ZM32 20L32 21L31 21L31 23L30 23L30 24L29 24L29 22L27 22L27 23L23 23L23 24L21 24L21 25L24 25L24 24L29 24L29 28L30 28L30 29L27 29L27 30L25 30L25 31L24 31L24 32L23 32L23 33L25 33L25 34L26 34L26 33L28 33L28 32L30 32L30 31L31 31L31 29L32 29L32 27L31 27L31 28L30 28L30 26L33 26L33 24L31 24L31 23L32 23L32 22L33 22L33 20ZM25 21L25 22L26 22L26 21ZM42 21L42 22L41 22L41 23L42 23L42 24L41 24L41 25L43 25L43 24L44 24L44 23L43 23L43 21ZM46 23L46 24L48 24L48 23ZM49 24L49 26L50 26L50 28L51 28L51 27L52 27L52 25L51 25L51 26L50 26L50 24ZM5 25L5 28L8 28L8 25ZM25 25L25 28L28 28L28 25ZM45 25L45 28L48 28L48 25ZM6 26L6 27L7 27L7 26ZM20 26L20 27L21 27L21 26ZM26 26L26 27L27 27L27 26ZM46 26L46 27L47 27L47 26ZM16 27L16 28L15 28L15 29L16 29L16 28L17 28L17 27ZM4 29L4 30L5 30L5 29ZM6 29L6 30L7 30L7 29ZM35 29L35 30L36 30L36 31L37 31L37 32L38 32L38 30L40 30L40 29L37 29L37 30L36 30L36 29ZM27 30L27 31L26 31L26 32L25 32L25 33L26 33L26 32L27 32L27 31L29 31L29 30ZM6 31L6 32L7 32L7 31ZM34 31L34 32L35 32L35 31ZM3 32L3 33L4 33L4 32ZM14 32L14 33L15 33L15 34L14 34L14 35L15 35L15 34L16 34L16 33L15 33L15 32ZM6 34L6 35L7 35L7 34ZM21 34L21 35L20 35L20 36L19 36L19 35L18 35L18 36L19 36L19 37L20 37L20 36L21 36L21 35L22 35L22 34ZM0 35L0 36L1 36L1 35ZM35 35L35 36L36 36L36 35ZM38 36L38 37L39 37L39 36ZM11 37L11 38L12 38L12 39L11 39L11 40L14 40L14 41L15 41L15 40L14 40L14 38L12 38L12 37ZM16 37L16 38L17 38L17 37ZM9 38L9 39L10 39L10 38ZM18 38L18 39L19 39L19 40L20 40L20 39L21 39L21 38ZM24 38L24 39L26 39L26 38ZM31 39L31 41L32 41L32 39ZM35 40L35 41L36 41L36 40ZM47 41L47 42L46 42L46 43L48 43L48 42L49 42L49 43L50 43L50 42L49 42L49 41ZM2 42L2 43L3 43L3 42ZM40 42L40 43L39 43L39 45L40 45L40 43L41 43L41 42ZM14 44L14 45L15 45L15 44ZM20 45L20 46L21 46L21 45ZM25 45L25 48L28 48L28 45ZM34 45L34 46L35 46L35 45ZM45 45L45 48L48 48L48 45ZM49 45L49 47L50 47L50 46L51 46L51 45ZM26 46L26 47L27 47L27 46ZM46 46L46 47L47 47L47 46ZM15 47L15 48L16 48L16 47ZM13 48L13 49L12 49L12 50L14 50L14 48ZM22 48L22 49L24 49L24 48ZM8 49L8 53L9 53L9 52L10 52L10 53L12 53L12 52L10 52L10 51L9 51L9 49ZM41 50L41 52L42 52L42 50ZM19 51L19 52L20 52L20 51ZM48 51L48 52L46 52L46 53L48 53L48 52L49 52L49 53L50 53L50 51ZM23 52L23 53L24 53L24 52ZM37 52L37 53L38 53L38 52ZM44 52L44 53L45 53L45 52ZM0 0L0 7L7 7L7 0ZM1 1L1 6L6 6L6 1ZM2 2L2 5L5 5L5 2ZM46 0L46 7L53 7L53 0ZM47 1L47 6L52 6L52 1ZM48 2L48 5L51 5L51 2ZM0 46L0 53L7 53L7 46ZM1 47L1 52L6 52L6 47ZM2 48L2 51L5 51L5 48Z" fill="#000000"/></g></g></svg>
