<?xml version="1.0" encoding="UTF-8"?>
<svg xmlns="http://www.w3.org/2000/svg" version="1.1" width="150" height="150" viewBox="0 0 150 150"><rect x="0" y="0" width="150" height="150" fill="#ffffff"/><g transform="scale(2.83)"><g transform="translate(0,0)"><path fill-rule="evenodd" d="M12 0L12 1L11 1L11 2L12 2L12 3L15 3L15 5L14 5L14 4L13 4L13 5L12 5L12 4L9 4L9 5L10 5L10 7L11 7L11 8L10 8L10 9L9 9L9 6L8 6L8 8L4 8L4 10L5 10L5 11L7 11L7 12L6 12L6 13L7 13L7 12L8 12L8 13L9 13L9 15L8 15L8 14L6 14L6 15L7 15L7 16L5 16L5 18L6 18L6 19L7 19L7 20L6 20L6 21L7 21L7 22L6 22L6 23L8 23L8 24L4 24L4 25L3 25L3 24L2 24L2 28L1 28L1 27L0 27L0 30L1 30L1 31L0 31L0 32L1 32L1 33L0 33L0 34L2 34L2 33L3 33L3 34L5 34L5 35L7 35L7 34L8 34L8 36L9 36L9 34L10 34L10 35L11 35L11 36L10 36L10 37L9 37L9 38L10 38L10 39L9 39L9 40L8 40L8 37L7 37L7 36L6 36L6 37L7 37L7 38L4 38L4 39L3 39L3 38L1 38L1 37L2 37L2 36L3 36L3 37L5 37L5 36L3 36L3 35L2 35L2 36L1 36L1 37L0 37L0 38L1 38L1 41L4 41L4 39L5 39L5 41L7 41L7 42L3 42L3 43L2 43L2 42L0 42L0 43L1 43L1 44L3 44L3 45L4 45L4 44L3 44L3 43L7 43L7 44L6 44L6 45L7 45L7 44L8 44L8 49L9 49L9 50L8 50L8 53L9 53L9 52L10 52L10 51L11 51L11 53L15 53L15 52L16 52L16 51L17 51L17 52L18 52L18 53L20 53L20 51L21 51L21 52L22 52L22 53L29 53L29 50L30 50L30 49L31 49L31 50L32 50L32 51L30 51L30 53L31 53L31 52L32 52L32 53L33 53L33 52L34 52L34 53L35 53L35 52L34 52L34 50L33 50L33 49L35 49L35 50L36 50L36 53L37 53L37 52L38 52L38 51L37 51L37 50L38 50L38 49L39 49L39 50L40 50L40 51L39 51L39 53L42 53L42 52L43 52L43 53L45 53L45 52L44 52L44 51L45 51L45 50L46 50L46 51L47 51L47 52L48 52L48 53L49 53L49 52L50 52L50 51L51 51L51 53L53 53L53 52L52 52L52 50L50 50L50 49L49 49L49 48L50 48L50 47L51 47L51 46L50 46L50 45L49 45L49 44L50 44L50 43L51 43L51 42L52 42L52 43L53 43L53 42L52 42L52 41L53 41L53 40L51 40L51 42L50 42L50 41L49 41L49 42L48 42L48 41L47 41L47 40L48 40L48 39L49 39L49 40L50 40L50 39L51 39L51 38L50 38L50 37L49 37L49 38L48 38L48 37L47 37L47 36L48 36L48 35L49 35L49 36L50 36L50 35L51 35L51 36L53 36L53 32L52 32L52 31L53 31L53 28L52 28L52 27L53 27L53 24L52 24L52 23L53 23L53 20L52 20L52 19L53 19L53 16L52 16L52 15L53 15L53 14L52 14L52 13L53 13L53 12L52 12L52 11L53 11L53 9L51 9L51 8L50 8L50 9L47 9L47 8L45 8L45 9L47 9L47 10L52 10L52 11L51 11L51 12L50 12L50 11L47 11L47 12L46 12L46 11L45 11L45 10L43 10L43 11L42 11L42 12L41 12L41 10L40 10L40 9L41 9L41 8L42 8L42 7L43 7L43 3L44 3L44 4L45 4L45 3L44 3L44 1L43 1L43 0L42 0L42 2L43 2L43 3L42 3L42 4L41 4L41 6L40 6L40 5L39 5L39 4L40 4L40 3L39 3L39 4L38 4L38 7L37 7L37 6L36 6L36 5L37 5L37 4L36 4L36 3L35 3L35 2L36 2L36 1L37 1L37 3L38 3L38 2L40 2L40 0L38 0L38 1L37 1L37 0L36 0L36 1L35 1L35 0L34 0L34 1L33 1L33 0L32 0L32 1L31 1L31 0L30 0L30 1L29 1L29 2L28 2L28 1L27 1L27 0L24 0L24 1L23 1L23 2L22 2L22 3L23 3L23 2L24 2L24 4L23 4L23 6L22 6L22 5L21 5L21 2L20 2L20 1L22 1L22 0L20 0L20 1L19 1L19 2L18 2L18 1L17 1L17 0L16 0L16 1L17 1L17 2L16 2L16 3L15 3L15 0ZM12 1L12 2L13 2L13 1ZM25 1L25 3L26 3L26 2L27 2L27 3L28 3L28 4L29 4L29 3L30 3L30 4L31 4L31 7L32 7L32 5L34 5L34 4L35 4L35 5L36 5L36 4L35 4L35 3L34 3L34 2L33 2L33 1L32 1L32 2L31 2L31 1L30 1L30 2L29 2L29 3L28 3L28 2L27 2L27 1ZM8 2L8 3L10 3L10 2ZM17 2L17 3L18 3L18 4L17 4L17 5L18 5L18 6L17 6L17 7L16 7L16 6L15 6L15 7L16 7L16 8L14 8L14 10L13 10L13 9L12 9L12 10L11 10L11 11L8 11L8 12L11 12L11 13L10 13L10 14L11 14L11 13L12 13L12 15L11 15L11 16L9 16L9 18L10 18L10 20L9 20L9 19L8 19L8 20L9 20L9 21L8 21L8 23L9 23L9 24L11 24L11 25L9 25L9 27L10 27L10 28L9 28L9 29L10 29L10 28L11 28L11 30L13 30L13 31L12 31L12 32L11 32L11 34L12 34L12 35L14 35L14 36L13 36L13 37L12 37L12 36L11 36L11 37L12 37L12 38L14 38L14 39L16 39L16 40L14 40L14 42L13 42L13 43L12 43L12 41L13 41L13 39L12 39L12 40L10 40L10 41L8 41L8 42L7 42L7 43L9 43L9 42L10 42L10 43L11 43L11 44L10 44L10 45L9 45L9 46L10 46L10 45L11 45L11 46L12 46L12 47L10 47L10 48L12 48L12 49L10 49L10 50L12 50L12 52L13 52L13 50L15 50L15 47L16 47L16 48L17 48L17 47L16 47L16 46L17 46L17 45L18 45L18 44L19 44L19 43L20 43L20 46L21 46L21 47L20 47L20 48L18 48L18 50L17 50L17 49L16 49L16 50L17 50L17 51L18 51L18 52L19 52L19 51L20 51L20 50L21 50L21 51L22 51L22 52L24 52L24 51L22 51L22 50L21 50L21 49L22 49L22 48L21 48L21 47L23 47L23 46L21 46L21 45L22 45L22 44L21 44L21 43L23 43L23 45L24 45L24 44L27 44L27 43L28 43L28 44L29 44L29 43L30 43L30 44L31 44L31 45L29 45L29 47L30 47L30 48L29 48L29 49L28 49L28 50L27 50L27 49L26 49L26 51L25 51L25 52L27 52L27 51L28 51L28 50L29 50L29 49L30 49L30 48L32 48L32 46L33 46L33 47L34 47L34 48L35 48L35 49L36 49L36 50L37 50L37 49L38 49L38 48L39 48L39 49L40 49L40 50L41 50L41 52L42 52L42 51L43 51L43 49L44 49L44 48L41 48L41 49L40 49L40 47L43 47L43 46L44 46L44 42L45 42L45 41L46 41L46 42L47 42L47 43L46 43L46 44L47 44L47 43L48 43L48 44L49 44L49 43L50 43L50 42L49 42L49 43L48 43L48 42L47 42L47 41L46 41L46 40L44 40L44 39L46 39L46 38L47 38L47 39L48 39L48 38L47 38L47 37L45 37L45 36L44 36L44 34L43 34L43 33L44 33L44 31L43 31L43 30L44 30L44 28L43 28L43 26L44 26L44 24L46 24L46 23L48 23L48 22L49 22L49 23L50 23L50 24L49 24L49 25L50 25L50 26L49 26L49 27L50 27L50 28L49 28L49 29L48 29L48 30L47 30L47 31L48 31L48 32L47 32L47 33L46 33L46 32L45 32L45 33L46 33L46 34L45 34L45 35L46 35L46 34L47 34L47 35L48 35L48 34L49 34L49 35L50 35L50 34L51 34L51 35L52 35L52 34L51 34L51 33L52 33L52 32L51 32L51 31L52 31L52 28L51 28L51 27L52 27L52 26L51 26L51 25L52 25L52 24L51 24L51 23L52 23L52 22L51 22L51 21L52 21L52 20L51 20L51 19L52 19L52 18L49 18L49 17L52 17L52 16L51 16L51 15L52 15L52 14L51 14L51 13L52 13L52 12L51 12L51 13L50 13L50 12L49 12L49 13L48 13L48 12L47 12L47 13L46 13L46 12L45 12L45 11L43 11L43 13L40 13L40 10L39 10L39 9L40 9L40 6L39 6L39 7L38 7L38 8L37 8L37 9L36 9L36 8L35 8L35 7L36 7L36 6L35 6L35 7L34 7L34 6L33 6L33 7L34 7L34 8L33 8L33 9L32 9L32 8L29 8L29 9L30 9L30 10L29 10L29 11L28 11L28 12L29 12L29 15L28 15L28 14L27 14L27 11L26 11L26 10L27 10L27 9L26 9L26 10L25 10L25 9L24 9L24 6L23 6L23 7L22 7L22 6L21 6L21 5L20 5L20 4L19 4L19 3L20 3L20 2L19 2L19 3L18 3L18 2ZM30 2L30 3L31 3L31 4L32 4L32 3L31 3L31 2ZM33 3L33 4L34 4L34 3ZM11 5L11 7L12 7L12 8L13 8L13 7L14 7L14 5L13 5L13 7L12 7L12 5ZM19 5L19 6L18 6L18 7L17 7L17 8L16 8L16 10L18 10L18 11L16 11L16 12L14 12L14 11L13 11L13 12L14 12L14 13L13 13L13 14L14 14L14 15L15 15L15 16L14 16L14 17L15 17L15 18L14 18L14 19L12 19L12 17L11 17L11 21L9 21L9 23L12 23L12 25L11 25L11 26L10 26L10 27L13 27L13 28L12 28L12 29L13 29L13 30L14 30L14 31L15 31L15 32L14 32L14 33L15 33L15 34L14 34L14 35L15 35L15 36L14 36L14 38L16 38L16 39L17 39L17 38L18 38L18 39L19 39L19 40L18 40L18 41L19 41L19 42L18 42L18 43L16 43L16 44L18 44L18 43L19 43L19 42L20 42L20 43L21 43L21 42L22 42L22 41L24 41L24 42L26 42L26 43L27 43L27 42L30 42L30 41L31 41L31 44L32 44L32 45L31 45L31 46L32 46L32 45L33 45L33 46L34 46L34 45L35 45L35 48L36 48L36 49L37 49L37 48L38 48L38 45L39 45L39 47L40 47L40 46L41 46L41 45L43 45L43 43L42 43L42 41L43 41L43 42L44 42L44 41L43 41L43 40L42 40L42 39L41 39L41 38L40 38L40 37L42 37L42 35L41 35L41 34L42 34L42 33L43 33L43 32L41 32L41 31L42 31L42 30L41 30L41 29L42 29L42 27L40 27L40 26L39 26L39 27L38 27L38 28L36 28L36 27L37 27L37 26L38 26L38 25L37 25L37 24L39 24L39 23L35 23L35 24L34 24L34 25L35 25L35 26L36 26L36 27L35 27L35 28L34 28L34 27L33 27L33 28L32 28L32 27L31 27L31 28L30 28L30 27L29 27L29 26L30 26L30 25L31 25L31 26L33 26L33 22L34 22L34 21L35 21L35 22L38 22L38 21L39 21L39 22L40 22L40 25L43 25L43 23L45 23L45 22L46 22L46 21L47 21L47 22L48 22L48 21L49 21L49 22L50 22L50 23L51 23L51 22L50 22L50 21L49 21L49 20L50 20L50 19L49 19L49 18L48 18L48 17L49 17L49 16L50 16L50 15L51 15L51 14L50 14L50 13L49 13L49 14L48 14L48 13L47 13L47 14L48 14L48 15L49 15L49 16L47 16L47 15L46 15L46 16L45 16L45 17L46 17L46 16L47 16L47 18L48 18L48 19L47 19L47 20L46 20L46 19L45 19L45 20L46 20L46 21L45 21L45 22L44 22L44 21L43 21L43 20L44 20L44 18L43 18L43 17L42 17L42 18L43 18L43 19L40 19L40 18L41 18L41 14L40 14L40 15L38 15L38 13L39 13L39 12L38 12L38 11L39 11L39 10L38 10L38 9L39 9L39 8L38 8L38 9L37 9L37 10L36 10L36 9L35 9L35 8L34 8L34 9L33 9L33 10L32 10L32 11L31 11L31 10L30 10L30 11L31 11L31 12L30 12L30 13L33 13L33 14L34 14L34 13L35 13L35 14L36 14L36 15L35 15L35 16L34 16L34 15L32 15L32 17L31 17L31 18L32 18L32 19L31 19L31 20L29 20L29 21L25 21L25 20L26 20L26 19L29 19L29 18L30 18L30 17L29 17L29 16L31 16L31 15L29 15L29 16L28 16L28 15L27 15L27 14L26 14L26 13L25 13L25 12L26 12L26 11L25 11L25 12L24 12L24 9L23 9L23 8L22 8L22 7L21 7L21 6L20 6L20 5ZM25 5L25 8L28 8L28 5ZM19 6L19 7L18 7L18 8L17 8L17 9L18 9L18 10L19 10L19 11L18 11L18 12L16 12L16 13L15 13L15 15L16 15L16 16L17 16L17 15L16 15L16 14L17 14L17 13L18 13L18 12L19 12L19 13L20 13L20 14L18 14L18 15L22 15L22 14L21 14L21 12L23 12L23 10L22 10L22 8L21 8L21 7L20 7L20 6ZM26 6L26 7L27 7L27 6ZM29 6L29 7L30 7L30 6ZM41 6L41 7L42 7L42 6ZM44 6L44 7L45 7L45 6ZM19 7L19 8L18 8L18 9L19 9L19 10L20 10L20 11L19 11L19 12L20 12L20 11L21 11L21 10L20 10L20 9L19 9L19 8L20 8L20 7ZM0 8L0 9L2 9L2 11L1 11L1 12L2 12L2 13L4 13L4 14L3 14L3 15L5 15L5 13L4 13L4 11L3 11L3 8ZM43 8L43 9L44 9L44 8ZM5 9L5 10L7 10L7 9ZM34 9L34 10L33 10L33 11L34 11L34 12L33 12L33 13L34 13L34 12L35 12L35 13L36 13L36 14L37 14L37 13L38 13L38 12L37 12L37 13L36 13L36 12L35 12L35 11L36 11L36 10L35 10L35 9ZM37 10L37 11L38 11L38 10ZM2 11L2 12L3 12L3 11ZM0 13L0 15L1 15L1 16L2 16L2 15L1 15L1 13ZM23 13L23 18L22 18L22 16L18 16L18 18L17 18L17 17L16 17L16 18L17 18L17 19L16 19L16 20L17 20L17 21L15 21L15 22L14 22L14 20L15 20L15 19L14 19L14 20L12 20L12 21L11 21L11 22L12 22L12 23L13 23L13 22L14 22L14 23L16 23L16 24L14 24L14 26L13 26L13 25L12 25L12 26L13 26L13 27L15 27L15 29L16 29L16 30L15 30L15 31L16 31L16 32L17 32L17 31L16 31L16 30L17 30L17 29L18 29L18 28L19 28L19 29L20 29L20 30L18 30L18 31L20 31L20 32L18 32L18 34L17 34L17 33L16 33L16 34L17 34L17 35L16 35L16 36L15 36L15 37L16 37L16 38L17 38L17 37L18 37L18 36L19 36L19 37L20 37L20 40L19 40L19 41L20 41L20 42L21 42L21 41L22 41L22 40L21 40L21 39L25 39L25 38L26 38L26 36L27 36L27 37L28 37L28 38L27 38L27 39L26 39L26 40L29 40L29 41L30 41L30 40L31 40L31 41L32 41L32 42L33 42L33 43L34 43L34 44L33 44L33 45L34 45L34 44L35 44L35 45L36 45L36 46L37 46L37 45L38 45L38 44L39 44L39 45L40 45L40 44L39 44L39 43L40 43L40 42L41 42L41 41L42 41L42 40L41 40L41 41L40 41L40 40L39 40L39 39L40 39L40 38L39 38L39 37L40 37L40 34L41 34L41 33L40 33L40 32L39 32L39 31L41 31L41 30L39 30L39 29L40 29L40 28L39 28L39 29L38 29L38 32L37 32L37 33L36 33L36 32L35 32L35 31L37 31L37 30L35 30L35 29L36 29L36 28L35 28L35 29L34 29L34 28L33 28L33 29L32 29L32 30L31 30L31 29L30 29L30 28L29 28L29 29L28 29L28 30L27 30L27 31L26 31L26 30L25 30L25 29L23 29L23 31L22 31L22 30L21 30L21 29L22 29L22 28L21 28L21 27L20 27L20 26L21 26L21 25L22 25L22 24L25 24L25 23L26 23L26 24L27 24L27 23L28 23L28 24L29 24L29 25L30 25L30 24L31 24L31 25L32 25L32 24L31 24L31 21L30 21L30 22L29 22L29 23L28 23L28 22L25 22L25 21L24 21L24 22L23 22L23 23L22 23L22 24L19 24L19 23L21 23L21 21L20 21L20 20L22 20L22 19L24 19L24 20L25 20L25 19L26 19L26 18L28 18L28 16L27 16L27 15L26 15L26 14L24 14L24 13ZM45 13L45 14L44 14L44 15L42 15L42 16L44 16L44 15L45 15L45 14L46 14L46 13ZM49 14L49 15L50 15L50 14ZM12 15L12 16L13 16L13 15ZM25 15L25 17L24 17L24 18L26 18L26 15ZM33 16L33 17L32 17L32 18L33 18L33 19L34 19L34 20L33 20L33 21L34 21L34 20L35 20L35 21L36 21L36 20L35 20L35 19L36 19L36 18L37 18L37 19L38 19L38 20L39 20L39 21L40 21L40 22L42 22L42 23L43 23L43 21L40 21L40 19L38 19L38 18L39 18L39 17L40 17L40 16L37 16L37 17L36 17L36 16L35 16L35 17L34 17L34 16ZM0 17L0 20L1 20L1 21L0 21L0 22L1 22L1 21L2 21L2 23L3 23L3 21L4 21L4 20L3 20L3 21L2 21L2 19L4 19L4 17L3 17L3 18L2 18L2 19L1 19L1 17ZM6 17L6 18L8 18L8 17ZM19 17L19 18L18 18L18 19L17 19L17 20L18 20L18 21L17 21L17 22L16 22L16 23L17 23L17 22L18 22L18 23L19 23L19 22L20 22L20 21L19 21L19 20L20 20L20 19L22 19L22 18L20 18L20 17ZM35 17L35 18L34 18L34 19L35 19L35 18L36 18L36 17ZM37 17L37 18L38 18L38 17ZM19 18L19 19L18 19L18 20L19 20L19 19L20 19L20 18ZM47 20L47 21L48 21L48 20ZM29 23L29 24L30 24L30 23ZM0 24L0 26L1 26L1 24ZM16 24L16 26L17 26L17 24ZM18 24L18 25L19 25L19 26L18 26L18 27L16 27L16 28L18 28L18 27L19 27L19 28L20 28L20 29L21 29L21 28L20 28L20 27L19 27L19 26L20 26L20 25L19 25L19 24ZM35 24L35 25L36 25L36 26L37 26L37 25L36 25L36 24ZM5 25L5 28L8 28L8 25ZM25 25L25 28L28 28L28 25ZM45 25L45 28L48 28L48 25ZM6 26L6 27L7 27L7 26ZM22 26L22 27L23 27L23 28L24 28L24 26ZM26 26L26 27L27 27L27 26ZM46 26L46 27L47 27L47 26ZM50 26L50 27L51 27L51 26ZM2 28L2 29L1 29L1 30L3 30L3 31L5 31L5 30L4 30L4 29L3 29L3 28ZM13 28L13 29L14 29L14 28ZM6 29L6 30L7 30L7 29ZM33 29L33 30L32 30L32 33L31 33L31 32L30 32L30 30L29 30L29 32L28 32L28 33L29 33L29 34L30 34L30 33L31 33L31 34L32 34L32 35L31 35L31 36L32 36L32 37L31 37L31 38L32 38L32 39L31 39L31 40L32 40L32 41L33 41L33 40L34 40L34 41L35 41L35 42L36 42L36 43L35 43L35 44L36 44L36 45L37 45L37 44L38 44L38 43L37 43L37 42L38 42L38 41L39 41L39 40L38 40L38 37L37 37L37 36L38 36L38 35L37 35L37 34L38 34L38 33L39 33L39 34L40 34L40 33L39 33L39 32L38 32L38 33L37 33L37 34L36 34L36 33L35 33L35 32L33 32L33 30L34 30L34 29ZM49 29L49 30L48 30L48 31L49 31L49 32L50 32L50 31L51 31L51 30L50 30L50 29ZM8 30L8 31L6 31L6 32L4 32L4 33L5 33L5 34L7 34L7 33L9 33L9 32L10 32L10 31L9 31L9 30ZM20 30L20 31L21 31L21 32L22 32L22 33L21 33L21 34L20 34L20 33L19 33L19 34L18 34L18 35L17 35L17 36L18 36L18 35L19 35L19 36L20 36L20 35L21 35L21 36L22 36L22 38L23 38L23 36L26 36L26 35L27 35L27 36L28 36L28 37L29 37L29 36L28 36L28 35L27 35L27 34L26 34L26 33L27 33L27 32L26 32L26 31L25 31L25 30L24 30L24 31L23 31L23 32L22 32L22 31L21 31L21 30ZM49 30L49 31L50 31L50 30ZM1 31L1 32L2 32L2 31ZM24 31L24 32L23 32L23 33L22 33L22 34L21 34L21 35L22 35L22 36L23 36L23 35L24 35L24 32L25 32L25 31ZM6 32L6 33L7 33L7 32ZM12 32L12 33L13 33L13 32ZM29 32L29 33L30 33L30 32ZM32 33L32 34L34 34L34 36L33 36L33 37L32 37L32 38L33 38L33 39L34 39L34 40L35 40L35 41L36 41L36 42L37 42L37 41L38 41L38 40L37 40L37 41L36 41L36 40L35 40L35 39L36 39L36 38L37 38L37 37L36 37L36 36L37 36L37 35L36 35L36 34L35 34L35 33ZM47 33L47 34L48 34L48 33ZM49 33L49 34L50 34L50 33ZM19 34L19 35L20 35L20 34ZM22 34L22 35L23 35L23 34ZM25 34L25 35L26 35L26 34ZM35 35L35 36L34 36L34 37L33 37L33 38L34 38L34 37L35 37L35 38L36 38L36 37L35 37L35 36L36 36L36 35ZM44 37L44 38L43 38L43 39L44 39L44 38L45 38L45 37ZM52 37L52 39L53 39L53 37ZM49 38L49 39L50 39L50 38ZM2 39L2 40L3 40L3 39ZM6 39L6 40L7 40L7 39ZM29 39L29 40L30 40L30 39ZM16 40L16 42L17 42L17 40ZM24 40L24 41L25 41L25 40ZM11 44L11 45L12 45L12 44ZM51 44L51 45L52 45L52 47L53 47L53 44ZM13 45L13 47L14 47L14 46L16 46L16 45ZM25 45L25 48L28 48L28 45ZM45 45L45 48L48 48L48 45ZM18 46L18 47L19 47L19 46ZM26 46L26 47L27 47L27 46ZM46 46L46 47L47 47L47 46ZM49 46L49 47L50 47L50 46ZM13 48L13 49L12 49L12 50L13 50L13 49L14 49L14 48ZM23 48L23 50L24 50L24 48ZM52 48L52 49L53 49L53 48ZM19 49L19 50L18 50L18 51L19 51L19 50L20 50L20 49ZM41 49L41 50L42 50L42 49ZM46 49L46 50L47 50L47 51L48 51L48 52L49 52L49 51L50 51L50 50L49 50L49 51L48 51L48 50L47 50L47 49ZM14 51L14 52L15 52L15 51ZM0 0L0 7L7 7L7 0ZM1 1L1 6L6 6L6 1ZM2 2L2 5L5 5L5 2ZM46 0L46 7L53 7L53 0ZM47 1L47 6L52 6L52 1ZM48 2L48 5L51 5L51 2ZM0 46L0 53L7 53L7 46ZM1 47L1 52L6 52L6 47ZM2 48L2 51L5 51L5 48Z" fill="#000000"/></g></g></svg>
