<?xml version="1.0" encoding="UTF-8"?>
<svg xmlns="http://www.w3.org/2000/svg" version="1.1" width="150" height="150" viewBox="0 0 150 150"><rect x="0" y="0" width="150" height="150" fill="#ffffff"/><g transform="scale(2.83)"><g transform="translate(0,0)"><path fill-rule="evenodd" d="M8 0L8 1L9 1L9 0ZM10 0L10 1L11 1L11 2L12 2L12 3L11 3L11 4L10 4L10 2L8 2L8 5L9 5L9 4L10 4L10 7L11 7L11 4L12 4L12 5L13 5L13 4L12 4L12 3L14 3L14 2L15 2L15 1L16 1L16 0L15 0L15 1L14 1L14 2L13 2L13 0ZM17 0L17 2L16 2L16 3L15 3L15 4L19 4L19 3L20 3L20 5L19 5L19 6L18 6L18 7L17 7L17 5L16 5L16 7L17 7L17 8L19 8L19 6L20 6L20 7L21 7L21 6L22 6L22 7L23 7L23 8L20 8L20 9L21 9L21 12L20 12L20 11L19 11L19 12L17 12L17 11L16 11L16 12L15 12L15 13L17 13L17 15L15 15L15 16L14 16L14 14L13 14L13 12L14 12L14 11L15 11L15 10L16 10L16 9L15 9L15 8L14 8L14 9L15 9L15 10L14 10L14 11L13 11L13 12L12 12L12 13L11 13L11 10L8 10L8 11L7 11L7 10L5 10L5 9L4 9L4 8L0 8L0 13L1 13L1 16L2 16L2 17L3 17L3 18L0 18L0 19L1 19L1 20L4 20L4 23L3 23L3 22L2 22L2 21L0 21L0 23L1 23L1 24L3 24L3 25L2 25L2 26L1 26L1 25L0 25L0 27L1 27L1 28L3 28L3 25L4 25L4 30L6 30L6 31L7 31L7 30L8 30L8 32L6 32L6 33L7 33L7 34L6 34L6 35L3 35L3 34L4 34L4 33L5 33L5 32L4 32L4 31L3 31L3 29L2 29L2 30L1 30L1 29L0 29L0 30L1 30L1 31L0 31L0 36L2 36L2 37L0 37L0 39L1 39L1 40L0 40L0 41L3 41L3 43L2 43L2 42L0 42L0 43L1 43L1 44L3 44L3 45L4 45L4 44L3 44L3 43L7 43L7 44L6 44L6 45L7 45L7 44L8 44L8 46L10 46L10 48L9 48L9 49L8 49L8 53L9 53L9 52L10 52L10 53L12 53L12 51L15 51L15 53L17 53L17 52L18 52L18 51L20 51L20 52L19 52L19 53L20 53L20 52L21 52L21 53L22 53L22 52L21 52L21 51L20 51L20 50L22 50L22 51L24 51L24 50L26 50L26 51L27 51L27 52L26 52L26 53L27 53L27 52L29 52L29 53L30 53L30 52L31 52L31 51L32 51L32 53L33 53L33 51L34 51L34 49L33 49L33 51L32 51L32 50L30 50L30 49L32 49L32 48L33 48L33 47L34 47L34 48L35 48L35 47L36 47L36 49L35 49L35 50L36 50L36 49L37 49L37 48L38 48L38 47L36 47L36 46L38 46L38 45L39 45L39 49L38 49L38 50L37 50L37 52L39 52L39 53L40 53L40 51L41 51L41 50L42 50L42 52L41 52L41 53L42 53L42 52L43 52L43 51L44 51L44 50L42 50L42 49L41 49L41 50L40 50L40 51L39 51L39 49L40 49L40 45L41 45L41 44L42 44L42 42L41 42L41 41L42 41L42 40L44 40L44 41L43 41L43 42L44 42L44 41L45 41L45 40L46 40L46 41L49 41L49 42L51 42L51 43L50 43L50 44L49 44L49 43L46 43L46 42L45 42L45 43L46 43L46 44L44 44L44 43L43 43L43 45L42 45L42 46L41 46L41 47L42 47L42 48L44 48L44 49L47 49L47 50L46 50L46 51L47 51L47 50L49 50L49 51L48 51L48 52L46 52L46 53L48 53L48 52L49 52L49 53L50 53L50 52L49 52L49 51L50 51L50 50L51 50L51 53L52 53L52 50L53 50L53 49L52 49L52 48L53 48L53 47L52 47L52 48L50 48L50 47L51 47L51 46L53 46L53 44L52 44L52 42L53 42L53 41L52 41L52 42L51 42L51 41L49 41L49 39L50 39L50 38L51 38L51 37L52 37L52 39L51 39L51 40L52 40L52 39L53 39L53 36L49 36L49 37L50 37L50 38L49 38L49 39L48 39L48 40L47 40L47 38L48 38L48 37L47 37L47 38L46 38L46 37L45 37L45 34L47 34L47 35L46 35L46 36L47 36L47 35L48 35L48 34L49 34L49 35L51 35L51 34L53 34L53 32L52 32L52 33L51 33L51 31L52 31L52 30L51 30L51 31L50 31L50 32L48 32L48 31L49 31L49 30L50 30L50 29L49 29L49 28L50 28L50 27L51 27L51 28L52 28L52 27L53 27L53 25L52 25L52 24L53 24L53 23L52 23L52 24L50 24L50 23L51 23L51 22L53 22L53 20L52 20L52 21L51 21L51 19L52 19L52 18L51 18L51 19L49 19L49 18L50 18L50 17L49 17L49 18L48 18L48 20L50 20L50 21L51 21L51 22L50 22L50 23L48 23L48 24L46 24L46 23L45 23L45 22L46 22L46 21L47 21L47 22L49 22L49 21L47 21L47 20L46 20L46 21L45 21L45 19L47 19L47 16L49 16L49 15L50 15L50 14L51 14L51 13L52 13L52 15L51 15L51 16L52 16L52 15L53 15L53 13L52 13L52 12L53 12L53 11L52 11L52 12L51 12L51 13L50 13L50 12L49 12L49 10L46 10L46 12L44 12L44 14L42 14L42 13L43 13L43 12L42 12L42 13L41 13L41 14L40 14L40 15L39 15L39 13L38 13L38 12L39 12L39 10L40 10L40 9L41 9L41 11L45 11L45 10L44 10L44 9L46 9L46 8L45 8L45 6L44 6L44 9L43 9L43 8L42 8L42 7L43 7L43 3L44 3L44 4L45 4L45 3L44 3L44 1L43 1L43 0L42 0L42 1L41 1L41 2L43 2L43 3L42 3L42 7L41 7L41 5L40 5L40 4L38 4L38 3L39 3L39 2L38 2L38 3L37 3L37 2L36 2L36 1L37 1L37 0L36 0L36 1L34 1L34 0L22 0L22 1L20 1L20 2L19 2L19 3L17 3L17 2L18 2L18 0ZM22 1L22 2L20 2L20 3L21 3L21 5L22 5L22 4L23 4L23 7L24 7L24 2L26 2L26 3L25 3L25 4L26 4L26 3L28 3L28 4L30 4L30 5L29 5L29 9L34 9L34 10L33 10L33 12L31 12L31 11L32 11L32 10L31 10L31 11L29 11L29 10L28 10L28 11L29 11L29 13L30 13L30 14L29 14L29 15L28 15L28 13L27 13L27 14L26 14L26 12L27 12L27 11L26 11L26 10L27 10L27 9L25 9L25 11L24 11L24 12L21 12L21 13L23 13L23 15L21 15L21 14L20 14L20 13L19 13L19 14L18 14L18 15L17 15L17 16L18 16L18 17L17 17L17 18L16 18L16 16L15 16L15 17L14 17L14 16L12 16L12 18L13 18L13 20L12 20L12 21L10 21L10 20L11 20L11 15L12 15L12 14L11 14L11 13L10 13L10 15L8 15L8 17L9 17L9 18L8 18L8 20L7 20L7 19L6 19L6 20L5 20L5 18L4 18L4 20L5 20L5 21L6 21L6 22L5 22L5 23L4 23L4 24L8 24L8 23L6 23L6 22L8 22L8 20L9 20L9 21L10 21L10 23L9 23L9 25L10 25L10 27L9 27L9 29L10 29L10 30L9 30L9 32L8 32L8 33L9 33L9 32L10 32L10 33L11 33L11 35L9 35L9 36L7 36L7 35L6 35L6 36L7 36L7 37L4 37L4 39L2 39L2 38L3 38L3 37L2 37L2 38L1 38L1 39L2 39L2 40L3 40L3 41L4 41L4 42L5 42L5 41L4 41L4 40L5 40L5 39L6 39L6 40L8 40L8 39L9 39L9 41L8 41L8 42L9 42L9 43L8 43L8 44L9 44L9 45L11 45L11 47L12 47L12 48L10 48L10 49L9 49L9 50L11 50L11 51L12 51L12 50L14 50L14 49L15 49L15 51L16 51L16 52L17 52L17 51L16 51L16 50L17 50L17 49L18 49L18 48L19 48L19 50L20 50L20 48L21 48L21 47L24 47L24 44L26 44L26 43L27 43L27 44L29 44L29 46L30 46L30 45L31 45L31 47L30 47L30 48L32 48L32 46L33 46L33 45L34 45L34 46L36 46L36 45L38 45L38 44L40 44L40 43L41 43L41 42L40 42L40 43L38 43L38 42L39 42L39 41L41 41L41 40L42 40L42 38L43 38L43 39L44 39L44 40L45 40L45 39L46 39L46 38L45 38L45 37L44 37L44 34L45 34L45 33L47 33L47 34L48 34L48 33L47 33L47 32L46 32L46 31L48 31L48 30L49 30L49 29L45 29L45 30L44 30L44 26L43 26L43 25L44 25L44 24L45 24L45 23L44 23L44 22L45 22L45 21L43 21L43 20L44 20L44 19L43 19L43 18L45 18L45 16L46 16L46 15L49 15L49 14L50 14L50 13L48 13L48 12L46 12L46 13L45 13L45 14L44 14L44 15L42 15L42 14L41 14L41 15L42 15L42 16L43 16L43 18L41 18L41 16L38 16L38 14L36 14L36 11L38 11L38 10L39 10L39 9L40 9L40 8L38 8L38 6L37 6L37 8L35 8L35 7L36 7L36 6L35 6L35 5L37 5L37 4L36 4L36 3L34 3L34 1L32 1L32 2L33 2L33 3L31 3L31 2L29 2L29 1ZM22 2L22 3L23 3L23 2ZM28 2L28 3L29 3L29 2ZM30 3L30 4L31 4L31 3ZM33 3L33 4L32 4L32 5L30 5L30 8L31 8L31 6L32 6L32 7L33 7L33 6L34 6L34 7L35 7L35 6L34 6L34 5L33 5L33 4L34 4L34 3ZM14 5L14 7L15 7L15 5ZM25 5L25 8L28 8L28 5ZM32 5L32 6L33 6L33 5ZM8 6L8 7L9 7L9 6ZM12 6L12 9L13 9L13 6ZM26 6L26 7L27 7L27 6ZM39 6L39 7L40 7L40 6ZM6 8L6 9L7 9L7 8ZM8 8L8 9L11 9L11 8ZM23 8L23 10L22 10L22 11L23 11L23 10L24 10L24 8ZM34 8L34 9L35 9L35 8ZM37 8L37 9L36 9L36 10L34 10L34 12L35 12L35 11L36 11L36 10L37 10L37 9L38 9L38 8ZM41 8L41 9L42 9L42 8ZM48 8L48 9L51 9L51 10L50 10L50 11L51 11L51 10L53 10L53 8L52 8L52 9L51 9L51 8ZM2 9L2 10L1 10L1 11L2 11L2 13L3 13L3 14L4 14L4 13L3 13L3 11L2 11L2 10L4 10L4 9ZM17 9L17 10L18 10L18 9ZM5 11L5 15L2 15L2 16L4 16L4 17L6 17L6 18L7 18L7 17L6 17L6 16L7 16L7 15L6 15L6 14L8 14L8 13L9 13L9 11L8 11L8 12L7 12L7 11ZM25 11L25 12L24 12L24 13L25 13L25 12L26 12L26 11ZM6 12L6 13L7 13L7 12ZM30 12L30 13L31 13L31 12ZM32 13L32 14L30 14L30 15L29 15L29 16L30 16L30 17L29 17L29 18L30 18L30 17L31 17L31 18L32 18L32 17L33 17L33 22L32 22L32 23L31 23L31 21L32 21L32 20L31 20L31 21L30 21L30 22L29 22L29 20L30 20L30 19L28 19L28 20L27 20L27 19L26 19L26 20L25 20L25 22L23 22L23 21L24 21L24 20L23 20L23 19L22 19L22 18L21 18L21 20L20 20L20 16L19 16L19 15L20 15L20 14L19 14L19 15L18 15L18 16L19 16L19 17L18 17L18 18L19 18L19 21L22 21L22 22L23 22L23 23L22 23L22 24L21 24L21 23L20 23L20 26L21 26L21 29L22 29L22 27L23 27L23 26L24 26L24 28L23 28L23 30L19 30L19 29L18 29L18 30L19 30L19 31L17 31L17 32L20 32L20 33L21 33L21 34L20 34L20 35L19 35L19 36L18 36L18 34L19 34L19 33L18 33L18 34L17 34L17 35L16 35L16 36L15 36L15 37L18 37L18 39L19 39L19 38L21 38L21 36L23 36L23 35L24 35L24 34L25 34L25 35L27 35L27 34L28 34L28 33L29 33L29 35L28 35L28 36L27 36L27 37L28 37L28 38L30 38L30 39L29 39L29 41L28 41L28 42L27 42L27 40L28 40L28 39L27 39L27 40L26 40L26 41L25 41L25 42L24 42L24 40L25 40L25 39L26 39L26 38L25 38L25 36L24 36L24 40L23 40L23 42L22 42L22 41L21 41L21 42L22 42L22 44L20 44L20 40L22 40L22 39L23 39L23 37L22 37L22 39L20 39L20 40L19 40L19 41L18 41L18 40L16 40L16 42L14 42L14 40L15 40L15 39L17 39L17 38L14 38L14 40L13 40L13 43L12 43L12 42L11 42L11 43L12 43L12 47L13 47L13 48L12 48L12 49L14 49L14 48L15 48L15 49L17 49L17 48L15 48L15 47L16 47L16 46L15 46L15 44L14 44L14 43L16 43L16 42L17 42L17 41L18 41L18 43L17 43L17 45L18 45L18 44L19 44L19 46L20 46L20 47L21 47L21 46L23 46L23 44L24 44L24 43L25 43L25 42L27 42L27 43L28 43L28 42L30 42L30 41L31 41L31 43L32 43L32 44L31 44L31 45L32 45L32 44L33 44L33 43L35 43L35 41L36 41L36 40L35 40L35 41L33 41L33 40L34 40L34 38L30 38L30 37L31 37L31 36L32 36L32 35L34 35L34 36L33 36L33 37L34 37L34 36L35 36L35 35L36 35L36 37L35 37L35 38L36 38L36 39L39 39L39 40L38 40L38 41L37 41L37 42L36 42L36 44L38 44L38 43L37 43L37 42L38 42L38 41L39 41L39 40L41 40L41 38L42 38L42 37L43 37L43 38L44 38L44 37L43 37L43 36L42 36L42 37L41 37L41 38L40 38L40 37L38 37L38 36L40 36L40 35L36 35L36 34L37 34L37 33L38 33L38 32L39 32L39 30L38 30L38 32L37 32L37 30L36 30L36 31L35 31L35 29L36 29L36 27L35 27L35 28L34 28L34 27L33 27L33 26L34 26L34 24L35 24L35 23L36 23L36 25L35 25L35 26L36 26L36 25L37 25L37 24L38 24L38 26L37 26L37 27L39 27L39 29L40 29L40 30L41 30L41 29L42 29L42 28L43 28L43 26L42 26L42 28L41 28L41 27L40 27L40 22L39 22L39 23L38 23L38 21L39 21L39 19L38 19L38 21L35 21L35 19L34 19L34 18L35 18L35 17L36 17L36 16L35 16L35 17L33 17L33 16L34 16L34 15L33 15L33 16L30 16L30 15L32 15L32 14L33 14L33 13ZM47 13L47 14L48 14L48 13ZM24 14L24 16L23 16L23 17L24 17L24 16L26 16L26 14ZM5 15L5 16L6 16L6 15ZM27 15L27 16L28 16L28 15ZM9 16L9 17L10 17L10 16ZM25 17L25 18L26 18L26 17ZM37 17L37 18L36 18L36 20L37 20L37 18L38 18L38 17ZM15 18L15 19L14 19L14 20L13 20L13 21L14 21L14 22L13 22L13 23L12 23L12 22L11 22L11 24L10 24L10 25L11 25L11 27L10 27L10 29L11 29L11 33L13 33L13 34L12 34L12 35L11 35L11 36L10 36L10 37L7 37L7 38L6 38L6 39L7 39L7 38L10 38L10 37L11 37L11 40L10 40L10 41L9 41L9 42L10 42L10 41L11 41L11 40L12 40L12 39L13 39L13 38L12 38L12 37L13 37L13 36L14 36L14 35L15 35L15 34L16 34L16 33L15 33L15 34L14 34L14 32L15 32L15 31L16 31L16 30L17 30L17 29L16 29L16 30L15 30L15 28L16 28L16 27L17 27L17 28L19 28L19 26L18 26L18 25L19 25L19 24L18 24L18 25L17 25L17 24L15 24L15 23L14 23L14 22L16 22L16 23L18 23L18 22L16 22L16 21L18 21L18 19L17 19L17 20L16 20L16 21L14 21L14 20L15 20L15 19L16 19L16 18ZM40 18L40 21L41 21L41 20L42 20L42 19L41 19L41 18ZM9 19L9 20L10 20L10 19ZM6 20L6 21L7 21L7 20ZM26 21L26 22L25 22L25 23L23 23L23 24L22 24L22 25L24 25L24 24L29 24L29 28L30 28L30 29L27 29L27 30L25 30L25 32L24 32L24 33L25 33L25 34L26 34L26 33L28 33L28 32L29 32L29 31L30 31L30 33L31 33L31 35L29 35L29 37L30 37L30 36L31 36L31 35L32 35L32 34L36 34L36 33L37 33L37 32L35 32L35 31L34 31L34 28L33 28L33 31L32 31L32 30L31 30L31 29L32 29L32 27L31 27L31 28L30 28L30 26L33 26L33 24L31 24L31 23L29 23L29 22L27 22L27 21ZM34 21L34 22L35 22L35 21ZM42 21L42 22L41 22L41 23L42 23L42 24L41 24L41 25L43 25L43 24L44 24L44 23L43 23L43 21ZM1 22L1 23L2 23L2 22ZM26 22L26 23L27 23L27 22ZM36 22L36 23L37 23L37 22ZM11 24L11 25L12 25L12 27L11 27L11 28L12 28L12 27L13 27L13 29L14 29L14 28L15 28L15 27L16 27L16 26L17 26L17 27L18 27L18 26L17 26L17 25L15 25L15 26L14 26L14 25L12 25L12 24ZM49 24L49 26L50 26L50 24ZM5 25L5 28L8 28L8 25ZM25 25L25 28L28 28L28 25ZM45 25L45 28L48 28L48 25ZM51 25L51 27L52 27L52 25ZM6 26L6 27L7 27L7 26ZM13 26L13 27L14 27L14 26ZM26 26L26 27L27 27L27 26ZM46 26L46 27L47 27L47 26ZM37 28L37 29L38 29L38 28ZM40 28L40 29L41 29L41 28ZM6 29L6 30L7 30L7 29ZM13 30L13 31L12 31L12 32L13 32L13 31L15 31L15 30ZM23 30L23 31L24 31L24 30ZM27 30L27 31L26 31L26 32L25 32L25 33L26 33L26 32L28 32L28 30ZM43 30L43 33L42 33L42 32L41 32L41 31L40 31L40 33L39 33L39 34L40 34L40 33L42 33L42 34L41 34L41 35L43 35L43 33L44 33L44 32L45 32L45 31L44 31L44 30ZM20 31L20 32L21 32L21 33L22 33L22 31ZM31 31L31 33L32 33L32 31ZM33 31L33 33L35 33L35 32L34 32L34 31ZM1 32L1 33L3 33L3 32ZM49 33L49 34L50 34L50 33ZM1 34L1 35L2 35L2 36L3 36L3 35L2 35L2 34ZM13 34L13 35L14 35L14 34ZM21 34L21 35L20 35L20 36L19 36L19 37L20 37L20 36L21 36L21 35L22 35L22 34ZM11 36L11 37L12 37L12 36ZM39 38L39 39L40 39L40 38ZM30 39L30 40L31 40L31 41L32 41L32 43L33 43L33 41L32 41L32 39ZM6 41L6 42L7 42L7 41ZM23 42L23 43L24 43L24 42ZM9 43L9 44L10 44L10 43ZM29 43L29 44L30 44L30 43ZM51 44L51 45L49 45L49 47L50 47L50 46L51 46L51 45L52 45L52 44ZM13 45L13 46L14 46L14 45ZM20 45L20 46L21 46L21 45ZM25 45L25 48L28 48L28 45ZM45 45L45 48L48 48L48 45ZM17 46L17 47L18 47L18 46ZM26 46L26 47L27 47L27 46ZM46 46L46 47L47 47L47 46ZM22 48L22 49L24 49L24 48ZM49 48L49 50L50 50L50 48ZM27 49L27 51L28 51L28 50L29 50L29 52L30 52L30 50L29 50L29 49ZM51 49L51 50L52 50L52 49ZM13 52L13 53L14 53L14 52ZM23 52L23 53L24 53L24 52ZM35 52L35 53L36 53L36 52ZM44 52L44 53L45 53L45 52ZM0 0L0 7L7 7L7 0ZM1 1L1 6L6 6L6 1ZM2 2L2 5L5 5L5 2ZM46 0L46 7L53 7L53 0ZM47 1L47 6L52 6L52 1ZM48 2L48 5L51 5L51 2ZM0 46L0 53L7 53L7 46ZM1 47L1 52L6 52L6 47ZM2 48L2 51L5 51L5 48Z" fill="#000000"/></g></g></svg>
