<?xml version="1.0" encoding="UTF-8"?>
<svg xmlns="http://www.w3.org/2000/svg" version="1.1" width="150" height="150" viewBox="0 0 150 150"><rect x="0" y="0" width="150" height="150" fill="#ffffff"/><g transform="scale(2.632)"><g transform="translate(0,0)"><path fill-rule="evenodd" d="M11 0L11 1L10 1L10 2L8 2L8 3L11 3L11 5L10 5L10 4L9 4L9 5L10 5L10 8L9 8L9 6L8 6L8 8L4 8L4 9L5 9L5 10L2 10L2 12L3 12L3 11L5 11L5 12L4 12L4 13L3 13L3 15L4 15L4 16L3 16L3 17L2 17L2 15L0 15L0 17L2 17L2 19L1 19L1 18L0 18L0 19L1 19L1 20L0 20L0 21L2 21L2 20L3 20L3 23L7 23L7 22L6 22L6 21L9 21L9 19L10 19L10 20L13 20L13 18L14 18L14 19L16 19L16 22L17 22L17 20L18 20L18 23L16 23L16 24L18 24L18 25L17 25L17 30L16 30L16 28L14 28L14 27L15 27L15 25L14 25L14 26L13 26L13 25L12 25L12 26L11 26L11 25L10 25L10 24L12 24L12 22L11 22L11 21L10 21L10 22L8 22L8 26L6 26L6 25L7 25L7 24L6 24L6 25L5 25L5 24L3 24L3 25L2 25L2 24L1 24L1 23L0 23L0 24L1 24L1 25L0 25L0 26L1 26L1 27L0 27L0 28L1 28L1 27L2 27L2 30L4 30L4 32L3 32L3 33L1 33L1 32L2 32L2 31L1 31L1 29L0 29L0 37L2 37L2 36L3 36L3 38L2 38L2 39L1 39L1 41L0 41L0 42L1 42L1 43L0 43L0 44L1 44L1 45L0 45L0 48L5 48L5 47L7 47L7 46L6 46L6 45L8 45L8 47L9 47L9 48L11 48L11 49L10 49L10 50L11 50L11 51L9 51L9 49L8 49L8 53L10 53L10 55L9 55L9 54L8 54L8 57L9 57L9 56L10 56L10 57L12 57L12 56L14 56L14 57L15 57L15 56L14 56L14 55L15 55L15 54L14 54L14 55L13 55L13 53L12 53L12 50L14 50L14 49L15 49L15 48L16 48L16 47L17 47L17 46L16 46L16 43L17 43L17 42L18 42L18 43L19 43L19 44L18 44L18 45L20 45L20 43L21 43L21 46L20 46L20 47L19 47L19 46L18 46L18 48L17 48L17 50L18 50L18 51L16 51L16 50L15 50L15 51L16 51L16 54L17 54L17 52L18 52L18 55L16 55L16 56L18 56L18 57L19 57L19 56L20 56L20 55L21 55L21 56L22 56L22 57L23 57L23 56L22 56L22 55L23 55L23 54L22 54L22 55L21 55L21 54L20 54L20 53L23 53L23 52L24 52L24 54L26 54L26 55L27 55L27 56L26 56L26 57L27 57L27 56L28 56L28 57L29 57L29 56L28 56L28 55L29 55L29 53L30 53L30 54L31 54L31 52L32 52L32 55L30 55L30 57L32 57L32 55L34 55L34 56L36 56L36 57L37 57L37 56L38 56L38 57L39 57L39 56L40 56L40 57L41 57L41 55L42 55L42 54L41 54L41 53L42 53L42 51L41 51L41 50L40 50L40 51L39 51L39 52L38 52L38 51L37 51L37 50L38 50L38 49L37 49L37 48L39 48L39 49L41 49L41 43L42 43L42 44L43 44L43 47L42 47L42 48L43 48L43 50L44 50L44 51L43 51L43 53L44 53L44 54L43 54L43 55L44 55L44 57L49 57L49 56L50 56L50 55L51 55L51 56L52 56L52 57L53 57L53 56L52 56L52 55L53 55L53 52L54 52L54 51L57 51L57 48L56 48L56 47L57 47L57 46L56 46L56 45L57 45L57 44L56 44L56 43L57 43L57 40L56 40L56 38L57 38L57 37L56 37L56 36L57 36L57 33L55 33L55 32L57 32L57 30L56 30L56 29L57 29L57 28L55 28L55 29L53 29L53 28L54 28L54 27L55 27L55 26L56 26L56 27L57 27L57 25L56 25L56 24L55 24L55 26L54 26L54 25L53 25L53 22L52 22L52 21L53 21L53 20L54 20L54 19L55 19L55 18L56 18L56 19L57 19L57 17L55 17L55 16L57 16L57 12L56 12L56 11L57 11L57 9L56 9L56 10L55 10L55 8L54 8L54 9L53 9L53 10L52 10L52 9L51 9L51 8L49 8L49 10L48 10L48 9L47 9L47 8L48 8L48 7L49 7L49 6L48 6L48 7L47 7L47 5L48 5L48 0L46 0L46 1L45 1L45 2L46 2L46 3L45 3L45 4L44 4L44 5L43 5L43 4L41 4L41 3L43 3L43 2L44 2L44 0L41 0L41 1L40 1L40 0L33 0L33 1L32 1L32 0L30 0L30 1L29 1L29 2L30 2L30 3L29 3L29 4L28 4L28 3L27 3L27 2L28 2L28 1L27 1L27 0L26 0L26 3L27 3L27 4L26 4L26 5L25 5L25 4L24 4L24 5L25 5L25 6L24 6L24 7L23 7L23 6L22 6L22 5L20 5L20 3L21 3L21 4L22 4L22 3L23 3L23 2L24 2L24 3L25 3L25 2L24 2L24 1L25 1L25 0L22 0L22 1L21 1L21 0L20 0L20 1L18 1L18 0L15 0L15 2L14 2L14 1L13 1L13 0ZM11 1L11 3L12 3L12 6L11 6L11 7L12 7L12 10L13 10L13 9L14 9L14 8L13 8L13 7L14 7L14 5L15 5L15 7L16 7L16 8L15 8L15 10L14 10L14 11L15 11L15 10L17 10L17 12L16 12L16 14L15 14L15 12L14 12L14 14L11 14L11 13L13 13L13 12L12 12L12 11L11 11L11 12L10 12L10 9L9 9L9 10L8 10L8 9L6 9L6 10L8 10L8 11L6 11L6 12L5 12L5 13L4 13L4 15L5 15L5 17L4 17L4 18L3 18L3 20L5 20L5 21L6 21L6 20L8 20L8 19L9 19L9 18L10 18L10 19L12 19L12 18L10 18L10 16L9 16L9 17L8 17L8 15L14 15L14 16L15 16L15 18L16 18L16 19L18 19L18 20L21 20L21 21L20 21L20 22L21 22L21 23L20 23L20 24L19 24L19 23L18 23L18 24L19 24L19 25L20 25L20 26L18 26L18 27L20 27L20 28L18 28L18 30L17 30L17 31L15 31L15 33L14 33L14 30L13 30L13 29L14 29L14 28L13 28L13 27L11 27L11 26L10 26L10 28L11 28L11 29L10 29L10 31L9 31L9 32L8 32L8 33L5 33L5 32L7 32L7 31L5 31L5 32L4 32L4 33L3 33L3 35L4 35L4 39L2 39L2 42L3 42L3 43L2 43L2 45L1 45L1 47L2 47L2 45L3 45L3 47L5 47L5 45L6 45L6 44L8 44L8 45L9 45L9 47L11 47L11 46L12 46L12 49L11 49L11 50L12 50L12 49L13 49L13 48L15 48L15 47L14 47L14 46L15 46L15 45L14 45L14 46L12 46L12 45L11 45L11 44L13 44L13 43L16 43L16 42L17 42L17 41L18 41L18 40L19 40L19 41L20 41L20 42L19 42L19 43L20 43L20 42L21 42L21 41L22 41L22 40L23 40L23 41L24 41L24 42L22 42L22 43L24 43L24 44L22 44L22 46L21 46L21 47L20 47L20 49L19 49L19 50L21 50L21 51L20 51L20 52L21 52L21 51L22 51L22 52L23 52L23 51L24 51L24 52L25 52L25 53L26 53L26 52L25 52L25 51L26 51L26 50L25 50L25 49L26 49L26 48L27 48L27 47L29 47L29 48L30 48L30 46L31 46L31 47L32 47L32 46L33 46L33 45L34 45L34 47L36 47L36 48L37 48L37 47L36 47L36 46L35 46L35 45L36 45L36 42L37 42L37 43L38 43L38 44L37 44L37 45L38 45L38 47L39 47L39 48L40 48L40 45L38 45L38 44L39 44L39 43L40 43L40 42L41 42L41 41L42 41L42 43L44 43L44 42L45 42L45 43L47 43L47 44L45 44L45 45L44 45L44 46L45 46L45 47L44 47L44 48L45 48L45 49L44 49L44 50L45 50L45 51L46 51L46 52L47 52L47 53L45 53L45 54L44 54L44 55L45 55L45 56L46 56L46 55L47 55L47 56L49 56L49 55L50 55L50 54L51 54L51 55L52 55L52 54L51 54L51 53L50 53L50 54L49 54L49 55L48 55L48 54L47 54L47 53L48 53L48 52L47 52L47 51L48 51L48 50L47 50L47 49L48 49L48 48L49 48L49 47L50 47L50 46L51 46L51 47L52 47L52 48L53 48L53 49L54 49L54 50L53 50L53 51L54 51L54 50L55 50L55 49L56 49L56 48L55 48L55 47L56 47L56 46L53 46L53 45L55 45L55 43L54 43L54 42L55 42L55 41L56 41L56 40L55 40L55 39L53 39L53 40L51 40L51 41L50 41L50 40L49 40L49 39L48 39L48 38L49 38L49 37L48 37L48 36L49 36L49 35L50 35L50 34L51 34L51 35L52 35L52 36L51 36L51 37L50 37L50 38L53 38L53 37L54 37L54 38L55 38L55 35L54 35L54 34L55 34L55 33L54 33L54 32L55 32L55 31L56 31L56 30L53 30L53 31L52 31L52 32L51 32L51 33L50 33L50 32L49 32L49 31L48 31L48 30L47 30L47 29L48 29L48 28L47 28L47 27L48 27L48 26L49 26L49 25L50 25L50 26L51 26L51 25L52 25L52 26L53 26L53 27L54 27L54 26L53 26L53 25L52 25L52 24L51 24L51 23L52 23L52 22L51 22L51 21L52 21L52 20L51 20L51 17L49 17L49 15L52 15L52 14L53 14L53 15L54 15L54 16L53 16L53 17L52 17L52 18L53 18L53 19L54 19L54 18L55 18L55 17L54 17L54 16L55 16L55 15L56 15L56 14L55 14L55 13L56 13L56 12L55 12L55 10L53 10L53 11L54 11L54 12L53 12L53 13L52 13L52 12L51 12L51 11L52 11L52 10L51 10L51 9L50 9L50 10L49 10L49 11L48 11L48 10L47 10L47 9L46 9L46 8L47 8L47 7L46 7L46 6L45 6L45 5L44 5L44 6L43 6L43 7L42 7L42 6L41 6L41 7L42 7L42 8L41 8L41 9L42 9L42 13L41 13L41 14L40 14L40 13L36 13L36 10L37 10L37 11L41 11L41 10L39 10L39 9L40 9L40 8L39 8L39 7L40 7L40 5L41 5L41 4L40 4L40 3L41 3L41 2L42 2L42 1L41 1L41 2L40 2L40 1L39 1L39 2L38 2L38 3L39 3L39 7L38 7L38 6L37 6L37 5L38 5L38 4L37 4L37 1L36 1L36 2L35 2L35 3L34 3L34 2L32 2L32 1L31 1L31 3L30 3L30 4L31 4L31 5L33 5L33 7L32 7L32 6L31 6L31 9L30 9L30 11L29 11L29 13L28 13L28 12L27 12L27 11L28 11L28 10L29 10L29 9L28 9L28 10L27 10L27 9L26 9L26 10L25 10L25 7L26 7L26 6L25 6L25 7L24 7L24 8L23 8L23 7L22 7L22 6L21 6L21 7L22 7L22 8L20 8L20 6L19 6L19 3L20 3L20 2L21 2L21 3L22 3L22 2L23 2L23 1L22 1L22 2L21 2L21 1L20 1L20 2L19 2L19 3L18 3L18 2L17 2L17 3L16 3L16 2L15 2L15 3L14 3L14 2L13 2L13 3L12 3L12 1ZM46 1L46 2L47 2L47 1ZM13 3L13 4L14 4L14 3ZM17 3L17 4L16 4L16 5L17 5L17 6L16 6L16 7L17 7L17 8L18 8L18 9L17 9L17 10L18 10L18 11L19 11L19 12L18 12L18 13L20 13L20 11L21 11L21 14L19 14L19 15L17 15L17 14L16 14L16 15L15 15L15 14L14 14L14 15L15 15L15 16L16 16L16 15L17 15L17 16L18 16L18 17L17 17L17 18L18 18L18 19L19 19L19 18L20 18L20 19L21 19L21 20L22 20L22 21L21 21L21 22L22 22L22 23L21 23L21 24L22 24L22 25L21 25L21 26L20 26L20 27L21 27L21 26L22 26L22 27L23 27L23 28L22 28L22 29L23 29L23 30L21 30L21 31L23 31L23 32L21 32L21 33L22 33L22 35L21 35L21 36L20 36L20 35L17 35L17 34L18 34L18 33L20 33L20 31L19 31L19 30L18 30L18 31L17 31L17 34L16 34L16 36L15 36L15 37L14 37L14 36L13 36L13 39L11 39L11 37L9 37L9 38L8 38L8 37L7 37L7 36L6 36L6 37L5 37L5 38L6 38L6 39L4 39L4 42L6 42L6 43L3 43L3 45L4 45L4 44L6 44L6 43L7 43L7 42L6 42L6 41L8 41L8 42L9 42L9 44L11 44L11 43L10 43L10 42L9 42L9 41L8 41L8 40L9 40L9 39L11 39L11 42L12 42L12 43L13 43L13 42L14 42L14 38L15 38L15 40L16 40L16 41L17 41L17 40L18 40L18 39L19 39L19 36L20 36L20 38L22 38L22 39L20 39L20 40L22 40L22 39L23 39L23 40L24 40L24 41L25 41L25 42L24 42L24 43L25 43L25 44L26 44L26 45L25 45L25 46L24 46L24 45L23 45L23 46L22 46L22 47L21 47L21 50L22 50L22 51L23 51L23 50L24 50L24 51L25 51L25 50L24 50L24 49L23 49L23 48L24 48L24 47L25 47L25 48L26 48L26 47L27 47L27 46L28 46L28 45L27 45L27 44L29 44L29 45L31 45L31 46L32 46L32 45L33 45L33 44L34 44L34 45L35 45L35 44L34 44L34 43L35 43L35 42L36 42L36 41L37 41L37 42L38 42L38 41L39 41L39 42L40 42L40 41L41 41L41 40L42 40L42 38L39 38L39 40L38 40L38 39L37 39L37 38L38 38L38 37L37 37L37 36L39 36L39 37L43 37L43 39L44 39L44 41L43 41L43 42L44 42L44 41L45 41L45 42L46 42L46 40L45 40L45 39L44 39L44 38L45 38L45 34L46 34L46 33L47 33L47 34L48 34L48 33L49 33L49 34L50 34L50 33L49 33L49 32L48 32L48 33L47 33L47 32L46 32L46 31L47 31L47 30L43 30L43 31L39 31L39 32L38 32L38 31L37 31L37 30L38 30L38 29L42 29L42 28L44 28L44 29L45 29L45 28L46 28L46 29L47 29L47 28L46 28L46 25L45 25L45 24L46 24L46 23L47 23L47 24L48 24L48 23L49 23L49 24L50 24L50 25L51 25L51 24L50 24L50 23L49 23L49 22L50 22L50 21L51 21L51 20L50 20L50 18L49 18L49 19L47 19L47 20L46 20L46 19L45 19L45 18L46 18L46 17L47 17L47 18L48 18L48 17L47 17L47 16L48 16L48 15L49 15L49 14L50 14L50 13L51 13L51 14L52 14L52 13L51 13L51 12L50 12L50 11L49 11L49 12L50 12L50 13L49 13L49 14L48 14L48 13L47 13L47 12L48 12L48 11L47 11L47 12L46 12L46 9L45 9L45 8L46 8L46 7L45 7L45 6L44 6L44 9L45 9L45 11L44 11L44 10L43 10L43 14L44 14L44 16L42 16L42 17L45 17L45 18L43 18L43 19L42 19L42 20L41 20L41 19L39 19L39 20L38 20L38 19L35 19L35 20L34 20L34 19L33 19L33 20L32 20L32 19L31 19L31 20L30 20L30 19L28 19L28 18L30 18L30 17L37 17L37 18L38 18L38 17L37 17L37 15L36 15L36 14L35 14L35 15L34 15L34 13L35 13L35 10L36 10L36 9L37 9L37 10L38 10L38 9L39 9L39 8L38 8L38 7L37 7L37 6L36 6L36 5L37 5L37 4L36 4L36 3L35 3L35 4L34 4L34 3L33 3L33 4L34 4L34 7L33 7L33 8L32 8L32 9L33 9L33 10L32 10L32 11L30 11L30 12L32 12L32 13L30 13L30 15L29 15L29 14L28 14L28 13L27 13L27 14L26 14L26 13L25 13L25 14L24 14L24 13L23 13L23 14L22 14L22 12L26 12L26 11L27 11L27 10L26 10L26 11L22 11L22 10L24 10L24 9L23 9L23 8L22 8L22 9L21 9L21 10L20 10L20 9L19 9L19 8L18 8L18 7L19 7L19 6L18 6L18 5L17 5L17 4L18 4L18 3ZM31 3L31 4L32 4L32 3ZM46 3L46 5L47 5L47 3ZM35 4L35 5L36 5L36 4ZM27 5L27 8L30 8L30 5ZM12 6L12 7L13 7L13 6ZM17 6L17 7L18 7L18 6ZM28 6L28 7L29 7L29 6ZM35 6L35 7L34 7L34 8L33 8L33 9L34 9L34 10L33 10L33 12L34 12L34 10L35 10L35 9L36 9L36 8L35 8L35 7L36 7L36 6ZM0 8L0 10L1 10L1 9L3 9L3 8ZM34 8L34 9L35 9L35 8ZM37 8L37 9L38 9L38 8ZM19 10L19 11L20 11L20 10ZM8 11L8 12L6 12L6 13L8 13L8 14L9 14L9 13L10 13L10 12L9 12L9 11ZM0 12L0 14L1 14L1 12ZM45 12L45 13L44 13L44 14L45 14L45 15L46 15L46 16L45 16L45 17L46 17L46 16L47 16L47 15L48 15L48 14L47 14L47 13L46 13L46 12ZM32 13L32 14L33 14L33 13ZM45 13L45 14L46 14L46 13ZM53 13L53 14L54 14L54 15L55 15L55 14L54 14L54 13ZM5 14L5 15L7 15L7 14ZM23 14L23 15L22 15L22 16L23 16L23 17L24 17L24 18L23 18L23 19L22 19L22 18L21 18L21 16L19 16L19 17L20 17L20 18L21 18L21 19L22 19L22 20L23 20L23 23L22 23L22 24L23 24L23 25L24 25L24 26L23 26L23 27L26 27L26 26L27 26L27 25L28 25L28 26L29 26L29 25L28 25L28 24L27 24L27 25L26 25L26 23L28 23L28 19L27 19L27 18L25 18L25 17L27 17L27 15L28 15L28 17L30 17L30 16L31 16L31 15L30 15L30 16L29 16L29 15L28 15L28 14L27 14L27 15L26 15L26 14L25 14L25 15L24 15L24 14ZM39 14L39 15L38 15L38 16L39 16L39 17L41 17L41 15L40 15L40 14ZM23 15L23 16L24 16L24 15ZM25 15L25 16L26 16L26 15ZM33 15L33 16L34 16L34 15ZM6 16L6 17L5 17L5 18L4 18L4 19L5 19L5 20L6 20L6 19L7 19L7 18L6 18L6 17L7 17L7 16ZM11 16L11 17L13 17L13 16ZM53 17L53 18L54 18L54 17ZM24 18L24 19L23 19L23 20L24 20L24 22L25 22L25 21L26 21L26 22L27 22L27 21L26 21L26 19L25 19L25 18ZM24 19L24 20L25 20L25 19ZM14 20L14 21L15 21L15 20ZM29 20L29 21L30 21L30 22L29 22L29 23L30 23L30 24L31 24L31 23L32 23L32 25L33 25L33 26L32 26L32 27L31 27L31 29L32 29L32 27L33 27L33 29L34 29L34 30L33 30L33 33L32 33L32 34L33 34L33 35L32 35L32 36L31 36L31 35L30 35L30 34L31 34L31 33L30 33L30 31L28 31L28 32L27 32L27 31L26 31L26 32L25 32L25 31L24 31L24 30L25 30L25 29L26 29L26 28L23 28L23 29L24 29L24 30L23 30L23 31L24 31L24 32L23 32L23 33L24 33L24 34L23 34L23 35L22 35L22 36L21 36L21 37L22 37L22 36L23 36L23 35L24 35L24 36L25 36L25 37L24 37L24 38L25 38L25 37L26 37L26 38L27 38L27 37L26 37L26 36L27 36L27 35L28 35L28 36L29 36L29 37L28 37L28 38L29 38L29 39L28 39L28 42L27 42L27 43L30 43L30 44L31 44L31 45L32 45L32 42L33 42L33 41L32 41L32 40L33 40L33 39L32 39L32 38L33 38L33 37L32 37L32 36L34 36L34 35L35 35L35 37L34 37L34 40L35 40L35 41L34 41L34 42L35 42L35 41L36 41L36 40L35 40L35 39L36 39L36 38L37 38L37 37L36 37L36 35L35 35L35 32L34 32L34 31L36 31L36 30L35 30L35 29L36 29L36 28L34 28L34 25L36 25L36 26L35 26L35 27L36 27L36 26L37 26L37 28L39 28L39 27L41 27L41 28L42 28L42 27L44 27L44 26L45 26L45 25L44 25L44 24L43 24L43 22L45 22L45 23L46 23L46 22L47 22L47 23L48 23L48 22L49 22L49 21L50 21L50 20L47 20L47 21L46 21L46 20L45 20L45 21L44 21L44 20L43 20L43 21L41 21L41 23L40 23L40 22L39 22L39 21L38 21L38 20L37 20L37 21L36 21L36 20L35 20L35 21L34 21L34 22L31 22L31 21L32 21L32 20L31 20L31 21L30 21L30 20ZM55 20L55 22L56 22L56 23L57 23L57 22L56 22L56 21L57 21L57 20ZM37 21L37 22L36 22L36 23L34 23L34 24L36 24L36 25L37 25L37 26L38 26L38 25L39 25L39 26L41 26L41 27L42 27L42 25L43 25L43 24L42 24L42 23L41 23L41 24L40 24L40 23L39 23L39 24L38 24L38 21ZM47 21L47 22L48 22L48 21ZM13 22L13 24L15 24L15 23L14 23L14 22ZM30 22L30 23L31 23L31 22ZM24 23L24 25L25 25L25 26L26 26L26 25L25 25L25 23ZM37 24L37 25L38 25L38 24ZM39 24L39 25L40 25L40 24ZM41 24L41 25L42 25L42 24ZM1 25L1 26L2 26L2 27L4 27L4 26L5 26L5 25L4 25L4 26L2 26L2 25ZM30 25L30 26L31 26L31 25ZM47 25L47 26L48 26L48 25ZM5 27L5 30L8 30L8 27ZM27 27L27 30L30 30L30 27ZM49 27L49 30L52 30L52 27ZM3 28L3 29L4 29L4 28ZM6 28L6 29L7 29L7 28ZM12 28L12 29L13 29L13 28ZM28 28L28 29L29 29L29 28ZM50 28L50 29L51 29L51 28ZM11 30L11 31L10 31L10 33L11 33L11 34L10 34L10 35L9 35L9 36L12 36L12 34L13 34L13 35L15 35L15 34L13 34L13 33L12 33L12 32L13 32L13 30ZM31 30L31 31L32 31L32 30ZM18 31L18 32L19 32L19 31ZM53 31L53 32L54 32L54 31ZM26 32L26 33L25 33L25 34L24 34L24 35L25 35L25 36L26 36L26 35L27 35L27 34L28 34L28 35L29 35L29 34L28 34L28 33L27 33L27 32ZM37 32L37 33L36 33L36 34L37 34L37 33L38 33L38 35L39 35L39 36L40 36L40 35L39 35L39 33L38 33L38 32ZM45 32L45 33L44 33L44 34L45 34L45 33L46 33L46 32ZM8 33L8 34L6 34L6 35L8 35L8 34L9 34L9 33ZM26 33L26 34L27 34L27 33ZM40 33L40 34L41 34L41 35L43 35L43 33ZM51 33L51 34L52 34L52 35L53 35L53 36L54 36L54 35L53 35L53 34L54 34L54 33L53 33L53 34L52 34L52 33ZM1 34L1 35L2 35L2 34ZM4 34L4 35L5 35L5 34ZM17 36L17 37L16 37L16 38L17 38L17 39L16 39L16 40L17 40L17 39L18 39L18 38L17 38L17 37L18 37L18 36ZM30 36L30 37L29 37L29 38L30 38L30 39L29 39L29 40L31 40L31 38L32 38L32 37L31 37L31 36ZM46 36L46 37L47 37L47 38L48 38L48 37L47 37L47 36ZM6 37L6 38L7 38L7 37ZM30 37L30 38L31 38L31 37ZM35 37L35 38L36 38L36 37ZM6 39L6 40L5 40L5 41L6 41L6 40L7 40L7 39ZM24 39L24 40L25 40L25 41L26 41L26 40L25 40L25 39ZM40 39L40 40L39 40L39 41L40 41L40 40L41 40L41 39ZM37 40L37 41L38 41L38 40ZM48 40L48 41L47 41L47 42L48 42L48 43L49 43L49 44L48 44L48 45L47 45L47 46L48 46L48 47L49 47L49 46L50 46L50 45L51 45L51 46L52 46L52 47L53 47L53 48L54 48L54 47L53 47L53 46L52 46L52 45L51 45L51 44L52 44L52 43L53 43L53 44L54 44L54 43L53 43L53 42L54 42L54 41L53 41L53 42L52 42L52 41L51 41L51 42L50 42L50 41L49 41L49 40ZM12 41L12 42L13 42L13 41ZM29 41L29 42L30 42L30 43L31 43L31 41ZM48 41L48 42L49 42L49 43L50 43L50 42L49 42L49 41ZM25 42L25 43L26 43L26 42ZM51 42L51 43L52 43L52 42ZM49 44L49 45L48 45L48 46L49 46L49 45L50 45L50 44ZM26 45L26 46L27 46L27 45ZM23 46L23 47L22 47L22 48L23 48L23 47L24 47L24 46ZM45 47L45 48L46 48L46 49L45 49L45 50L46 50L46 49L47 49L47 48L46 48L46 47ZM6 48L6 49L7 49L7 48ZM27 49L27 52L30 52L30 49ZM31 49L31 51L32 51L32 50L33 50L33 51L34 51L34 52L33 52L33 53L34 53L34 55L37 55L37 54L35 54L35 53L36 53L36 52L35 52L35 51L36 51L36 50L37 50L37 49L36 49L36 50L35 50L35 49ZM49 49L49 52L52 52L52 49ZM28 50L28 51L29 51L29 50ZM50 50L50 51L51 51L51 50ZM13 51L13 52L14 52L14 53L15 53L15 52L14 52L14 51ZM18 51L18 52L19 52L19 51ZM10 52L10 53L11 53L11 52ZM37 52L37 53L38 53L38 56L39 56L39 55L40 55L40 53L38 53L38 52ZM56 52L56 53L54 53L54 55L55 55L55 57L57 57L57 56L56 56L56 55L57 55L57 54L56 54L56 53L57 53L57 52ZM27 54L27 55L28 55L28 54ZM45 54L45 55L46 55L46 54ZM55 54L55 55L56 55L56 54ZM10 55L10 56L12 56L12 55ZM18 55L18 56L19 56L19 55ZM24 55L24 56L25 56L25 55ZM42 56L42 57L43 57L43 56ZM0 0L0 7L7 7L7 0ZM1 1L1 6L6 6L6 1ZM2 2L2 5L5 5L5 2ZM50 0L50 7L57 7L57 0ZM51 1L51 6L56 6L56 1ZM52 2L52 5L55 5L55 2ZM0 50L0 57L7 57L7 50ZM1 51L1 56L6 56L6 51ZM2 52L2 55L5 55L5 52Z" fill="#000000"/></g></g></svg>
